<svg xmlns="http://www.w3.org/2000/svg" xmlns:xlink="http://www.w3.org/1999/xlink" width="1024" height="1024" viewBox="0 0 1024 1024"><path fill="#3E3D3D" d="M646.417 69.2242C646.623 69.213 646.83 69.1991 647.036 69.1904C685.895 67.5499 742.045 71.1842 771.857 98.457C775.493 94.9324 779.169 91.6221 783.507 88.9784C801.768 77.8516 828.889 73.9687 850.023 72.7526C896.046 70.1044 924.464 77.1339 968.898 87.5308C973.873 88.6947 989.086 91.0879 992.354 94.4989C993.209 95.3912 993.402 96.1387 993.362 97.3553C993.129 104.361 990.9 112.047 989.681 119.005C986.994 135.292 984.074 151.54 980.923 167.744C976.946 187.229 972.198 206.712 965.576 225.485C943.227 288.843 901.962 345.277 853.197 391.016C841.244 402.104 829.056 412.936 816.643 423.506C809.463 429.505 801.699 434.97 794.899 441.395C788.663 447.285 782.59 455.317 782.514 464.287C782.473 469.096 784.209 472.835 787.486 476.247C814.628 471.826 841.098 463.379 868.723 461.941C862.012 468.711 854.775 474.929 847.77 481.387C837.937 490.449 828.173 499.729 817.558 507.882C804.526 517.892 778.328 537.917 761.572 535.468C743.059 532.762 729.331 518.317 718.619 504.219C689.366 553.194 634.439 599.765 580.891 619.661C593.658 660.125 615.655 697.274 639.768 731.905C645.74 731.169 668.311 726.806 672.641 729.145C677.395 731.713 708.891 767.635 715.189 774.389C726.998 787.053 739.55 799.329 750.869 812.415C752.558 814.367 754.234 816.454 755.322 818.807C757.104 822.665 757.948 827.413 759.082 831.514L766.726 858.329C768.449 864.308 769.87 871.232 772.773 876.742C777.156 885.064 790.995 897.231 793.235 905.386C793.901 907.907 793.493 910.591 792.109 912.801C790.899 914.717 789.314 916.002 787.123 916.599C778.666 918.902 769.706 920.179 761.107 921.99C735.35 927.412 709.474 932.195 683.674 937.4L447.726 984.355C438.075 986.014 427.725 989.704 417.983 989.943C415.749 988.674 413.904 987.139 412.081 985.349C403.266 976.699 325.513 895.193 323.715 891.118C321.224 885.472 337.535 873.611 339.012 867.356C340.015 863.112 340.552 858.693 341.387 854.407C343.432 844.289 345.391 834.154 347.262 824.003C348.493 817.346 349.108 808.978 352.032 802.845C352.927 800.969 354.114 799.366 355.994 798.401C360.452 796.113 366.193 795.41 371.078 794.36C383.257 791.744 397.761 789.733 409.409 785.522L410.098 785.268C419.267 774.214 428.846 766.99 441.531 760.404C446.551 748.623 450.631 736.367 454.954 724.314C466.135 693.137 477.183 661.123 481.039 628.078C437.027 617.569 397.816 591.391 360.403 567.09C359.78 572.269 359.111 577.407 357.661 582.431C354.116 594.714 346.743 604.154 337.797 613.015C335.394 615.396 332.875 618.223 329.829 619.762C326.681 621.352 321.912 620.125 318.595 619.407C307.317 616.965 296.233 612.638 285.182 609.272C261.32 602.005 237.52 594.534 213.786 586.862C226.964 585.281 240.101 583.183 253.273 581.498C262.655 580.297 278.012 579.467 286.419 576.517C288.586 575.757 289.543 574.949 290.461 572.789C293.437 565.783 290.579 555.864 288.033 549.129C246.727 540.165 205.201 527.011 169.082 504.64C106.975 466.173 66.6855 415.268 39.1924 347.875C31.7555 329.645 24.8784 310.404 20.3444 291.223C20.5949 290.926 20.8517 290.635 21.1147 290.35C27.289 283.635 35.4568 277.86 42.5559 272.099C75.0385 245.74 112.654 219.684 154.623 211.87C165.507 209.843 175.689 211.387 186.485 210.867C187.711 210.808 189.823 210.746 190.755 209.826C194.181 206.448 198.184 186.032 201.197 179.871C203.023 176.134 205.925 172.669 208.75 169.648C252.342 123.024 409.691 99.0274 475.563 88.7139C532.063 79.8679 589.173 70.9654 646.417 69.2242Z" data-index="1" style="opacity: 1;"></path><path fill="white" d="M653.853 82.231C661.676 82.0471 669.502 82.115 677.321 82.4347C702.191 83.2933 745.436 88.5928 762.528 107.558C765.525 110.883 767.612 114.965 767.321 119.537C766.818 127.438 760.166 134.771 754.606 139.858C690.885 198.164 474.603 227.337 388.672 232.762C367.853 234.139 346.977 234.459 326.125 233.721C296.608 232.5 242.332 228.702 219.61 209.196C215.46 205.634 211.964 200.58 211.719 194.958C211.433 188.41 215.43 182.072 219.796 177.477C258.699 136.524 415.835 111.671 474.659 102.409C532.799 93.2552 595.11 83.5305 653.853 82.231Z" data-index="2"></path><path fill="#3E3D3D" d="M657.317 87.7343L657.945 87.7136C677.991 87.1194 730.833 89.6059 745.364 104.024C748.159 106.797 749.864 110.265 749.778 114.254C749.608 122.048 743.494 129.158 738.028 134.158C726.465 144.736 710.832 153.296 696.505 159.603C653.734 178.43 601.044 189.958 554.907 198.811C520.375 205.546 485.6 210.971 450.657 215.072C408.515 219.676 364.972 223.088 322.625 221.062C298.12 220.138 253.224 217.365 234.655 200.369C230.824 196.863 227.75 192.272 227.663 186.921C227.59 182.455 229.636 178.42 232.684 175.257C238.749 168.961 248.05 164.748 255.891 161.052C287.674 146.069 322.691 137.292 356.847 129.625C402.476 119.727 448.456 111.521 494.691 105.026C548.59 97.0637 602.778 89.0402 657.317 87.7343Z" data-index="3"></path><path fill="#E7C06F" d="M249.908 194.757C246.113 192.76 240.992 190.399 239.731 185.888C239.077 183.55 239.707 181.328 240.98 179.322C255.804 155.961 362.257 133.622 393.094 127.608C420.437 122.437 447.866 117.726 475.369 113.48C508.334 108.055 541.415 103.367 574.59 99.4202C616.414 94.5115 660.015 89.8877 701.888 96.4136C711.162 97.8588 721.861 99.852 729.872 105.053C732.67 106.869 735.319 109.409 735.883 112.838C736.396 115.953 734.888 118.811 733.03 121.198C716.1 142.947 666.911 157.91 640.622 165.314C632.283 167.662 623.45 169.385 615.305 172.189L613.363 170.473C618.55 168.403 630.862 164.655 634.088 160.37L634.2 159.395C633.351 158.519 633.164 158.2 631.852 158.191C629.603 158.176 603.963 168.648 599.424 170.372C589.675 174.074 579.888 178.046 569.869 180.946C557.192 184.616 543.79 186.851 530.75 188.84C530.915 188.737 531.079 188.633 531.246 188.533C539.361 183.668 583.381 167.553 585.311 163.869C585.002 162.808 584.817 162.42 583.677 161.962C582.636 161.544 581.262 161.573 580.206 161.882C573.833 163.752 567.236 167.148 561.054 169.712C548.954 174.73 536.781 179.554 524.771 184.785C518.697 187.429 512.285 190.949 505.937 192.792C494.536 196.103 478.805 196.57 466.618 198.568C481.728 191.193 496.664 183.612 512.03 176.769L533.451 167.307C535.795 166.293 538.501 165.653 540.734 164.476C542.412 163.591 543.44 162.482 544.258 160.798L544.2 159.599C542.981 158.726 542.235 158.484 540.726 158.764C534.879 159.849 528.025 163.677 522.458 166.032C505.081 173.385 487.86 180.722 471.021 189.259C465.166 192.227 457.117 197.747 451.228 199.525C443.175 201.956 417.162 203.868 407.907 204.209C424.863 195.101 442.132 186.589 459.683 178.689C472.335 173.063 485.313 168.057 497.792 162.069C499.319 161.336 500.071 160.781 500.7 159.206C500.056 158.027 499.818 157.921 498.64 157.24C492.602 157.525 485.37 161.44 479.792 163.711C457.835 172.653 436.675 182.501 415.546 193.23C409.614 196.242 398.322 203.035 392.733 204.564C381.549 207.623 361.881 206.032 349.592 206.931C371.73 193.91 395.552 182.862 418.853 172.067L436.93 163.886C439.215 162.872 441.69 162.213 443.904 161.05C445.058 160.444 445.793 159.819 446.497 158.703C446.535 157.216 446.401 157.116 445.555 155.871C442.209 154.566 422.283 163.874 417.69 165.895C398.283 174.434 379.475 184.297 360.678 194.085C353.909 197.61 344.655 204.661 337.507 206.337C328.923 208.35 306.241 206.229 296.803 205.163C315.573 195.323 334.521 185.416 353.929 176.896C361.889 173.401 369.902 169.88 377.977 166.662C382.999 164.661 388.328 162.947 393.172 160.557C395.143 159.585 396.589 158.818 397.577 156.777C397.395 155.381 397.349 155.293 396.393 154.259C391.652 154.439 385.638 157.512 381.183 159.176C362.628 166.132 344.463 174.087 326.768 183.007C313.186 189.912 299.907 197.591 286.1 204.031C275.701 202.637 265.779 200.876 255.774 197.583L256.283 197.223C268.212 188.969 282.734 182.614 295.92 176.634C301.688 174.018 337.18 159.958 339.888 156.994L339.934 155.948C338.644 154.853 337.346 154.708 335.701 154.827C332.567 155.055 329.937 156.699 327.03 157.697C300.341 166.86 273.267 178.752 249.908 194.757Z" data-index="4"></path><path fill="#E7C06F" d="M604.011 174.498C607.096 173.077 610.228 171.777 613.363 170.473L615.305 172.189L604.011 174.498Z" data-index="5"></path><path fill="#E7C06F" d="M213.993 229.439C215.432 227.938 216.844 226.393 218.339 224.949C227.211 229.286 235.866 233.52 245.451 236.101C302.948 251.583 385.987 246.333 445.02 240.021C459.293 238.495 474.05 237.366 488.167 234.793C468.326 298.854 435.661 363.564 390.967 413.906C377.06 408.645 363.818 402.429 351.434 394.149C345.391 390.109 339.336 384.514 332.967 381.217C330.772 380.081 328.991 379.68 326.679 380.732C319.873 383.829 314.778 396.299 312.532 402.949C309.87 410.914 308.519 419.258 308.531 427.655C308.475 443.326 315.976 483.16 323.005 497.235C325.537 502.305 329.154 506.92 332.773 511.248C345.184 526.09 359.672 535.727 378.096 541.695C384.795 543.864 391.858 545.271 398.474 547.6C412.583 550.458 426.709 553.684 440.963 555.724C495.216 563.191 550.381 560.595 603.693 548.066C619.477 544.339 635.009 539.306 650.546 534.658C613.733 576.775 573.338 608.234 515.357 612.095C502.64 612.942 482.48 613.651 470.161 611.644L469.605 611.559C485.91 608.454 502.501 606.67 515.208 594.649C508.352 596.329 501.734 598.739 494.922 600.549C480.946 604.262 464.682 605.568 450.347 603.481L450.999 603.264C469.39 597.213 480.055 598.911 492.912 581.4C477.643 589.875 450.895 600.034 433.214 595.383C431.32 594.884 429.477 594.077 427.669 593.331C437.828 590.853 446.618 588.457 454.259 580.833C441.733 583.939 426.933 589.768 414.085 585.228C410.996 584.136 408.108 582.233 405.277 580.597C414.751 580.309 422.636 577.447 429.693 571.037C403.143 574.286 401.013 578.761 376.868 563.369C382.154 563.798 397.139 565.219 401.327 563.469C397.593 561.94 383.779 560.977 378.691 560.028C376.659 559.552 374.472 559.137 372.532 558.373C365.872 555.75 359.155 548.891 353.715 544.285C327.859 522.396 307.446 501.157 288.924 472.647C284.793 466.29 280.172 459.429 276.832 452.645C275.424 449.785 276.213 446.832 274.911 444.016C274.07 443.847 274.029 444.107 273.339 444.555C270.751 441.904 269.405 437.088 268.034 433.687C267.807 433.512 267.577 433.342 267.354 433.162C265.513 431.673 265.391 430.009 265.111 427.793C262.477 422.842 261.451 419.381 261.157 413.805C261.062 412.007 261.205 409.949 260.641 408.232L260.015 408.206L258.756 409.652C257.557 409.368 257.54 409.23 256.886 408.235C255.503 406.131 254.805 402.896 253.995 400.474L256.079 396.927C255.54 394.711 254.975 392.502 254.382 390.3C253.552 391.666 252.757 393.057 251.809 394.345C250.467 390.273 248.898 386.159 247.933 381.983L251.041 378.753C250.512 376.555 249.903 374.347 249.512 372.121L245.635 376.313C244.171 371.754 242.928 367.248 241.85 362.583L245.296 358.276L243.715 352.52L239.809 357.02C238.783 352.464 237.759 347.919 236.538 343.41C237.652 341.403 238.732 339.393 240.025 337.494L238.823 331.909L234.516 336.368C233.511 332.007 232.615 327.584 231.416 323.273C232.876 321.226 234.403 319.204 235.715 317.057C235.222 314.972 234.762 312.935 234.481 310.808L229.92 316.697C229.052 312.164 228.283 307.586 227.287 303.079C228.493 300.275 230.244 297.566 229.16 294.486C228.22 293.541 227.287 293.267 226.06 292.858C225.576 291.628 225.731 291.811 226.137 290.667C227.49 290.818 226.717 290.653 228.029 291.128C229.863 291.793 232.504 291.756 234.301 290.932C237.769 289.342 240.13 284.164 241.227 280.734C244.304 271.112 242.473 257.055 237.74 248.22C232.659 238.735 222.487 235.085 213.993 229.439Z" data-index="6"></path><path fill="#353333" d="M265.111 427.793L266.834 426.496C267.834 426.867 268.253 426.98 268.741 428.04C269.237 429.119 269.187 430.95 269.093 432.091L268.034 433.687C267.807 433.512 267.577 433.342 267.354 433.162C265.513 431.673 265.391 430.009 265.111 427.793Z" data-index="7"></path><path fill="#353333" d="M365.35 267.773C365.836 267.888 366.207 268.122 366.643 268.358C367.634 273.089 366.996 278.715 367.063 283.592L367.649 308.293C378.028 311.526 388.751 314.408 398.921 318.218C400.542 318.825 402.534 319.473 403.301 321.151C401.932 324.048 373.52 334.398 368.435 337.121L368.001 337.359C367.611 342.842 366.577 373.178 364.331 375.577C360.466 373.605 344.286 352.015 340.357 347.201C337.009 348.666 333.416 349.759 329.966 350.976L299.642 361.28C301.929 356.314 305.144 351.697 308.063 347.083C312.885 339.459 317.764 331.885 322.175 324.011C316.235 312.42 306.635 302.803 301.135 290.997C306.062 291.432 311.039 292.934 315.844 294.098L339.301 299.807C347.478 289.029 356.027 277.549 365.35 267.773Z" data-index="8"></path><path fill="white" d="M361.84 279.39C363.246 280.835 362.927 307.303 362.986 311.539C373.164 314.426 383.212 317.989 393.279 321.254C384.122 326.541 373.285 329.802 363.552 334.025C363.755 344.477 362.259 355.334 361.467 365.774C354.851 358.041 348.134 350.021 342.171 341.775C339.228 342.736 336.296 343.733 333.377 344.764C325.624 347.628 317.818 350.346 309.963 352.918C316.198 343.429 322.27 333.834 328.178 324.137C322.569 315.157 316.494 306.571 310.538 297.82C320.815 300.248 331.052 302.841 341.245 305.598C347.974 296.722 354.727 287.964 361.84 279.39Z" data-index="9"></path><path fill="#E7C06F" d="M526.118 228.727C534.353 227.045 542.753 226.182 551.014 224.611C573.07 220.398 595.021 215.651 616.847 210.373C601.311 247.442 583.033 283.302 562.164 317.652C554.964 329.688 547.768 341.724 539.805 353.276C536.648 357.856 533.234 364.517 529.156 368.096L528.342 367.988C527.618 366.713 527.647 366.135 528.047 364.712C529.816 358.412 536.177 353.399 536.593 346.668C536.118 346.09 536.129 345.797 535.303 345.763C530.469 345.56 519.862 351.501 515.14 353.646C507.93 347.727 499.645 339.642 491.874 334.917C492.191 344.107 494.456 352.955 495.113 362.054C490.952 364.689 474.753 373.467 472.441 376.054L472.505 377.006C476.111 379.341 492.593 380.784 498.049 381.765C499.88 388.323 501.767 394.879 503.047 401.572C493.826 411.395 484.809 421.548 474.688 430.461C456.446 428.62 438.553 426.265 420.553 422.717C412.227 421.068 403.594 418.79 395.653 415.796C402.146 407.506 409.392 399.958 415.61 391.413C448.476 346.244 478.148 288.141 492.934 234.193C504.019 232.547 515.019 230.332 526.118 228.727Z" data-index="10"></path><path fill="white" d="M526.118 228.727L526.631 229.311C521.903 245.514 515.048 261.595 508.63 277.195C490.284 321.783 468.757 367.236 437.665 404.485C432.327 410.88 426.387 416.777 420.553 422.717C412.227 421.068 403.594 418.79 395.653 415.796C402.146 407.506 409.392 399.958 415.61 391.413C448.476 346.244 478.148 288.141 492.934 234.193C504.019 232.547 515.019 230.332 526.118 228.727Z" data-index="11"></path><path fill="white" d="M661.634 198.172C662.2 202.003 649.118 230.69 646.634 236.02C644.283 241.066 641.146 246.284 639.262 251.466L638.548 253.418C636.974 266.815 637.92 281.498 638.376 295C628.466 299.101 618.485 303.782 608.36 307.28C606.163 308.268 603.631 309.081 602.032 310.936C601.925 311.822 601.705 312.019 602.269 312.803C602.988 313.803 603.832 314.275 604.862 314.889C616.881 318.045 629.334 321.085 641.173 324.799C642.649 336.621 643.231 349.019 645.755 360.646C636.705 371.965 606.339 413.048 596.413 418.486C587.5 423.369 550.804 428.235 539.41 429.5C531.947 430.328 524.466 430.667 516.996 431.355C505.287 432.334 492.478 432.172 480.807 430.82C496.198 416.932 510.856 401.403 523.228 384.757C529.897 386.29 536.698 388.174 543.496 388.953C540.63 383.064 536.113 378.052 531.877 373.116C535.142 367.658 539.156 362.43 542.742 357.158C548.31 348.903 553.727 340.546 558.989 332.093C576.733 303.808 592.729 274.464 606.888 244.225C612.333 232.668 617.839 221.076 622.439 209.153C635.588 205.801 648.657 202.14 661.634 198.172Z" data-index="12"></path><path fill="#E7C06F" d="M604.862 314.889C616.881 318.045 629.334 321.085 641.173 324.799C642.649 336.621 643.231 349.019 645.755 360.646C636.705 371.965 606.339 413.048 596.413 418.486C587.5 423.369 550.804 428.235 539.41 429.5C531.947 430.328 524.466 430.667 516.996 431.355C521.436 425.249 526.908 419.714 531.906 414.053C539.779 405.188 547.498 396.188 555.06 387.057C573.716 364.608 589.929 339.941 604.862 314.889Z" data-index="13"></path><path fill="#E7C06F" d="M608.36 307.28C613.608 297.009 620.118 287.019 625.782 276.917C630.105 269.208 633.766 260.814 638.548 253.418C636.974 266.815 637.92 281.498 638.376 295C628.466 299.101 618.485 303.782 608.36 307.28Z" data-index="14"></path><path fill="white" d="M192.755 295.207C199.429 294.399 206.613 294.914 213.328 295.006C221.021 344.176 241.799 412.739 264.942 457.059C272.312 471.031 280.864 484.347 290.505 496.86C272.525 491.777 254.754 486.675 238.275 477.667L229.386 472.499C191.438 450.185 158.128 414.072 138.973 374.431C130.67 357.249 125.116 339.913 120.331 321.483C141.161 304.66 166.345 297.049 192.755 295.207Z" data-index="15"></path><path fill="white" d="M869.729 156.208C877.199 155.372 885.643 155.729 893.084 156.561C892.329 167.692 891.444 178.829 889.536 189.831C877.057 261.813 836.392 322.365 785.561 373.274C781.52 377.195 777.52 381.159 773.563 385.165C779.348 357.678 784.943 330.541 787.572 302.511C789.866 278.056 790.397 253.044 790.039 228.502C789.855 215.829 789.182 203.17 788.975 190.498C792.696 186.381 794.261 180.995 797.838 177.091C810.29 163.499 851.452 157.365 869.729 156.208Z" data-index="16"></path><path fill="white" d="M758.302 153.423C763.268 149.508 767.733 145.341 771.653 140.368C783.159 250.092 780.481 359.204 729.627 459.743C718.568 481.606 706.755 501.65 691.336 520.717C651.589 569.869 594.351 611.917 529.953 618.607C515.203 620.139 499.566 619.793 485.244 615.644C524.79 616.669 557.552 610.897 592.03 591.03C607.117 582.348 621.101 571.877 633.68 559.844C642.433 551.542 651.284 542.511 658.464 532.801C674.199 528.387 681.365 523.142 689.35 508.942C693.562 501.45 697.751 493.985 701.364 486.179C704.444 479.524 707.033 472.573 710.284 466.015C711.064 460.402 713.25 454.679 714.521 449.117C715.555 444.597 715.112 439.879 716.261 435.465C718.404 427.235 722.098 419.154 724.778 411.052C729.853 395.547 734.139 379.795 737.617 363.856C748.578 313.143 753.095 264.961 750.306 213.078C749.748 202.705 748.493 192.361 747.267 182.05C746.536 175.903 745.539 169.697 745.429 163.5L745.418 162.627C749.812 159.713 754.037 156.523 758.302 153.423Z" data-index="17"></path><path fill="#E7C06F" d="M745.418 162.627C749.812 159.713 754.037 156.523 758.302 153.423C758.438 163.347 759.557 173.099 760.202 182.987C761.123 198.057 761.714 213.145 761.976 228.24C762.957 290.398 752.524 361.004 731.957 419.74C727.685 431.942 718.689 456.983 710.284 466.015C711.064 460.402 713.25 454.679 714.521 449.117C715.555 444.597 715.112 439.879 716.261 435.465C718.404 427.235 722.098 419.154 724.778 411.052C729.853 395.547 734.139 379.795 737.617 363.856C748.578 313.143 753.095 264.961 750.306 213.078C749.748 202.705 748.493 192.361 747.267 182.05C746.536 175.903 745.539 169.697 745.429 163.5L745.418 162.627Z" data-index="18"></path><path fill="white" d="M977.026 109.096C977.573 115.407 971.297 143.657 969.899 151.882C953.47 248.55 915.123 312.308 845.075 380.086C834.704 390.121 823.975 400.009 812.989 409.37C800.123 420.333 784.592 429.861 775.282 444.304C770.167 452.24 767.568 461.429 769.805 470.794C771.317 477.12 775.297 484.105 780.975 487.461C782.858 488.574 785.03 489.48 787.239 489.558C794.602 489.82 820.276 483.17 828.924 481.091C818.669 490.765 806.787 499.392 795.39 507.671C785.887 514.065 775.771 520.682 764.459 523.183C764.199 522.931 763.933 522.685 763.69 522.417C751.797 509.271 741.91 483.769 742.624 466.008C742.821 461.088 747.83 449.108 751.024 445.379C756.111 439.438 766.677 432.455 773.037 427.209C788.924 414.105 804.956 400.674 819.979 386.596C890.552 320.462 943.781 226.935 946.935 128.65C957.329 122.573 966.916 115.582 977.026 109.096Z" data-index="19"></path><path fill="white" d="M741.546 180.797C743.919 188.004 744.179 206.587 744.58 215.196C747.579 268.68 742.324 322.307 729 374.191C724.876 390.865 720.62 406.875 714.606 422.995C713.761 419.936 712.775 416.918 711.652 413.95C708.167 404.727 697.22 381.253 687.708 377.316C685.699 376.484 683.704 376.459 681.776 377.515C676.676 380.308 672.759 385.518 667.835 388.727C652.944 398.431 636.196 405.584 619.691 412.003C614.998 413.858 610.153 415.377 605.374 416.996C620.796 400.472 635.212 383.036 648.542 364.783C656.371 353.971 663.561 342.6 670.993 331.506C682.99 334.39 695.367 339.382 707.666 340.233C700.964 328.878 692.353 317.828 684.37 307.32C706.475 277.136 721.269 241.372 733.407 206.161C736.302 197.761 738.699 189.21 741.546 180.797Z" data-index="20"></path><path fill="white" d="M36.8004 300.066C48.8635 301.922 60.8756 304.096 72.8243 306.585C79.0341 337.913 88.3012 364.141 104.347 391.904C137.797 449.781 195.334 491.171 257.394 513.743C270.914 518.66 284.901 522.134 298.787 525.842C314.46 550.188 323.378 577.634 322.037 606.782C314.792 605.029 307.739 602.609 300.706 600.164C292.552 597.611 284.423 594.978 276.322 592.263C280.867 591.57 285.583 591.404 290.047 590.261C295.11 588.965 298.632 586.446 301.227 581.864C306.56 572.449 304.982 557.186 302.009 547.226C301.116 544.236 299.429 540.048 296.529 538.465C291.079 535.49 263.584 529.613 255.245 527.329C231.743 520.892 209.677 512.262 188.286 500.579C118.185 462.293 72.0928 402.412 45.4194 327.826C42.1579 318.706 39.5325 309.355 36.8004 300.066Z" data-index="21"></path><path fill="white" d="M664.887 743.24C665.152 743.229 665.418 743.186 665.683 743.206C667.46 743.345 668.323 744.416 669.544 745.604C675.506 751.404 681.076 757.791 686.729 763.894L717.645 797.354C722.7 802.821 739.176 819.275 741.714 823.969C744.349 828.845 745.494 836.052 747.039 841.476C750.095 852.209 754.658 876.06 760.195 884.785C764.692 891.871 771.229 898.325 776.745 904.67C764.127 908.168 751.032 910.345 738.201 912.945C715.696 917.56 693.164 922.046 670.607 926.403L506.435 958.921L457.03 968.781C445.198 971.083 433.268 973.109 421.518 975.786C417.36 972.56 413.767 968.156 410.177 964.304C404.191 957.847 398.167 951.425 392.105 945.039L357.718 908.867C351.724 902.519 345.069 896.234 339.782 889.312C342.868 885.285 346.297 881.59 349.718 877.85C351.3 879.1 352.788 880.475 354.3 881.809C352.431 884.226 350.545 886.63 348.642 889.02C358.091 900.782 369.719 911.392 380.01 922.466L406.931 951.424C412.624 957.495 418.311 964.028 424.675 969.384C454.837 963.703 484.963 957.831 515.051 951.767L639.048 927.424C681.737 918.873 724.737 911.429 767.172 901.696C764.205 897.16 759.585 892.908 755.972 888.767C738.951 890.876 721.835 895.131 704.996 898.457L604.113 918.555C571.449 924.725 538.824 931.094 506.238 937.662C481.348 942.678 456.24 948.394 431.108 951.957C432.718 949.425 434.668 947.184 436.596 944.893C461.849 939.055 487.702 935.15 513.143 930.121C592.804 914.372 672.813 900 752.312 883.493C747.248 865.456 742.68 847.215 737.911 829.094C729.996 833.25 718.907 834.425 710.145 836.196C700.65 838.1 691.167 840.058 681.694 842.068C626.864 853.676 571.935 864.807 516.912 875.46L468.176 885.439C458.549 887.372 448.513 888.682 439.119 891.535L438.931 892.012C439.644 893.077 440.559 894.257 440.979 895.473C443.49 902.741 445.35 931.44 442.185 937.875C441.742 938.777 441.996 938.469 440.981 938.854C439.851 937.024 438.971 908.128 438.564 903.621C438.061 898.057 437.51 892.601 436.124 887.171C445.717 884.458 455.677 882.73 465.441 880.726L512.431 871.138C569.024 859.66 625.756 849.019 682.176 836.688C695.042 833.876 725.6 829.332 735.594 823.413C729.144 815.342 721.128 808.11 714.119 800.468C703.435 788.594 692.625 776.832 681.693 765.185C676.724 759.879 671.508 753.166 665.514 749.029C661.308 748.797 654.432 748.916 651.045 746.182L651.243 745.434C654.851 743.148 660.684 743.468 664.887 743.24Z" data-index="22"></path><path fill="#E7C06F" d="M938.04 151.243C938.79 152.823 938.252 154.746 938.004 156.462C936.014 170.255 933.527 184.479 929.87 197.939C912.381 262.312 874.547 322.341 828.265 369.916C813.321 385.278 796.953 399.108 780.387 412.663C772.469 419.142 764.678 425.775 756.492 431.915C756.184 431.613 756.197 431.736 756.239 431.229C756.422 429.052 758.315 426.251 759.113 424.151C760.453 420.626 761.374 416.634 763.251 413.358C766.003 408.554 781.603 396.253 786.516 391.469C850.716 328.956 904.682 248.303 905.894 155.71C916.189 153.344 927.529 152.491 938.04 151.243Z" data-index="23"></path><path fill="#E7C06F" d="M661.634 198.172C689 189.486 715.612 179.699 740.878 165.951C734.462 186.166 728.437 206.476 720.795 226.282C714.546 242.476 707.062 258.117 699.593 273.765C691.31 274.963 675.897 280.794 667.019 283.433C661.212 276.684 655.532 269.828 649.981 262.868C647.403 259.694 644.914 256.189 642.086 253.245C641.29 252.416 640.367 251.797 639.262 251.466C641.146 246.284 644.283 241.066 646.634 236.02C649.118 230.69 662.2 202.003 661.634 198.172Z" data-index="24"></path><path fill="white" d="M196.071 245.709C203.371 245.337 210.874 245.24 217.988 247.145C225.078 256.586 225.535 271.11 225.438 282.443C188.045 280.518 158.059 283.335 124.767 302.243C119.674 305.136 114.86 309.06 110.396 312.851C108.617 314.361 106.364 317.283 104.311 318.224C104.103 318.32 103.89 318.404 103.679 318.494C96.7094 321.332 89.4349 323.54 82.2998 325.932C80.4691 319.016 79.1517 312.277 78.3771 305.169C99.8732 280.573 138.54 257.904 170.087 249.69C178.661 247.457 187.264 246.376 196.071 245.709Z" data-index="25"></path><path fill="white" d="M857.929 113.791C885.072 111.575 915.563 116.997 940.634 127.597C940.7 133.288 940.198 139.003 939.852 144.682C929.529 145.992 917.979 149.642 907.599 148.869C907.167 148.266 906.869 147.73 906.546 147.052C906.426 146.799 906.312 146.544 906.195 146.29C904.138 145.14 901.612 144.911 899.316 144.497C884.202 141.769 868.61 142.574 853.446 144.611C840.815 144.975 820.837 150.863 809.072 155.826C803.288 158.266 797.809 161.287 792.299 164.279C789.356 153.103 786.822 141.824 784.702 130.464C801.193 125.157 817.784 119.508 834.871 116.447C842.475 115.085 850.242 114.479 857.929 113.791Z" data-index="26"></path><path fill="white" d="M857.573 85.2129C864.429 84.6704 871.519 84.9584 878.387 85.2154C911.951 86.4711 943.252 94.5956 975.581 102.983C966.101 110.406 954.882 117.725 944.04 122.969C927.965 117.196 912.997 112.321 896.104 109.444C855.25 104.449 821.751 111.541 783.563 125.658C783.746 117.948 781.847 109.567 787.733 103.301C799.33 90.9527 840.679 86.0812 857.573 85.2129Z" data-index="27"></path><path fill="#E7C06F" d="M106.364 323.555C108.066 324.945 114.353 348.229 115.926 352.663C121.037 367.375 127.575 381.553 135.446 394.993C160.462 438.442 202.283 477.662 248.773 497.085C266.2 504.366 285.113 509.015 303.341 513.915C301.191 515.988 299.375 517.957 297.678 520.422C293.247 519.344 288.868 518.003 284.482 516.75C260.564 509.418 238.268 501.008 215.997 489.539C202.273 482.472 189.483 473.903 177.173 464.61C131.032 429.779 101.157 385.876 83.6193 330.981C91.2503 328.66 98.8334 326.184 106.364 323.555Z" data-index="28"></path><path fill="white" d="M171.623 222.711C189.31 222.219 206.013 230.333 219.757 241.014C214.68 240.737 209.597 240.56 204.513 240.484C194.749 240.374 184.891 240.958 175.305 242.87C139.821 249.948 105.351 270.94 79.7346 296.03L73.9195 301.833C61.5597 298.651 48.9249 296.676 36.3528 294.542C44.374 287.295 52.8787 280.626 61.4097 273.996C93.0132 249.436 130.602 225.242 171.623 222.711Z" data-index="29"></path><path fill="#E7C06F" d="M494.094 630.192C500.782 631.249 507.588 631.749 514.318 632.502C510.92 646.335 508.119 660.329 504.545 674.112C493.097 720.009 477.922 764.895 459.17 808.323C459.02 808.55 458.481 808.869 458.253 809.035C453.385 808.061 444.862 802.851 441.773 798.907C441.313 798.319 440.766 797.329 440.664 796.582C440.119 792.602 447.649 778.991 449.494 774.802C468.408 731.84 487.842 676.625 494.094 630.192Z" data-index="30"></path><path fill="#E7C06F" d="M522.649 641.7L523.293 641.998L523.886 645.633C524.655 648.523 525.551 650.584 527.446 652.934C527.789 707.58 527.079 762.372 531.108 816.909C517.366 817.13 503.285 817.859 489.643 815.895C502.34 779.881 508.671 742.768 514.216 705.113C517.317 684.059 520.387 662.859 522.649 641.7Z" data-index="31"></path><path fill="#E7C06F" d="M478.763 837.004C531.354 843.68 598.757 834.629 645.405 808.754C647.098 814.444 647.591 820.524 648.384 826.396C600.963 853.787 532.702 863.06 479.085 854.184L478.763 837.004Z" data-index="32"></path><path fill="white" d="M653.32 753.746C655.36 754.53 657.226 755.387 659.082 756.536C663.677 759.377 668.363 763.632 669.471 769.147C670.426 773.901 668.012 778.928 665.453 782.84C649.681 806.948 610.706 819.257 583.524 825.022C569.629 827.969 555.506 830.67 541.352 832.001C510.511 834.901 457.247 833.905 430.652 816.343C424.904 812.547 421.335 808.228 419.943 801.442C420.002 800.961 420.058 800.479 420.137 800.001C421.718 790.367 427.564 784.842 435.123 779.52C433.526 784.217 431.572 789.384 432.061 794.424C432.549 799.453 435.759 803.061 439.534 806.127C464.451 826.367 513.351 825.478 544.153 822.432C575.614 819.32 610.522 812.085 637.392 794.765C641.771 791.942 646.832 788.543 650.059 784.381C656.773 775.72 654.76 763.784 653.32 753.746Z" data-index="33"></path><path fill="white" d="M556.521 627.106C558.02 628.493 560.659 642.595 561.406 645.703C566.776 667.727 573.108 689.507 580.383 710.978C590.53 740.385 602.801 771.14 621.056 796.572C616.851 798.396 612.592 799.975 608.283 801.531L603.311 803.18C579.5 763.449 565.074 718.409 553.435 673.828C551.046 664.676 549.381 655.267 547.449 646.007C546.366 640.816 545.501 635.326 543.431 630.428C547.811 629.389 552.175 628.281 556.521 627.106Z" data-index="34"></path><path fill="white" d="M600.014 450.549C602.536 450.474 605.048 450.39 607.555 450.729C613.257 451.501 619.148 453.397 622.651 458.264C630.117 468.64 629.059 487.603 626.927 499.498C625.03 510.088 620.989 522.927 611.722 529.337C608.156 530.955 604.076 531.608 600.273 530.408C595.559 528.92 592.333 525.026 590.252 520.705C582.758 505.14 583.16 480.955 588.836 464.888C590.988 458.795 593.969 453.436 600.014 450.549Z" data-index="35"></path><path fill="#3E3D3D" d="M605.538 457.531C606.526 457.483 607.528 457.426 608.516 457.482C610.898 457.617 612.907 458.9 614.453 460.651C620.418 467.407 619.604 482.156 618.948 490.511C618.101 501.3 615.559 515.23 606.867 522.655C605.45 523.075 604.051 523.484 602.568 523.063C600.287 522.416 598.599 520.539 597.457 518.542C591.239 507.664 592.765 483.285 596.179 471.554C597.847 465.82 600.059 460.502 605.538 457.531Z" data-index="36"></path><path fill="white" d="M368.517 808.955C368.694 808.954 368.871 808.94 369.047 808.95C369.776 808.994 370.268 809.123 370.785 809.678C373.978 813.102 377.597 819.105 381.053 823.172C398.082 843.211 414.594 863.889 432.063 883.526L431.892 883.397C430.948 902.824 436.635 922.515 436.239 941.972C433.998 942.776 431.927 943.773 429.806 944.841C427.582 925.569 427.175 906.025 424.369 886.814C405.189 861.803 383.948 838.178 363.113 814.544C364.945 819.34 366.971 823.032 366.147 828.303C377.19 842.608 390.277 865.743 398.563 882.086C388.628 870.712 378.949 859.116 369.533 847.309C367.905 845.444 366.453 843.382 364.946 841.416L363.218 847.863L396.956 896.552C382.82 887.289 371.24 872.581 361.408 859.037C360.907 862.128 360.045 865.19 359.299 868.233C364.859 873.788 369.654 880.217 374.774 886.19C386.159 899.693 397.963 912.836 410.17 925.6C416.487 932.298 422.715 939.405 429.905 945.171C428.224 947.059 426.834 949.095 425.402 951.171L378.39 900.989C369.362 891.203 359.739 881.534 352.203 870.52C355.739 854.798 358.075 838.812 361.568 823.058C362.374 819.421 362.913 814.354 364.543 811.088C365.18 809.812 367.25 809.396 368.517 808.955Z" data-index="37"></path><path fill="white" d="M642.509 261.888C648.673 266.741 659.372 282.536 664.66 289.531C675.295 287.035 685.784 283.01 696.341 280.072C691.023 289.658 684.2 298.817 678.169 307.99C682.982 312.422 692.861 327.003 696.754 332.951L668.797 325.493C662.681 335.224 656.749 345.21 649.774 354.353C648.41 343.107 647.11 331.853 645.876 320.591C634.041 317.689 622.226 314.701 610.434 311.628C621.508 306.866 632.975 303.003 643.887 297.851C642.95 285.956 642.786 273.819 642.509 261.888Z" data-index="38"></path><path fill="white" d="M538.918 630.878C540.847 632.154 541.026 636.029 541.078 638.139C542.162 682.22 543.685 725.726 550.971 769.341C553.434 784.08 556.116 799.247 561.349 813.294L549.117 814.914C544.689 815.457 540.248 815.895 535.799 816.229C535.182 803.269 530.265 654.374 530.618 653.615L531.142 653.601C533.344 653.527 535.077 653.296 536.565 651.521C540.414 646.931 536.496 638.274 536.261 632.873C536.923 631.448 537.511 631.486 538.918 630.878Z" data-index="39"></path><path fill="#E7C06F" d="M547.622 673.888C549.884 677.639 552.322 690.311 553.796 695.396C556.522 704.825 559.422 714.203 562.493 723.524C571.702 751.713 583.72 778.904 598.366 804.689L592.876 806.244C583.998 808.659 574.961 810.508 565.96 812.4C555.362 779.119 550.981 738.8 548.708 704.045C548.06 694.136 547.07 683.815 547.622 673.888Z" data-index="40"></path><path fill="white" d="M485.44 476.527C485.056 487.759 483.555 498.869 482.767 510.068C482.202 518.102 482.328 526.423 481.283 534.394C481.027 536.34 480.623 538.52 479.515 540.187C478.631 541.518 477.733 541.871 476.215 542.122C474.809 541.69 474.175 541.18 473.099 540.233C472.618 537.78 472.671 535.282 472.804 532.797C473.212 525.215 479.711 455.204 481.259 452.526C481.829 451.541 483.175 450.952 484.241 450.705C485.297 450.46 486.734 450.492 487.617 451.174C488.422 451.797 488.847 452.514 489.115 453.478C490.525 458.551 490.981 464.462 491.925 469.687L498.539 504.612C502.075 498.552 504.304 491.402 506.817 484.857L518.704 453.945C521.799 453.883 524.935 453.667 528 454.163L528.883 454.125C528.39 456.842 528.043 459.387 527.977 462.156L526.994 463.121C526.531 471.439 522.978 480.333 521.451 488.607C518.254 505.938 516.383 523.499 514.653 541.024C513.202 541.123 511.692 541.285 510.238 541.243C508.992 541.207 508.129 540.988 507.231 540.077C504.521 531.602 514.221 488.726 516.293 478.228C512.828 485.212 501.956 516.45 497.254 519.188C496.237 519.78 495.996 519.65 494.92 519.389C492.7 516.805 486.758 482.991 485.44 476.527Z" data-index="41"></path><path fill="#BBBBBF" d="M528.883 454.125C528.39 456.842 528.043 459.387 527.977 462.156L526.994 463.121C526.993 460.193 527.396 457.023 528 454.163L528.883 454.125Z" data-index="42"></path><path fill="white" d="M566.775 624.529L567.999 624.383C568.284 624.6 568.651 624.74 568.855 625.034C570.169 626.934 573.113 636.999 574.167 639.774C577.303 648.209 580.798 656.506 584.641 664.643C595.186 687.155 608.076 708.41 621.695 729.179C626.235 736.101 631.082 742.998 636.32 749.413C640.278 754.259 645.074 759.011 648.353 764.331C649.258 765.799 649.761 767.448 650.254 769.089C649.515 771.871 648.864 775.661 646.695 777.659L645.743 777.169C638.424 769.52 631.729 761.371 625.097 753.126C593.318 713.615 574.792 674.749 559.548 626.661L566.775 624.529Z" data-index="43"></path><path fill="white" d="M513.756 660.326C514.986 665.454 513.091 672.785 512.557 678.089C507.981 723.55 499.662 772.245 484.565 815.423C478.845 814.408 473.202 813.331 467.567 811.905L463.251 810.626C485.968 762.48 499.696 711.447 513.756 660.326Z" data-index="44"></path><path fill="white" d="M662.022 443.679C663.132 443.681 663.239 443.66 664.137 444.296C665.941 448.377 676.678 504.46 675.623 508.022C674.469 511.918 669.965 514.036 666.613 515.705C658.128 502.371 652.077 487.913 644.157 474.314C644.332 490.41 646.875 506.64 647.852 522.73L644.268 523.713C642.813 524.117 641.915 524.541 640.419 523.972C639.309 522.515 639.441 521.547 639.26 519.75C638.577 511.272 631.627 450.101 632.729 447.156C635.585 445.396 639.476 445.724 642.732 445.65C651.084 460.888 655.412 478.92 664.801 493.923C664.023 483.087 655.523 451.705 656.807 444.861C658.35 443.838 660.228 443.849 662.022 443.679Z" data-index="45"></path><path fill="white" d="M528.883 454.125C537.391 453.593 551.116 452.401 557.888 458.728C562.165 462.723 563.522 469.174 563.509 474.823C563.494 481.157 561.711 488.44 557.069 492.971C552.242 497.682 545.553 499.883 539.137 501.415C537.486 514.194 537.217 527.194 535.145 539.909C532.537 540.039 529.977 540.345 527.443 539.592L526.714 538.888C526.846 531.293 528.078 523.538 528.87 515.974C530.747 498.04 533.051 480.01 534.021 462.009L527.977 462.156C528.043 459.387 528.39 456.842 528.883 454.125Z" data-index="46"></path><path fill="#3E3D3D" d="M542.547 461.818C545.616 461.704 548.503 461.605 550.971 463.663C553.727 465.961 554.81 469.306 555.009 472.796C555.353 478.821 553.399 483.771 549.464 488.222C546.474 490.495 543.48 491.533 539.94 492.605C540.463 482.371 541.882 472.073 542.547 461.818Z" data-index="47"></path><path fill="white" d="M456.464 453.262C458.019 453.775 458.8 453.878 459.933 455.092C460.668 458.635 459.823 463.445 459.675 467.093C459.076 481.904 458.921 496.921 459.177 511.741C459.335 520.906 460.381 530.802 459.459 539.874C458.735 540.799 457.557 541.904 456.354 542.184C455.194 542.454 454.312 542.24 453.454 541.378C449.747 537.659 451.357 524.785 451.475 519.781C446.375 519.399 441.111 518.662 436.133 517.491L433.483 523.595C431.998 527.111 430.937 530.977 429.334 534.393C428.691 535.763 427.358 536.748 425.924 537.153C423.965 537.706 422.494 537.34 420.731 536.443C420.292 535.875 419.666 535.344 419.604 534.594C419.338 531.404 428.904 514.196 430.868 509.99C434.724 501.733 452.139 457.742 456.464 453.262Z" data-index="48"></path><path fill="#3E3D3D" d="M452.866 477.952C453.712 479.301 452.462 509.378 452.409 513.691C448.489 512.99 444.561 512.335 440.626 511.726C439.702 511.508 439.338 511.325 438.673 510.645C439.99 504.332 449.749 485.277 452.866 477.952Z" data-index="49"></path><path fill="white" d="M400.354 447.371C402.401 447.644 404.034 448.049 405.416 449.663C406.365 452.652 397.051 484.294 395.729 489.316C400.847 490.642 406.034 491.433 411.25 492.247C413.375 485.147 419.342 455.662 422.487 451.336C423.237 450.305 423.962 449.927 425.264 449.877C426.731 449.822 427.672 450.474 428.76 451.304C429.368 452.635 429.569 453.241 429.262 454.693C428.139 459.996 426.416 465.279 425.039 470.532C420.513 487.787 414.917 507.501 412.145 524.96C411.779 527.407 411.74 531.697 410.113 533.626C409.207 534.699 408.208 535.198 406.784 535.198C405.435 535.198 404.636 534.812 403.657 533.945C401.724 529.961 407.955 504.904 409.097 499.239C404.353 498.19 399.53 497.533 394.678 497.273C392.717 503.312 391.042 509.439 389.657 515.635C388.699 519.795 388.061 524.788 386.389 528.699C386.04 529.515 385.834 529.964 385.004 530.287C383.19 530.994 381.699 530.365 380.054 529.607C379.297 528.457 379.3 527.402 379.3 526.028C379.299 516.553 387.914 489.296 390.7 478.68C393.07 469.647 394.805 460.055 397.849 451.256C398.411 449.631 399.146 448.584 400.354 447.371Z" data-index="50"></path><path fill="white" d="M307.101 517.404C319.771 529.46 331.7 542.093 345.105 553.384C345.883 555.395 346.435 557.486 346.75 559.618C348.843 573.245 344.31 585.112 336.319 596.013C333.808 599.226 330.603 601.678 327.439 604.207C330.458 576.853 317.244 545.642 302.872 523.044L307.101 517.404Z" data-index="51"></path><path fill="#E7C06F" d="M582.006 698.897C586.066 703.302 593.777 718.865 598.117 725.412C611.379 745.765 626.629 764.751 643.643 782.09C641.267 784.109 638.745 785.942 636.247 787.804C632.747 790.105 629.245 792.229 625.539 794.182C620.599 788.005 616.663 780.37 612.947 773.402C600.36 749.8 589.422 724.644 582.006 698.897Z" data-index="52"></path><path fill="white" d="M371.596 446.113C371.877 446.083 372.159 446.05 372.441 446.024C378.442 445.458 385.225 447.012 389.849 451.094C391.08 452.182 391.58 453.103 391.654 454.78C391.112 456.474 390.424 457.249 389.155 458.475C387.407 458.689 383.072 454.889 381.056 454.12C378.152 453.012 375.023 453.34 372.222 454.604C362.722 458.889 354.529 479.595 351.284 488.669C349.291 494.245 346.549 501.826 349.479 507.498C350.348 509.181 351.861 510.616 353.725 511.103C356.649 511.868 359.273 509.97 361.583 508.459C362.587 507.773 363.971 507.253 365.16 507.01C366.558 506.725 367.051 506.969 368.153 507.789C368.595 508.941 368.701 509.667 368.341 510.878C367.579 513.446 365.524 515.471 363.19 516.681C359.374 518.662 354.946 518.703 350.938 517.291C346.76 515.819 342.312 512.672 340.504 508.503C336.772 499.897 342.376 486.502 345.719 478.468C351.106 465.52 357.97 451.733 371.596 446.113Z" data-index="53"></path><path fill="white" d="M497.471 345.7C502.905 348.467 507.998 355.077 514.011 358.656C519.511 356.846 524.771 354.404 530.033 352.011C527.22 357.184 523.997 362.289 521.935 367.814C525.886 372.893 530.316 377.415 534.064 382.7C528.224 381.382 522.423 380.196 516.505 379.281C513.738 385.125 510.858 390.697 507.156 396.011C505.159 390.207 503.544 384.277 502.323 378.261C495.845 376.445 488.846 375.599 482.204 374.542C488.053 370.753 494.629 367.706 500.8 364.446C499.481 358.261 498.566 351.932 497.471 345.7Z" data-index="54"></path><path fill="white" d="M569.633 453.165C572.621 452.924 575.615 453.025 578.611 453.065C578.962 462.669 578.01 472.507 577.548 482.104C576.784 500.214 575.743 518.312 574.424 536.391C571.815 536.756 569.206 536.907 566.578 537.065C566.338 526.498 567.759 515.442 568.182 504.824C568.868 487.61 568.872 470.376 569.633 453.165Z" data-index="55"></path><path fill="white" d="M404.063 801.16C404.684 801.339 404.325 801.165 404.947 801.969C404.859 802.547 404.783 803.485 404.521 804.041C402.647 808.018 388.619 809.394 384.286 810.559C403.226 825.69 422.533 852.415 443.248 862.296C447.971 864.548 452.96 865.78 457.995 867.115L447.375 867.051C444.778 867.068 442.675 867.094 440.263 866.012C425.783 859.517 406.255 838.115 394.977 826.93C388.457 820.465 381.731 814.213 375.117 807.844C384.604 805.219 394.387 802.955 404.063 801.16Z" data-index="56"></path><path fill="white" d="M738.296 470.419C739.907 472.767 740.47 483.284 741.472 486.854C745.058 499.633 749.831 510.598 757.27 521.584C754.496 520.305 751.787 518.868 749.065 517.481C739.246 511.589 731.66 502.011 726.96 491.662C730.824 484.627 734.603 477.546 738.296 470.419Z" data-index="57"></path><path fill="white" d="M671.356 783.833C671.85 795.404 673.456 803.502 664.875 812.935C660.118 818.164 654.293 822.559 648.384 826.396C647.591 820.524 647.098 814.444 645.405 808.754C656.07 801.873 664.203 794.312 671.356 783.833Z" data-index="58"></path><path fill="white" d="M419.456 814.727C422.223 816.307 424.254 819.231 426.926 821.064C434.493 826.256 442.662 829.144 451.376 831.727C451.576 837.003 451.528 842.299 451.566 847.578C443.309 844.637 433.972 840.761 427.31 834.899C420.938 829.292 420.098 822.661 419.456 814.727Z" data-index="59"></path><path fill="white" d="M455.752 832.769C463.359 834.503 471.036 835.916 478.763 837.004L479.085 854.184C471.253 852.869 463.61 850.974 455.923 849.006L455.752 832.769Z" data-index="60"></path><path fill="white" d="M779.411 121.824C781.469 140.337 786.319 158.097 790.063 176.287C786.017 176.929 784.255 178.031 781.334 180.802C780.368 170.498 779.315 160.203 778.174 149.917C777.439 143.205 775.956 135.712 776.536 128.968C776.71 126.94 777.531 124.791 778.138 122.849L779.411 121.824Z" data-index="61"></path><path fill="white" d="M221.741 242.902C223.446 242.838 224.757 243.058 226.288 243.809C230.519 245.886 232.921 249.807 234.469 254.12C237.895 263.667 238.286 274.237 234.007 283.496C233.628 284.11 233.35 284.47 232.778 284.935C232.062 285.517 232.421 285.332 231.31 285.2C230.763 284.394 230.619 283.775 230.549 282.825C230.023 275.754 231.06 270.446 229.688 262.977C228.324 255.555 225.76 249.26 221.741 242.902Z" data-index="62"></path><path fill="white" d="M336.148 410.89L336.675 410.844C338.139 411.799 339.792 412.759 341.054 413.972C342.67 415.526 343.56 417.821 343.602 420.044C343.636 421.886 343.024 423.491 341.737 424.811C339.956 426.637 338.464 427.542 335.888 427.514C335.575 427.413 335.101 427.256 334.808 427.193C334.158 427.055 333.5 427.046 332.851 426.857C331.019 426.322 327.543 423.468 326.827 421.744C326.265 420.39 326.639 418.775 327.373 417.565C329.135 414.657 331.225 412.953 334.508 412.254C335.397 412.064 335.566 411.563 336.148 410.89Z" data-index="63"></path><path fill="white" d="M692.888 407.969C694.511 409.103 696.031 414.696 698.3 417.113C695.488 418.999 694.009 419.795 692.933 423.075C692.872 423.26 692.816 423.446 692.758 423.632C691.547 424.289 689.789 422.435 688.04 422.304C684.434 422.015 683.161 420.103 680.478 417.922C681.867 416.045 684.093 411.853 684.166 409.489C684.17 409.35 684.143 409.211 684.132 409.072C684.289 409.166 684.431 409.292 684.603 409.355C686.583 410.085 690.485 409.03 692.328 408.226C692.516 408.144 692.702 408.055 692.888 407.969Z" data-index="64"></path><path fill="white" d="M726.031 867.075C731.666 868.391 739.803 871.618 744.803 874.457C746.311 876.498 747.341 878.341 747.82 880.847C746.887 880.777 745.899 880.691 744.998 880.43C740.524 879.136 728.142 871.194 726.031 867.075Z" data-index="65"></path><path fill="white" d="M531.691 633.737C532.138 634.119 532.259 634.165 532.578 634.763C534.122 637.66 534.11 645.379 532.845 648.391C532.052 647.726 531.235 647.161 530.832 646.171C529.346 642.522 530.085 637.237 531.691 633.737Z" data-index="66"></path><path fill="#E7C06F" d="M204.712 210.814C206.267 211.792 208.842 213.934 209.125 215.855C209.398 217.712 208.434 218.708 207.54 220.228C207.165 220.641 206.691 220.778 206.191 221.006L205.265 220.461C203.415 217.87 204.338 213.783 204.712 210.814Z" data-index="67"></path><path fill="white" d="M778.138 122.849C778.203 119.846 776.851 115.809 777.431 113.09C777.593 112.33 777.635 112.526 778.37 112.038C779.567 113.359 779.285 119.732 779.411 121.824L778.138 122.849Z" data-index="68"></path><path fill="#A58868" d="M522.649 641.7L523.276 635.765L523.319 635.829C523.78 635.023 523.913 634.963 523.928 633.987C524.232 637.916 523.838 641.713 523.886 645.633L523.293 641.998L522.649 641.7Z" data-index="69"></path><path fill="#3E3D3D" d="M935.261 335.486L935.654 335.767C935.613 336.056 935.561 336.518 935.48 336.821C934.748 339.554 932.866 342.515 931.593 345.056C918.221 371.745 879.909 414.8 853.426 428.865L853.261 428.27C858.997 420.194 865.864 413.089 872.505 405.77C879.822 397.666 887.077 389.506 894.27 381.292C902.11 372.345 909.878 363.335 917.574 354.264C923.154 347.818 928.738 341.007 935.261 335.486Z" data-index="70"></path><path fill="#3E3D3D" d="M244.064 55.3513C245.094 55.4587 245.941 55.8015 246.906 56.1583C250.693 60.0101 272.229 103.475 271.649 107.385C271.476 108.55 271.105 108.805 270.19 109.318C269.443 109.359 268.775 109.382 268.057 109.124C266.52 108.572 265.298 107.519 264.352 106.206C260.699 101.135 252.434 81.5341 249.157 74.6217L246.21 69.3755C244.339 79.8344 243.427 90.7845 242.044 101.355C241.487 105.608 241.54 110.478 239.941 114.468C239.099 116.566 238.034 118.156 235.89 119.032L234.414 118.081C233.679 116.497 233.514 115.111 233.539 113.377C233.644 106.046 235.321 98.3498 236.243 91.0449C237.537 80.7966 238.102 69.4476 240.589 59.4625C241.159 57.1762 242.147 56.5279 244.064 55.3513Z" data-index="71"></path><path fill="#3E3D3D" d="M839.978 521.516C840.862 521.407 840.387 521.365 841.381 521.79C841.319 522.904 840.886 523.569 840.213 524.42C836.309 529.359 830.541 533.292 825.405 536.86C803.824 551.857 771.175 568.472 744.908 571.722C743.856 571.354 744.263 571.673 743.656 570.801C745.216 567.873 755.798 563.555 759.192 562.036C774.911 555.181 790.356 547.716 805.494 539.659C816.888 533.53 827.678 525.733 839.978 521.516Z" data-index="72"></path><path fill="#3E3D3D" d="M715.893 555.507L716.252 556.051C716.082 556.662 716.055 556.843 715.833 557.389C713.601 562.877 707.332 568.455 703.19 572.647C684.653 591.412 662.759 610.769 637.966 620.676L637.751 620.252C654.141 603.258 672.509 588.117 691.079 573.583C699.118 567.291 707.09 560.707 715.893 555.507Z" data-index="73"></path><path fill="#3E3D3D" d="M101.831 493.247C104.113 494.493 129.508 526.151 133.94 531.219C139.127 537.14 144.463 542.93 149.943 548.582C155.072 553.955 162.042 560.113 165.599 566.605C163.382 565.927 161.126 564.575 159.104 563.43C134.476 549.485 109.453 520.691 101.831 493.247Z" data-index="74"></path><path fill="#3E3D3D" d="M125.788 113.323C132.301 115.029 183.116 142.697 188.485 147.303C189.32 148.02 189.871 148.87 189.788 150.014C189.687 151.403 188.448 152.489 187.535 153.42C182.006 151.789 127.87 122.727 124.444 119.577C123.428 118.644 123.452 118.278 123.329 116.993C123.927 115.338 124.52 114.533 125.788 113.323Z" data-index="75"></path><path fill="#3E3D3D" d="M153.206 519.715C159.147 522.046 166.5 528.985 171.69 532.922C178.945 538.424 186.174 543.712 194.032 548.332C197.456 550.345 215.257 558.372 216.279 560.255C209.43 561.937 202.509 560.096 196.11 557.574C178.911 550.795 160.792 536.97 153.206 519.715Z" data-index="76"></path><path fill="#3E3D3D" d="M175.044 102.174C175.964 102.254 176.711 102.478 177.499 102.978C180.503 104.884 206.809 128.608 207.532 130.528C207.736 131.069 207.749 131.664 207.858 132.232C207.424 133.811 206.776 134.463 205.638 135.55C201.867 135.393 199.315 132.571 196.628 130.185C193.115 127.065 173.819 110.465 172.887 107.814C172.758 107.447 172.647 106.378 172.677 106.051C172.815 104.538 174.09 103.245 175.044 102.174Z" data-index="77"></path><path fill="#3E3D3D" d="M303.046 64.9232C305.273 64.8406 306.542 64.7948 308.259 66.3566C309.377 69.7926 304.59 98.7187 302.954 103.487C302.246 103.689 301.23 103.999 300.504 103.974C299.069 103.925 298.752 103.472 297.784 102.539C296.548 97.8294 300.355 69.686 303.046 64.9232Z" data-index="78"></path><path fill="#3E3D3D" d="M186.447 65.8268C187.701 65.8136 188.48 65.8743 189.638 66.3681C192.753 70.1626 206.25 92.5222 206.487 96.6811C206.029 98.2323 205.29 98.9296 204.168 100.012C203.347 99.8754 202.293 99.771 201.582 99.2883C199.242 97.7011 184.451 72.3484 184.034 69.2543C184.414 67.6533 185.31 66.9195 186.447 65.8268Z" data-index="79"></path><path fill="#3E3D3D" d="M341.362 68.3389C342.513 68.3543 343.937 68.4186 344.992 68.9607C346.2 69.5821 346.281 70.4283 346.641 71.6097C345.674 76.5443 332.625 96.6503 328.742 100.536C327.301 100.579 326.352 100.386 324.994 99.9872C324.023 98.9621 323.947 98.7958 323.672 97.4093C325.193 91.5906 337.277 73.3718 341.362 68.3389Z" data-index="80"></path><path fill="#3E3D3D" d="M145.179 176.504C152.475 176.015 166.712 176.535 173.522 178.721C175.536 179.368 176.518 179.982 177.447 181.894C177.395 183.511 176.928 184.258 176.069 185.549C172.407 185.63 148.33 183.69 145.831 182.476C144.556 181.857 144.42 181.434 143.853 180.228C143.885 178.584 144.323 177.829 145.179 176.504Z" data-index="81"></path></svg>