<svg xmlns="http://www.w3.org/2000/svg" xmlns:xlink="http://www.w3.org/1999/xlink" width="1024" height="1024" viewBox="0 0 1024 1024"><path fill="#2F2E2E" d="M694.757 73.706C695.835 73.6293 696.916 73.5877 697.998 73.5813C729.958 73.343 760.679 85.9336 783.279 108.533C801.443 126.748 811.244 150.131 815.497 175.253C829.473 257.802 788.166 342.39 747.915 411.849C739.591 426.214 730.584 440.349 721.478 454.228C714.865 464.307 707.178 474.438 702.326 485.496C699.873 491.085 698.424 496.692 698.476 502.813C698.567 513.54 703.432 523.738 711.057 531.185C722.93 542.78 741.438 547.715 757.645 547.518C750.577 552.575 741.96 556.553 734.23 560.487C720.213 567.62 705.579 569.527 690.477 564.54C676.945 560.072 667.364 551.168 660.945 538.611C657.956 550.612 655.42 562.794 651.852 574.642C641.754 608.174 625.174 635.434 599.471 659.294C600.235 661.203 600.927 663.122 601.49 665.1C604.339 675.107 602.28 683.763 597.377 692.681C618.154 733.934 646.183 774.802 682.362 804.113C693.324 803.119 704.277 801.335 715.25 800.618C719.3 800.354 723.053 800.363 726.873 801.919C737.605 806.289 755.752 819.871 766.263 826.756C775.314 832.686 785.889 838.124 793.907 845.336C800.406 851.183 804.308 867.843 804.675 876.498C804.941 882.78 802.965 889.682 798.509 894.265C795.342 897.521 789.807 899.252 785.525 900.494C769.751 905.07 753.671 908.575 737.798 912.791L587.345 952.274L515.813 971.476C504.595 974.557 468.117 986.088 458.451 985.712C454.561 985.561 449.461 981.755 446.944 978.987C441.68 973.197 437.134 955.27 437.659 947.299C438.212 938.926 459.384 888.139 464.021 880.034C466.305 876.042 468.959 873.094 472.323 870.003C482.626 861.427 497.729 855.821 510.298 851.314C525.841 806.045 527.851 761.074 523.219 713.76C513.053 706.233 508.897 701.043 505.323 688.825C468.468 682.582 437.886 665.124 409.964 640.868C402.909 634.739 395.486 628.433 389.461 621.263C389.56 627.604 389.862 633.894 388.692 640.167C386.084 654.145 377.701 665.459 366.047 673.328C348.708 685.036 330.163 685.5 310.309 681.64C323.454 672.181 336.827 663.213 342.173 647.028C346.571 633.715 344.578 617.49 334.376 607.267C322.711 595.577 284.732 579.798 268.173 572.34C193.506 538.711 105.26 491.87 67.3977 415.281C52.259 384.659 46.5595 346.726 57.8246 313.98C67.7776 285.773 88.5185 262.669 115.492 249.742C142.568 236.768 169.068 235.683 197.151 245.659C197.157 245.622 197.165 245.585 197.171 245.548C198.565 236.439 205.394 230.091 212.512 224.859C220.285 219.145 228.854 214.647 237.384 210.191C253.837 201.595 270.213 194.301 287.376 187.296C365.339 155.012 446.682 131.588 529.874 117.463C558.49 112.709 589.008 107.813 617.904 112.227C618.42 111.593 618.948 110.968 619.487 110.353C639.189 87.8605 664.986 75.6799 694.757 73.706Z" data-index="1" style="opacity: 1;"></path><path fill="#FEFEFE" d="M620.892 140.759C654.756 250.484 665.916 381.086 652.209 495.138C647.559 533.833 640.83 572.924 622.44 607.737C608.343 634.425 584.061 659.577 555.148 669.642C552.368 670.816 549.411 671.677 546.498 672.454C514.198 681.077 480.973 671.903 452.781 655.441C421.192 636.996 394.772 608.773 371.776 580.719C315.712 512.324 272.192 431.274 242.374 348.155C232.029 318.461 222.903 288.358 215.017 257.919C242.665 260.463 271.059 256.819 298.297 252.281C364.681 241.526 430.693 223.123 493.87 200.301C521.675 190.562 548.946 179.361 575.568 166.745C590.792 159.426 607.926 151.675 620.892 140.759Z" data-index="2" style="opacity: 1;"></path><path fill="#2F2E2E" d="M215.017 257.919C242.665 260.463 271.059 256.819 298.297 252.281C299.622 260.769 300.317 270.31 302.671 278.513C288.448 279.957 274.357 281.859 260.061 282.561C255.412 282.79 243.054 282.014 239.629 284.063C238.992 285.093 238.724 285.457 238.96 286.736C239.199 288.031 240.04 288.654 241.038 289.35C258.27 290.904 285.457 286.864 303.05 284.564C305.367 294.125 307.567 303.743 310.099 313.248C311.184 317.321 312.927 321.38 313.838 325.438L317.432 330.578C322.249 330.51 338.336 328.032 341.618 330.623C342.187 331.072 342.417 331.795 342.414 332.515C342.397 336.641 332.96 347.494 330.231 351.601C332.216 355.936 340.213 371.13 338.95 374.96C338.751 375.564 338.358 376.165 338.005 376.691C338.7 384.312 344.932 396.315 347.785 403.944C366.764 455.945 390.528 506.071 418.774 553.678C424.569 563.241 431.387 572.149 437.446 581.546C443.807 567.368 452.076 554.62 461.274 542.135C467.958 533.212 474.744 524.366 481.631 515.599C493.845 500.179 527.083 461.658 518.931 440.771C517.7 437.62 515.294 435.207 512.117 434.028C507.408 432.28 501.527 433.097 497.107 435.297C491.962 437.858 488.357 442.523 486.664 447.966C483.946 456.704 484.713 465.856 484.811 474.863L484.179 475.12C478.821 477.278 429.172 493.135 426.336 492.054C425.149 491.602 424.474 491.022 423.953 489.859C422.979 487.678 423.069 483.385 422.861 480.943C421.393 463.735 422.671 446.364 430.457 430.68C441.432 408.572 463.58 394.704 486.357 387.145C507.479 380.136 534.4 375.751 555.203 386.156C568.099 392.685 577.858 404.087 582.319 417.836C589.095 438.674 584.824 460.786 574.973 479.853C567.206 494.886 557.251 508.9 546.57 521.986C542.263 527.263 537.414 532.234 533.321 537.654L575.542 526.883C581.142 525.505 587.032 523.531 592.759 522.861C594.254 522.686 595.7 522.578 597.035 523.446C598.512 524.408 599.656 526.332 600.619 527.778C600.288 535.766 597.328 573.542 594.105 578.107C586.683 582.759 546.904 592.149 536.085 595.077C511.164 601.823 486.254 609.303 461.146 615.291C466.162 623.851 473.612 631.604 481.175 637.962C483.856 640.215 487.256 642.195 489.508 644.853C493.959 646.941 498.433 648.729 503.207 649.945C506.895 650.885 518.3 650.514 520.375 653.356C520.737 654.67 520.763 655.196 520.297 656.481C517.423 658.689 510.638 657.28 507.135 656.886C508.66 659.801 520.023 662.898 523.149 663.873C533.547 667.067 544.289 669.004 555.148 669.642C552.368 670.816 549.411 671.677 546.498 672.454C514.198 681.077 480.973 671.903 452.781 655.441C421.192 636.996 394.772 608.773 371.776 580.719C315.712 512.324 272.192 431.274 242.374 348.155C232.029 318.461 222.903 288.358 215.017 257.919Z" data-index="3" style="opacity: 1;"></path><path fill="#AAA9A9" d="M215.017 257.919C242.665 260.463 271.059 256.819 298.297 252.281C299.622 260.769 300.317 270.31 302.671 278.513C288.448 279.957 274.357 281.859 260.061 282.561C255.412 282.79 243.054 282.014 239.629 284.063C238.992 285.093 238.724 285.457 238.96 286.736C239.199 288.031 240.04 288.654 241.038 289.35C258.27 290.904 285.457 286.864 303.05 284.564C305.367 294.125 307.567 303.743 310.099 313.248C311.184 317.321 312.927 321.38 313.838 325.438L317.432 330.578C322.249 330.51 338.336 328.032 341.618 330.623C342.187 331.072 342.417 331.795 342.414 332.515C342.397 336.641 332.96 347.494 330.231 351.601C332.216 355.936 340.213 371.13 338.95 374.96C338.751 375.564 338.358 376.165 338.005 376.691C338.7 384.312 344.932 396.315 347.785 403.944C366.764 455.945 390.528 506.071 418.774 553.678C424.569 563.241 431.387 572.149 437.446 581.546C435.189 588.428 434.434 594.762 434.073 601.972C396.659 563.676 363.548 514.945 335.672 469.147C329.352 458.762 323.195 448.031 317.477 437.296C314.435 431.584 311.601 424.002 307.463 419.132C306.649 418.174 306.031 417.648 304.772 417.357C303.382 417.968 303.294 418.048 302.503 419.344C302.033 425.282 307.988 432.969 310.714 438.186C336.295 487.141 373.195 541.127 409.112 583.178C416.694 592.055 424.951 602.817 434.372 609.778C434.425 612.43 433.85 617.474 435.669 619.581C436.456 620.491 437.4 620.8 438.573 620.663C439.448 620.56 440.297 620.27 441.13 619.999C456.687 633.376 473.996 647.023 493.713 653.605C498.057 655.055 502.702 655.733 507.135 656.886C508.66 659.801 520.023 662.898 523.149 663.873C533.547 667.067 544.289 669.004 555.148 669.642C552.368 670.816 549.411 671.677 546.498 672.454C514.198 681.077 480.973 671.903 452.781 655.441C421.192 636.996 394.772 608.773 371.776 580.719C315.712 512.324 272.192 431.274 242.374 348.155C232.029 318.461 222.903 288.358 215.017 257.919Z" data-index="4" style="opacity: 1;"></path><path fill="#2F2E2E" d="M292.868 336.556C293.238 330.246 294.143 322.642 295.99 316.605C296.681 314.344 297.446 312.627 299.605 311.493C304.713 311.752 309.889 321.462 313.442 325.048C313.573 325.179 313.706 325.308 313.838 325.438L317.432 330.578C322.249 330.51 338.336 328.032 341.618 330.623C342.187 331.072 342.417 331.795 342.414 332.515C342.397 336.641 332.96 347.494 330.231 351.601C332.216 355.936 340.213 371.13 338.95 374.96C338.751 375.564 338.358 376.165 338.005 376.691C330.348 376.999 321.616 373.281 314.276 371.136C311.223 374.282 300.735 386.524 296.521 386.676C295.709 386.706 295.002 386.474 294.424 385.919C291.263 382.889 291.269 366.77 290.929 361.757C286.782 359.902 272.065 354.479 270.215 350.575C269.874 349.855 269.805 349.116 270.087 348.381C271.605 344.426 288.337 338.569 292.868 336.556Z" data-index="5"></path><path fill="#FEFEFE" d="M301.669 322.726C305.216 325.362 311.436 334.265 314.711 338.072C320.58 337.394 326.596 337.298 332.501 336.995C328.959 341.737 324.758 346.706 322.509 352.2C324.693 357.251 327.017 362.251 329.26 367.277C323.635 366.187 318.149 364.361 312.51 363.412C307.944 367.487 303.581 371.844 299.091 376.011C298.838 369.785 298.49 363.564 298.046 357.35C292.674 354.381 286.914 351.912 281.363 349.291C287.255 346.761 293.198 344.351 299.189 342.065L301.669 322.726Z" data-index="6"></path><path fill="#AAA9A9" d="M448.398 618.825L461.146 615.291C466.162 623.851 473.612 631.604 481.175 637.962C483.856 640.215 487.256 642.195 489.508 644.853C478.074 641.969 457.537 627.036 448.398 618.825Z" data-index="7"></path><path fill="#FEFEFE" d="M518.853 393.708C528.797 392.177 541.164 393.812 550.128 398.464C559.819 403.492 567.193 412.803 570.359 423.212C583.808 467.422 535.161 510.919 512.411 543.159C508.982 548.02 506.167 553.17 503.382 558.411C514.392 556.886 525.703 552.951 536.464 550.13C553.175 545.906 569.917 541.807 586.689 537.832C585.301 548.079 583.989 558.336 582.756 568.603C561.352 574.31 539.993 580.186 518.682 586.228L451.86 604.286C450.381 604.611 449.789 604.997 448.398 604.325C447.429 601.359 447.784 597.135 448.243 594.062C449.911 582.872 456.303 572.552 462.42 563.243C469.195 553.071 476.43 543.213 484.103 533.7C501.827 511.487 531.775 479.336 532.959 450.107C533.292 441.882 531.566 433.46 525.642 427.357C520.517 422.077 513.415 419.7 506.175 419.788C497.131 419.945 488.517 423.675 482.216 430.164C472.924 439.722 470.487 452.807 470.618 465.682L435.95 476.185C434.176 458.405 438.038 440.066 449.416 425.981C465.53 406.033 494.147 396.221 518.853 393.708Z" data-index="8" style="opacity: 1;"></path><path fill="#2F2E2E" d="M302.671 278.513C327.92 274.952 352.618 269.797 377.438 264.014C442.056 248.957 506.418 228.236 565.778 198.269C573.953 194.139 582.083 189.921 590.166 185.616C594.535 183.249 605.496 176.06 609.661 175.147C610.662 174.928 611.577 175.566 612.378 176.047C612.694 177.069 612.814 177.262 612.261 178.261C609.937 182.458 592.545 191.221 587.69 193.803C522.017 228.741 451.894 252.605 379.698 269.868C354.393 275.963 328.815 280.867 303.05 284.564C285.457 286.864 258.27 290.904 241.038 289.35C240.04 288.654 239.199 288.031 238.96 286.736C238.724 285.457 238.992 285.093 239.629 284.063C243.054 282.014 255.412 282.79 260.061 282.561C274.357 281.859 288.448 279.957 302.671 278.513Z" data-index="9"></path><path fill="#2F2E2E" d="M441.882 278.388C442.117 278.386 442.352 278.375 442.587 278.38C448.987 278.507 455.402 290.119 459.661 294.534L460.208 295.095C466 293.871 475.013 292.329 480.887 292.668C482.889 292.784 483.926 293.271 485.227 294.782C486.41 299.778 476.673 311.993 473.923 316.763C475.842 320.853 483.965 333.955 482.739 338.146C482.491 338.993 482.073 339.477 481.335 339.897C477.255 342.224 463.939 337.465 459.156 336.239C454.032 336.018 446.41 349.927 440.72 351.189C440.006 351.347 439.272 351.313 438.665 350.894C435.024 348.386 435.3 332.559 434.403 327.895L434.259 327.164C430.149 324.365 416.793 319.064 414.776 315.231C414.466 314.641 414.179 314.021 414.392 313.355C415.488 309.927 431.892 303.654 435.804 301.818C436.988 294.918 437.173 283.834 441.882 278.388Z" data-index="10"></path><path fill="#FEFEFE" d="M445.138 289.205C448.926 291.91 453.436 298.909 456.491 302.7C462.933 301.885 469.382 301.118 475.835 300.401C472.43 305.52 468.779 310.48 465.969 315.96C468.481 321.495 471.283 326.833 474.147 332.192C469.233 331.109 464.354 330.163 459.381 329.386C458.143 329.099 457.062 328.922 455.783 328.866C450.754 331.078 447.07 336.444 443.115 340.184C442.144 334.538 442.032 328.636 441.364 322.931C436.108 320.433 431.078 317.402 426.014 314.539C429.525 312.776 438.78 309.743 441.266 307.511C444.98 304.175 444.558 294.003 445.138 289.205Z" data-index="11"></path><path fill="#2F2E2E" d="M584.41 232.327C584.604 232.334 584.797 232.332 584.99 232.348C590.935 232.823 597.478 244.627 601.329 249.034L601.725 249.481C607.725 249.357 620.595 245.939 625.706 248.31C626.754 248.797 626.807 249.047 627.215 250.056C626.592 254.817 617.532 266.382 614.511 271.019C617.149 277.481 620.539 284.102 622.541 290.758C623.079 292.548 623.493 293.859 622.588 295.558C617.822 297.812 605.444 292.31 600.117 291.101C597.549 290.971 587.825 303.123 583.798 305.239C582.455 305.945 581.69 305.93 580.293 305.429C577.744 302.532 576.92 286.207 576.334 281.394C572.374 279.714 558.693 273.928 556.784 270.818C555.969 269.49 556.111 269.115 556.398 267.679C560.535 262.048 571.034 259.724 577.004 255.816L577.621 255.406C579.306 249.99 579.938 238.309 582.381 234.253C582.861 233.456 583.69 232.881 584.41 232.327Z" data-index="12"></path><path fill="#FEFEFE" d="M587.294 243.29C590.355 245.092 595.845 253.841 598.996 257.107C605.149 256.005 611.569 255.59 617.781 254.667C613.78 259.833 609.777 265.109 606.371 270.688C609.27 275.955 611.502 281.815 613.926 287.326C608.703 286.196 603.622 284.603 598.512 283.053C595.734 283.187 587.746 292.482 585.329 294.839C584.633 288.726 583.558 282.706 583.399 276.54C577.779 274.463 572.143 271.675 566.857 268.864C572.645 265.686 579.057 263.835 584.721 260.407C585.781 254.766 586.429 248.971 587.294 243.29Z" data-index="13"></path><path fill="#2F2E2E" d="M615.042 314.339C615.65 314.334 616.421 314.274 617.034 314.369C618.263 314.559 618.845 314.847 619.515 315.951C620.671 317.855 622.171 339.376 622.54 343.146C629.459 413.857 631.247 504.529 612.552 572.901C606.594 594.692 596.774 616.715 580.905 633.104C577.872 636.236 574.579 639.566 570.772 641.742C569.076 641.252 568.409 640.622 567.356 639.289C567.265 638.654 567.004 638.09 567.358 637.517C569.311 634.353 577.292 627.947 580.332 624.414C596.664 605.433 604.373 581.878 609.891 557.9C623.103 500.491 622.99 435.062 619.11 376.447C618.431 364.818 617.534 353.202 616.42 341.607C615.638 333.772 614.106 325.419 614.141 317.581C614.147 316.286 614.45 315.476 615.042 314.339Z" data-index="14" style="opacity: 1;"></path><path fill="#FEFEFE" d="M160.048 283.711C167.676 283.47 175.244 284.548 182.085 288.106C180.73 288.001 179.374 287.914 178.017 287.847C165.325 287.256 153.138 293.579 144.022 302.023C136.008 309.445 130.636 318.923 130.26 330.001C129.868 341.541 134.636 353.177 142.559 361.489C150.999 370.343 163.108 375.097 175.262 375.292C196.386 375.631 213.439 364.419 228.082 350.379C237.153 373.008 245.628 395.686 255.507 418.005C274.331 460.53 298.699 504.645 325.399 542.744C327.515 545.509 329.388 548.505 331.328 551.399C276.076 523.451 210.204 498.693 162.512 459.045C132.1 433.762 101.211 398.247 97.6838 357.228C96.0818 338.597 101.689 321.605 113.851 307.408C125.471 293.66 142.104 285.129 160.048 283.711Z" data-index="15"></path><path fill="#FEFEFE" d="M696.86 118.719C711.108 117.638 726.944 122.628 738.736 130.487C756.384 142.248 766.177 163.26 770.186 183.492C772.708 196.218 772.511 209.018 771.339 221.873C764.461 297.299 713.103 383.983 671.177 446.193C672.247 436.52 671.946 426.483 671.999 416.75C672.751 372.022 670.422 327.296 665.028 282.888C662.618 262.381 658.309 241.991 656.264 221.489C659.202 222.193 662.251 222.577 665.258 222.839C682.087 224.303 699.957 219.411 712.979 208.438C722.366 200.528 729.523 188.963 730.558 176.563C731.495 165.34 727.693 154.603 720.341 146.112C712.472 137.133 701.39 131.606 689.483 130.723C675.248 129.703 663.73 135.021 653.212 144.155C654.69 141.771 656.222 139.5 658.036 137.354C667.979 125.595 681.769 119.981 696.86 118.719Z" data-index="16" style="opacity: 1;"></path><path fill="#FEFEFE" d="M155.775 253.203C155.844 253.19 155.912 253.173 155.982 253.165C172.707 251.341 189.503 255.916 202.992 265.972C204.276 272.5 206.239 278.998 207.943 285.43C212.271 301.745 217.072 317.93 222.34 333.965C214.079 344.737 205.159 353.233 192.095 357.758C182.434 361.105 170.763 362.34 161.345 357.623C153.978 353.958 148.416 347.458 145.932 339.614C143.846 333.232 144.324 326.697 147.453 320.744C151.755 312.561 160.413 306.474 169.128 303.818C180.146 300.46 189.368 303.726 199.113 308.997C198.609 311.913 197.988 314.698 196.946 317.475C194.249 324.663 189.251 331.215 181.43 333.102C179.109 333.662 176.266 333.614 174.15 334.753C173.043 335.349 172.396 336.475 172.01 337.615C172.288 338.28 172.24 338.552 172.94 338.904C176.221 340.552 182.615 339.578 186.125 338.602C193.783 336.473 200.854 330.556 204.725 323.704C209.161 315.851 211.219 305.341 208.629 296.568C205.847 287.144 197.109 279.738 188.634 275.371C173.525 267.587 156.066 267.553 140.15 272.766C119.488 279.533 101.368 295.588 91.7087 314.997C80.4144 337.692 81.3942 362.318 89.4601 385.963C95.1767 402.721 104.506 417.835 115.457 431.647C150.807 476.232 200.467 503.713 250.61 528.536C265.384 535.9 280.278 543.022 295.286 549.899C312.595 557.832 336.71 567.696 351.282 579.737C358.98 586.195 365.167 594.262 369.406 603.372C375.247 615.697 377.507 630.888 372.779 643.965C368.655 655.373 359.3 661.813 348.756 666.851C355.342 654.058 359.338 643.101 358.034 628.514C356.873 615.525 351.684 603.856 341.861 595.114C327.362 582.209 290.512 567.004 271.597 558.035C225.304 536.084 179.108 513.822 139.523 480.664C102.956 450.034 71.0019 410.891 66.7768 361.545C64.484 334.767 70.9423 308.909 88.564 288.16C105.399 267.998 129.601 255.41 155.775 253.203Z" data-index="17" style="opacity: 1;"></path><path fill="#FEFEFE" d="M696.885 87.7148C714.557 86.9805 733.673 92.362 749.157 100.82C773.678 114.214 789.773 134.818 797.61 161.433C821.762 243.451 771.439 344.82 729.832 413.492C722.323 425.886 714.625 438.287 706.626 450.373C701.6 457.966 695.932 465.294 691.614 473.322C684.276 486.966 681.258 502.358 685.904 517.398C690.829 533.343 701.473 544.809 716.067 552.448C712.802 552.668 709.506 552.87 706.233 552.738C696.217 552.335 687.035 548.473 680.199 541.066C668.77 528.684 666.457 512.023 667.098 495.88C668.042 486.305 670.477 477.188 674.677 468.508C678.385 460.848 683.463 453.991 688.145 446.915C693.281 439.031 698.344 431.098 703.332 423.119C722.544 392.424 740.479 361.13 755.27 328.029C777.453 278.381 799.044 212.618 778.307 159.122C769.936 137.527 754.989 121.041 733.69 111.667C714.63 103.277 693.061 101.677 673.47 109.33C656.515 115.953 644.231 127.929 636.969 144.501C634.118 136.709 631.979 128.505 629.484 120.576C630.255 119.499 631.047 118.431 631.918 117.431C648.296 98.6446 672.637 89.6386 696.885 87.7148Z" data-index="18" style="opacity: 1;"></path><path fill="#FEFEFE" d="M561.204 708.728C564.085 707.762 566.976 706.828 569.877 705.924C590.702 750.39 623.6 799.553 657.451 834.807C634.867 847.442 610.77 854.849 585.281 859.045C572.946 860.753 560.765 862.552 548.278 862.259C550.303 854.513 551.602 846.511 552.946 838.624C560.117 796.2 560.706 752.924 554.695 710.32L561.204 708.728Z" data-index="19"></path><path fill="#AAA9A9" d="M554.695 710.32L561.204 708.728C570.613 745.941 577.521 783.743 581.882 821.878C583.294 834.26 584.781 846.583 585.281 859.045C572.946 860.753 560.765 862.552 548.278 862.259C550.303 854.513 551.602 846.511 552.946 838.624C560.117 796.2 560.706 752.924 554.695 710.32Z" data-index="20"></path><path fill="#FEFEFE" d="M595.158 124.225C600.472 124.16 606.534 123.971 611.717 125.2C613.076 125.522 613.675 125.706 614.363 126.922C614.205 127.606 614.23 127.656 613.864 128.372C611.145 133.693 589.88 144.717 583.891 146.884C581.46 146.3 578.906 145.986 576.419 145.748C556.656 143.862 531.225 148.117 511.669 151.532C438.747 164.265 364.98 185.858 297.624 216.791C280.69 224.567 263.092 232.615 248.593 244.45C243.846 244.7 239.096 244.886 234.343 245.007C228.636 245.073 218.081 245.462 212.962 243.448L212.885 242.771C213.245 242.283 213.381 242.068 213.765 241.644C221.215 233.405 244.657 222.04 255.106 216.877C297.714 195.822 342.655 180.276 387.961 166.214C450.722 146.736 529.816 126.101 595.158 124.225Z" data-index="21"></path><path fill="#AAA9A9" d="M573.614 151.8L573.671 151.829L573.731 152.321C482.041 196.156 364.221 230.916 263.155 243.008L262.827 242.797C262.982 242.547 263.087 242.257 263.293 242.046C265.18 240.111 286.094 229.788 289.647 227.989C304.633 220.4 320.271 214.217 335.881 208.048C406.581 180.104 497.763 154.469 573.614 151.8Z" data-index="22"></path><path fill="#FEFEFE" d="M535.624 926.051L786.121 858.748C787.747 864.784 792.852 877.211 789.285 882.789C788.07 884.69 784.011 885.779 781.916 886.459C759.381 893.778 735.968 898.785 713.071 904.848L584.928 938.851L558.113 945.9C553.656 947.068 548.725 947.924 544.465 949.595C540.908 940.313 537.918 936.47 535.624 926.051Z" data-index="23"></path><path fill="#FEFEFE" d="M690.833 817.144C700.945 816.1 711.631 814.165 721.776 814.533C726.934 817.62 731.777 821.184 736.839 824.423C743.898 828.939 751.204 833.186 757.995 838.096L598.597 881.429C578.55 886.789 558.42 891.775 538.438 897.374C539.109 890.608 543.656 882.034 546.931 876.089C585.963 876.341 652.283 863.006 680.662 834.791C686.005 829.479 688.931 824.483 690.833 817.144Z" data-index="24"></path><path fill="#FEFEFE" d="M535.102 905.041L694.838 861.892L741.999 848.99C749.628 846.902 757.277 844.518 764.991 842.78C770.934 845.805 776.462 849.762 782.029 853.423C699.336 874.814 616.839 896.953 534.546 919.834C534.656 914.901 534.841 909.969 535.102 905.041Z" data-index="25"></path><path fill="#AAA9A9" d="M453.257 941.787C454.038 939.486 454.863 937.201 455.731 934.931C459.26 925.674 463.314 916.647 467.154 907.52C469.898 900.997 472.333 894.092 475.699 887.866C477.052 885.366 478.785 882.7 480.912 880.803C488.899 873.68 501.887 869.392 511.597 865.036C522.252 874.62 533.161 875.156 546.931 876.089C543.656 882.034 539.109 890.608 538.438 897.374C529.68 899.717 472.006 914.55 468.52 917.84C468.293 919.181 468.434 919.479 468.91 920.773C470.131 921.872 471.218 922.067 472.806 921.936C478.015 921.509 483.98 919.024 489.082 917.677C504.471 913.616 519.881 909.712 535.102 905.041C534.841 909.969 534.656 914.901 534.546 919.834C521.401 923.084 508.332 926.788 495.244 930.266C481.23 933.99 467.118 937.522 453.257 941.787Z" data-index="26"></path><path fill="#FEFEFE" d="M682.171 145.098C685.379 144.785 688.497 144.918 691.651 145.564C699.617 147.196 707.624 151.485 712.07 158.49C716 164.682 716.955 172.446 715.277 179.518C713.105 188.67 706.256 196.579 698.373 201.425C684.354 210.042 668.241 209.59 652.791 205.844C651.984 199.801 650.375 193.685 649.128 187.708L647.05 177.826C650.488 180.711 653.644 182.787 658.057 183.981C668.091 186.697 681.761 184.926 690.694 179.671C693.097 178.257 695.516 176.575 696.092 173.653C696.344 172.374 696.118 171.781 695.485 170.691C691.859 169.779 687.087 174.988 683.283 176.329C677.705 178.295 670.952 179.58 665.457 176.715C662.095 174.962 659.621 171.758 658.587 168.123C657.583 164.596 658.657 161.02 660.546 157.992C665.233 150.48 673.865 146.931 682.171 145.098Z" data-index="27"></path><path fill="#AAA9A9" d="M451.789 948.882C479.492 940.556 507.727 933.723 535.624 926.051C537.918 936.47 540.908 940.313 544.465 949.595C531.468 953.8 517.925 956.89 504.721 960.393C489.665 964.387 474.582 968.835 459.37 972.164C453.349 966.885 452.822 956.35 451.789 948.882Z" data-index="28"></path><path fill="#AAA9A9" d="M536.192 711.518C540.22 711.494 544.249 711.443 548.276 711.367C549.566 717.901 550.005 724.824 550.652 731.447C554.18 767.546 551.738 803.069 546.071 838.793C544.941 845.913 544.317 854.704 541.67 861.408C540.328 862.182 538.719 861.723 537.25 861.541C533.47 861.345 528.411 860.548 525.258 858.369C524.809 858.058 523.957 857.268 523.851 856.722C523.538 855.108 528.057 841.894 528.808 839.274C538.544 805.342 543.523 746.034 536.192 711.518Z" data-index="29"></path><path fill="#FEFEFE" d="M583.298 698.433C583.831 698.893 599.272 726.843 602.069 731.292C622.505 763.802 646.319 793.737 676.627 817.576C673.772 822.034 670.403 825.066 666.391 828.489L662.821 831.123C654.211 822.479 646.656 812.861 639.065 803.328C622.229 782.596 607.007 760.603 593.533 737.544C587.047 726.305 581.289 714.561 575.29 703.055C577.894 701.43 580.636 699.966 583.298 698.433Z" data-index="30"></path><path fill="#AAA9A9" d="M519.895 690.092C535.415 689.743 549.992 687.064 564.55 681.665C566.781 687.298 568.917 692.968 570.958 698.673C561.533 702.332 549.663 706.365 539.503 704.395C530.368 702.623 524.862 697.529 519.895 690.092Z" data-index="31"></path><path fill="#FEFEFE" d="M564.55 681.665C572.494 678.101 580.097 673.822 587.267 668.882C588.423 676.261 587.457 682.646 582.911 688.816C579.805 693.032 575.559 696.245 570.958 698.673C568.917 692.968 566.781 687.298 564.55 681.665Z" data-index="32"></path><path fill="#605F5F" d="M844.829 437.743C847.564 440.049 849.557 443.955 851.664 446.888C862.929 462.568 881.031 477.236 900.122 481.844C905.595 483.165 911.02 482.876 916.475 483.779L916.457 484.426C913.899 487.073 910.298 488.911 907.189 490.848C885.219 504.541 874.28 530.707 868.602 554.877L868.228 555.649C866.338 554.398 860.913 544.671 858.885 542.124C842.828 521.961 823.024 512.308 797.634 509.37C802.413 506.023 807.649 503.434 812.386 499.955C833.657 484.336 840.953 462.921 844.829 437.743Z" data-index="33"></path><path fill="#FEFEFE" d="M847.279 447.743C850.211 449.766 854.526 456.905 857.412 460.002C872.028 475.686 885.414 481.312 905.34 487.192C891.473 496.161 879.287 511.742 873.057 526.962C870.378 533.507 868.65 540.325 866.868 547.151C864.892 544.98 863.426 541.491 861.766 538.997C859.249 535.215 855.466 531.695 852.116 528.658C839.319 517.053 825.616 510.497 808.644 507.28C810.078 506.475 811.455 505.603 812.817 504.683C833.02 491.036 842.773 471.139 847.279 447.743Z" data-index="34"></path><path fill="#AAA9A9" d="M892.251 634.215C900.692 633.934 909.213 634.01 917.618 634.913C922.394 635.426 934.856 636.958 937.535 641.477C938.162 642.535 938.421 643.428 937.965 644.621C936.127 649.432 922.664 652.314 918.138 653.266C896.677 657.777 874.495 658.609 852.753 661.144C816.015 665.109 779.783 672.85 744.631 684.243C732.653 688.208 720.935 692.715 709.184 697.298C721.057 686.574 736.735 678.52 751.129 671.658C795.335 650.585 843.107 636.181 892.251 634.215Z" data-index="35" style="opacity: 1;"></path><path fill="#AAA9A9" d="M809.271 585.148C812.197 584.713 817.413 584.206 819.93 586.062C820.852 586.743 821.552 587.459 821.604 588.667C821.689 590.623 820.061 592.728 818.797 594.049C810.509 602.71 790.591 611.034 779.485 616.492C765.982 623.128 752.175 629.581 739.091 637.018C711.572 652.661 686.652 670.373 662.729 691.109L655.665 697.416C657.752 692.875 660.241 688.828 663.125 684.749C688.972 648.19 727.581 619.32 767.574 599.92C780.765 593.521 794.778 587.651 809.271 585.148Z" data-index="36" style="opacity: 1;"></path><path fill="#605F5F" d="M286.829 701.119C289.677 701.885 292.01 707.487 293.738 709.953C303.727 724.212 318.973 732.906 335.916 735.914C333.143 737.519 330.315 739.105 327.659 740.899C316.078 748.721 309.085 759.764 306.04 773.338C305.413 776.133 305.289 778.988 304.725 781.786L304.533 782.708C301.951 778.89 299.719 774.832 296.923 771.163C285.847 756.629 272.907 752.112 255.5 749.659C259.819 746.783 264.274 744.064 268.155 740.598C278.139 731.685 285.826 718.716 286.58 705.108L286.829 701.119Z" data-index="37"></path><path fill="#FEFEFE" d="M289.965 712.228C292.434 714.248 294.052 718.103 296.216 720.564C303.825 729.215 314.092 734.028 324.66 737.976C312.545 746.191 306.601 755.838 301.963 769.599C301.065 769.745 293.701 760.85 292.088 759.395C284.831 752.849 277.119 749.842 267.855 747.208C280.249 736.279 286.046 728.359 289.965 712.228Z" data-index="38"></path><path fill="#605F5F" d="M290.19 47.3074C292.018 48.8165 293.414 51.4203 294.886 53.3133C305.434 66.7682 320.86 75.5244 337.82 77.6846C323.102 85.1938 314.628 96.23 309.379 111.914C308.278 115.202 308.112 119.528 306.689 122.564C306.616 122.719 306.521 122.863 306.438 123.013C303.682 118.588 300.163 114.419 296.5 110.721C285.531 99.6462 273.175 94.8902 257.743 94.8261C277.718 81.0229 284.499 71.2458 290.19 47.3074Z" data-index="39"></path><path fill="#FEFEFE" d="M292.486 57.9982C302.651 68.1479 312.197 74.4326 325.382 79.9621C314.261 88.6179 308.902 99.3324 304.53 112.423C293.258 100.582 286.577 96.1699 271.18 90.6317C282.696 80.5834 287.009 72.0809 292.486 57.9982Z" data-index="40"></path><path fill="#AAA9A9" d="M819.585 703.707C829.87 702.858 840.776 703.317 850.859 705.484C854.058 706.172 857.728 707.18 859.59 710.07C859.69 710.959 859.92 711.451 859.477 712.28C854.625 721.374 800.661 722.068 789.741 722.664C780.914 723.123 772.101 723.816 763.311 724.744C748.472 726.325 734.379 728.856 719.884 732.379C708.354 735.15 696.693 737.977 685.579 742.151C710.413 724.872 751.262 712.471 780.914 707.573C793.663 705.467 806.7 704.512 819.585 703.707Z" data-index="41"></path><path fill="#AAA9A9" d="M215.658 140.201C223.815 139.6 237.467 138.944 244.887 142.933C245.785 143.416 245.992 143.467 246.298 144.467C237.829 147.931 228.237 148.969 219.364 151.111C210.107 153.345 201.131 156.407 192.114 159.444C185.129 162.034 175.969 166.435 168.54 163.33C166.99 162.682 166.32 161.93 165.653 160.363C165.574 158.059 166.244 156.53 167.727 154.757C176.439 144.343 202.808 141.283 215.658 140.201Z" data-index="42"></path><path fill="#AAA9A9" d="M189.555 59.5638C191.447 59.4527 193.341 59.3883 195.236 59.3707C211.496 59.2678 232.176 67.2534 243.725 78.7465C240.928 78.8514 238.22 78.6227 235.438 78.3772C226.622 76.9762 217.784 75.4411 208.913 74.4456C202.82 73.7619 196.479 73.721 190.462 72.5801C187.877 72.0899 184.308 71.1241 182.966 68.5864C182.324 67.3711 182.428 66.0448 182.941 64.8129C184.192 61.8105 186.791 60.8147 189.555 59.5638Z" data-index="43"></path></svg>