<svg xmlns="http://www.w3.org/2000/svg" xmlns:xlink="http://www.w3.org/1999/xlink" width="1024" height="1024" viewBox="0 0 1024 1024"><path fill="#331B1A" d="M576.816 40.7077C585.893 39.4753 598.522 39.632 607.059 43.1253C611.241 44.8367 614.841 47.5545 617.828 50.9212C622.108 55.7467 625.161 61.6605 628.377 67.2155C635.306 79.1812 641.74 90.9365 647.154 103.679C651.216 88.0387 659.056 75.8533 670.91 64.9048C688.783 48.3984 713.549 40.0005 737.754 41.0555C761.721 41.9387 784.334 52.3892 800.537 70.0703C871.905 149.181 801.818 297.105 762.692 376.85C753.323 395.946 730.619 435.143 729.782 454.424C729.602 458.56 730.203 463.352 733.257 466.444C737.973 471.22 753.457 464.285 760.207 464.162C764.96 464.075 770.554 464.947 774.073 468.445C777.477 471.828 778.594 477.219 778.488 481.856C778.379 486.629 776.136 490.881 772.656 494.088C764.855 501.278 749.519 503.912 739.262 503.185C725.282 502.196 715.695 496.096 706.757 485.691C705.005 491.487 703.965 497.655 702.642 503.57C700.375 513.706 697.95 523.754 694.888 533.684C690.094 549.225 684.335 564.687 677.093 579.267C673.463 586.575 668.913 593.47 665.432 600.829L665.24 601.241C668.119 623.278 666.198 635.134 656.16 654.851C661.819 664.817 668.817 674.182 675.363 683.579C700.068 719.319 727.74 752.915 758.085 784.011C764.09 783.964 768.355 784.673 773.648 787.659C790.682 785.645 808.656 784.246 824.941 790.777C829.922 792.774 834.669 795.566 838.232 799.646C844.828 807.2 853.114 831.247 857.562 841.58C859.881 839.382 861.919 836.883 864.178 834.619C865.953 832.841 868.192 831.134 870.798 831.132C872.701 831.999 873.887 833.163 875.147 834.831C879.779 840.967 888.001 857.549 891.736 864.994C887.837 871.904 880.534 877.845 874.78 883.264C836.688 919.134 784.507 949.242 735.491 966.799C683.973 985.252 631.473 995.437 576.6 993.463C570.137 993.23 556.495 993.446 550.92 990.452C547.26 988.486 543.694 972.311 542.333 967.729C541.789 965.712 541.145 963.622 541.121 961.52C541.097 959.382 541.734 957.518 543.317 956.047C546.583 953.013 554.434 954.066 558.649 954.164C553.858 941.907 544.34 916.418 546.402 903.814C549.298 886.112 569.296 871.8 582.795 861.973C582.964 861.267 583.138 860.561 583.319 859.857C585.986 849.49 591.902 843.248 600.937 837.905C602.336 829.525 602.471 820.512 602.779 812.021C604.168 768.288 599.622 724.568 589.267 682.056C567.471 676.212 556.567 665.274 543.385 647.784C534.469 645.322 525.417 643.006 516.703 639.899C489.783 630.303 466.12 615.437 442.134 600.266C442.586 602.096 443.011 603.928 443.296 605.792C445.126 617.784 442.457 628.007 435.191 637.734C427.07 648.605 413.56 656.432 400.127 658.359C393.67 659.286 388.43 658.387 383.223 654.236C379.771 651.484 377.703 647.707 377.364 643.298C375.782 622.741 399.963 628.31 407.502 618.61C409.328 616.261 409.76 613.381 409.228 610.499C407.684 602.142 400.576 595.632 393.754 591.163C371.221 576.403 333.316 566.198 307.161 557.697C281.721 549.577 256.59 540.519 231.82 530.542C203.859 519.151 177.161 504.878 152.158 487.954C116.985 464.201 78.6982 424.895 70.6026 381.998C66.3035 359.218 69.4989 336.37 82.8272 317.033C96.3457 297.421 120.111 282.908 143.433 278.637C162.035 275.23 181.54 278.223 197.252 289.02C192.127 275.485 187.53 260.29 186.206 245.857C185.168 234.544 187.052 226.429 194.53 217.598C211.092 198.039 234.225 182.209 255.429 168.171C336.692 114.37 479.78 48.7293 576.816 40.7077Z" data-index="1"></path><path fill="#4B3F3D" d="M242.438 297.01L242.891 296.922C251.818 295.245 261.035 294.842 270.017 293.321C289.532 290.015 308.97 285.079 327.99 279.647C414.755 254.866 535.487 201.503 603.119 141.275C613.493 132.037 623.677 122.556 631.62 111.071C632.77 109.387 633.889 107.684 634.978 105.961C646.786 129.391 655.461 154.705 663.308 179.689C696.236 284.522 716.056 430.563 681.027 536.434C669.57 571.063 651.734 610.728 617.754 628.345C617.061 628.705 617.321 628.609 616.626 628.733C615.342 629.326 614.053 629.911 612.76 630.486C579.965 645.097 545.679 637.522 513.566 625.2C466.965 607.318 422.161 572.132 386.577 537.709C323.781 476.962 249.007 375.057 213.421 294.909C222.935 297.155 232.705 297.556 242.438 297.01Z" data-index="2"></path><path fill="white" d="M213.421 294.909C222.935 297.155 232.705 297.556 242.438 297.01C258.828 324.612 275.948 351.775 293.781 378.468C349.143 461.166 409.781 533.077 494.635 587.148C520.135 603.398 547.706 618.777 577.199 626.322C586.096 628.564 595.256 629.587 604.428 629.363C608.137 629.243 613.043 628.16 616.626 628.733C615.342 629.326 614.053 629.911 612.76 630.486C579.965 645.097 545.679 637.522 513.566 625.2C466.965 607.318 422.161 572.132 386.577 537.709C323.781 476.962 249.007 375.057 213.421 294.909Z" data-index="3"></path><path fill="#331B1A" d="M486.112 250.706C500.998 248.77 517.642 252.803 530.726 259.831C547.02 268.583 559.905 283.663 565.209 301.45C572.756 326.763 564.231 346.963 552.252 369.01C574.023 368.733 592.1 372.135 608.615 387.42C624.985 402.436 634.621 423.411 635.349 445.612C636.147 471.399 626.261 495.309 608.603 513.945C584.936 538.924 548.357 552.167 514.385 553.015C491.54 553.585 469.791 549.855 449.258 539.47C444.346 536.986 439.037 534.223 435.023 530.402C437.583 521.426 441.854 512.839 445.564 504.29L461.005 468.607C462.919 464.264 464.834 459.865 467.42 455.875C471.735 457.522 475.731 460.235 479.756 462.506C491.778 469.288 504.191 473.528 518.071 470.68C525.767 469.101 533.945 465.35 538.216 458.451C540.271 455.131 541.199 451.193 540.185 447.358C539.266 443.879 536.868 441.199 533.759 439.479C517.168 430.3 491.996 443.649 475.383 448.011C470.661 441.578 444.569 390.198 443.233 383.966C444.554 379.379 459.013 376.573 463.299 374.636C468.218 372.412 472.866 369.537 476.587 365.586C482.583 359.223 485.325 351.817 485.021 343.033C484.904 339.66 484.119 336.477 481.495 334.169C479.689 332.58 477.523 331.646 475.092 331.839C465.449 332.601 454.549 349.351 450.894 357.227C448.396 362.611 446.957 369.146 443.188 373.765C443.055 373.928 442.919 374.087 442.784 374.248C435.295 371.981 427.922 368.453 420.607 365.628C410.237 361.624 384.128 353.137 376.225 347.138C380.318 329.925 391.441 308.587 402.601 295.202C424.211 269.283 452.394 253.798 486.112 250.706Z" data-index="4"></path><path fill="white" d="M490.959 261.218C504.249 261.147 516.836 263.776 528.353 270.649C541.282 278.364 551.38 291.065 555.074 305.759C560.388 326.891 552.856 349.938 540.121 366.978C536.613 371.673 531.189 376.076 528.32 380.849C528.566 381.825 528.471 381.555 528.746 382.338C528.8 382.491 528.857 382.643 528.912 382.796L528.163 383.784C528.494 384.539 528.244 384.497 529.027 384.509C531.903 384.556 543.884 381.575 547.878 381.02C562.891 378.936 578.675 381.022 591.92 388.64C607.123 397.384 617.27 411.823 621.788 428.65C627.302 449.192 623.619 471.464 613.064 489.773C598.204 515.547 569.576 531.313 541.497 538.586C510.656 546.574 475.359 542.879 447.813 526.526C454.624 508.228 462.745 489.925 471.034 472.251L471.654 471.294C474.684 471.463 479.55 475.01 482.357 476.445C495.757 483.294 513.589 483.835 527.729 479.126C536.576 476.18 545.049 470.71 549.136 462.036C552.148 455.644 552.067 448.661 549.558 442.133C547.087 435.704 542.556 431.028 536.19 428.347C518.634 420.956 497.259 428.509 480.682 435.09C472.51 420.188 463.347 404.201 456.934 388.5C459.461 387.769 461.988 387.024 464.439 386.061C476.693 381.247 487.699 371.993 492.996 359.744C496.497 351.649 497.396 341.501 493.937 333.235C491.924 328.426 488.28 324.318 483.306 322.513C477.701 320.478 471.568 321.621 466.32 324.141C451.992 331.023 443.075 346.481 437.977 360.87C422.217 354.331 404.129 348.876 389.046 341.614C394.406 325.536 404.194 309.243 415.553 296.816C434.905 275.329 462.07 262.505 490.959 261.218Z" data-index="5"></path><path fill="white" d="M620.878 161.277C623.873 162.462 624.734 165.057 625.975 167.8C631.574 180.179 635.89 193.268 640.492 206.045C664.587 272.94 683.531 350.489 676.629 421.964C675.452 434.155 673.807 447.358 669.498 458.863C668.484 458.984 667.731 458.734 666.761 458.457C665.049 456.314 667.262 447.653 667.719 444.465C670.502 425.092 671.896 405.848 671.27 386.266C669.46 329.631 657.093 274.702 639.031 221.163C635.465 210.453 631.695 199.812 627.725 189.245C625.045 182.12 619.282 171.385 618.499 164.131C619.049 162.477 619.528 162.312 620.878 161.277Z" data-index="6"></path><path fill="white" d="M578.246 184.823C583.413 188.458 590.369 197.261 594.935 202.168C602.684 202.185 610.53 201.457 618.27 201.013C612.882 206.391 605.834 210.737 601.498 217.068C601.515 220.389 602.365 236.977 600.837 239.061C595.694 233.767 590.52 227.875 584.594 223.467C577.173 223.324 569.683 224.388 562.247 224.615C567.509 218.933 575.322 214.26 579.637 207.972C579.022 200.266 578.559 192.548 578.246 184.823Z" data-index="7"></path><path fill="white" d="M297.439 337.224L299.69 337.657C302.817 339.814 308.525 351.153 311.057 355.055C316.439 363.349 322.036 371.723 327.899 379.687C331.648 384.779 336.226 389.203 339.273 394.793C339.242 396.428 338.718 396.801 337.775 398.098C337.164 398.047 336.673 398.045 336.082 397.793C331.081 395.654 297.61 346.856 296.218 340.79C295.852 339.193 296.643 338.502 297.439 337.224Z" data-index="8"></path><path fill="white" d="M351.688 413.159C351.937 413.232 352.19 413.292 352.435 413.377C355.396 414.4 374.144 438.147 376.247 441.988C376.08 443.418 375.46 443.788 374.514 444.842C373.938 444.745 373.572 444.711 373.003 444.477C368.698 442.706 351.873 420.953 349.809 416.248C350.062 414.695 350.654 414.311 351.688 413.159Z" data-index="9"></path><path fill="white" d="M662.769 485.185C665.737 484.436 668.759 486.195 669.573 489.145C670.387 492.095 668.694 495.155 665.762 496.033C663.808 496.618 661.691 496.1 660.227 494.679C658.764 493.258 658.184 491.156 658.711 489.186C659.239 487.215 660.792 485.685 662.769 485.185Z" data-index="10"></path><path fill="white" d="M155.293 313.694C161.756 313.199 168.129 313.785 174.295 315.86C182.705 318.69 190.934 324.435 194.772 332.664C196.954 337.342 197.374 342.596 195.467 347.438C192.97 353.781 186.159 355.778 180.459 358.277C175.998 360.233 171.755 363.426 170.048 368.163C168.524 372.389 169.415 377.852 171.502 381.746C173.758 385.954 177.939 388.441 182.46 389.591C189.559 391.397 198.659 388.039 204.657 384.218C217.867 375.802 224.181 364.137 227.596 349.211C234.968 363.399 244.132 377.052 252.824 390.475C285.688 441.197 322.989 488.902 364.288 533.029C367.588 536.345 370.776 539.698 373.875 543.205C356.004 535.89 337.185 530.985 318.78 525.221C264.773 508.307 209.769 489.764 164.508 454.66C139.031 434.901 110.764 404.931 106.72 371.704C105.077 358.2 107.674 345.316 116.179 334.492C125.871 322.158 139.927 315.493 155.293 313.694Z" data-index="11"></path><path fill="white" d="M728.353 78.2038C736.333 76.9387 745.8 78.8278 753.242 81.7444C768.898 87.88 779.77 99.9751 786.295 115.234C793.893 133.003 795.525 153.679 794.619 172.835C791.62 236.293 762.553 297.113 735.519 353.501C727.227 370.798 718.21 388.097 711.005 405.872C710.756 394.036 710.373 382.204 709.856 370.377C706.942 318.104 699.049 266.228 686.283 215.454C681.675 197.647 675.946 180.069 670.452 162.516C680.565 168.105 691.407 172.164 703.144 171.413C711.124 170.902 721.882 168.02 727.225 161.692C730.119 158.266 731.931 153.788 731.451 149.273C731.021 145.221 729.337 140.361 725.89 137.896C717.907 132.186 709.76 138.194 701.731 139.43C697.031 140.16 692.235 138.96 688.434 136.102C684.23 132.938 681.698 128.109 681.061 122.928C679.921 113.669 683.56 105.255 689.339 98.2238C698.851 86.6494 713.589 79.6432 728.353 78.2038Z" data-index="12"></path><path fill="#4B3F3D" d="M590.802 80.2136C592.029 80.1405 593.258 80.1553 594.488 80.1494L594.721 80.6836C593.337 82.5834 591.843 84.3422 590.253 86.0714C533.638 147.657 398.001 210.089 316.938 233.327C288.132 241.584 258.804 247.643 228.816 248.939L223.95 248.491C224.589 247.549 225.264 246.63 226.022 245.779C233.132 237.789 243.801 230.348 252.25 223.73C318.828 171.576 408.601 131.15 488.422 104.239C520.964 93.2675 556.381 82.5135 590.802 80.2136Z" data-index="13"></path><path fill="#4B3F3D" d="M647.743 663.988C668.316 694.902 689.599 725.356 713.645 753.705C725.983 768.251 739.81 781.509 752.132 795.99C743.783 814.968 714.283 829.839 695.532 837.112C678.499 843.719 661.52 847.882 643.371 849.912C632.621 850.579 622.573 850.646 612.483 846.366C612.541 840.418 613.627 834.207 614.159 828.258C614.792 820.366 615.179 812.456 615.316 804.54C615.919 763.935 611.663 723.403 602.638 683.809C608.513 683.539 614.015 682.861 619.759 681.553C630.439 676.989 639.604 672.524 647.743 663.988Z" data-index="14"></path><path fill="white" d="M619.759 681.553C622.733 693.055 626.331 704.386 629.345 715.877C636.645 743.709 643.462 775.759 644.054 804.514C650.182 803.205 656.15 801.664 662.091 799.638C665.788 798.377 677.823 792.519 680.647 793.037C681.146 793.571 681.397 793.614 681.418 794.409C681.46 796.035 680.541 797.386 679.402 798.462C675.031 802.59 651.209 808.743 644.498 810.372L644.535 825.193C654.271 823.412 664.114 822.016 673.648 819.284C679.583 817.583 697.595 809.794 702.146 810.385C702.867 811.394 702.851 811.502 702.857 812.751C701.385 815.829 697.44 817.031 694.417 818.105C678.036 823.923 661.856 828.574 644.539 830.736C644.325 837.138 643.936 843.532 643.371 849.912C632.621 850.579 622.573 850.646 612.483 846.366C612.541 840.418 613.627 834.207 614.159 828.258C614.792 820.366 615.179 812.456 615.316 804.54C615.919 763.935 611.663 723.403 602.638 683.809C608.513 683.539 614.015 682.861 619.759 681.553Z" data-index="15"></path><path fill="white" d="M615.833 70.8524C621.261 76.6513 625.338 86.424 628.772 93.6209C596.423 144.519 524.35 185.289 471.342 211.408C446.324 223.434 420.873 234.537 395.039 244.694C354.41 260.292 251.612 295.603 211.227 281.87L207.151 279.836C204.702 271.786 202.049 263.788 199.523 255.761C232.336 267.921 283.703 254.545 316.324 245.553C397.102 223.286 532.438 160.795 590.981 102.926C600.74 93.2807 609.049 82.8083 615.833 70.8524Z" data-index="16"></path><path fill="#4B3F3D" d="M833.898 816.915C836.872 820.575 845.897 845.235 848.248 851.274C838.905 859.869 829.395 868.311 819.201 875.894C749.282 927.911 659.98 954.289 573.375 955.583L572.76 955.525C570.273 953.743 563.053 929.602 561.724 925.217C598.41 934.038 654.29 921.486 689.841 910.497C734.04 896.834 811.299 859.651 833.898 816.915Z" data-index="17"></path><path fill="white" d="M580.371 52.7161C589.063 52.1666 597.822 52.1668 606.067 55.2564C606.059 60.6413 605.408 64.1246 602.7 68.7542C599.655 68.4706 596.558 68.4037 593.502 68.3883C568.518 68.2621 539.085 76.6761 515.21 83.561C421.129 110.691 286.823 169.277 217.226 238.566L209.371 246.684C207.008 245.743 204.641 244.757 202.546 243.288C200.418 241.796 198.789 239.675 198.479 237.044C197.985 232.846 200.964 228.693 203.525 225.651C220.345 205.679 249.544 186.211 271.53 172.292C352.94 120.75 484.692 60.433 580.371 52.7161Z" data-index="18"></path><path fill="white" d="M601.574 852.858C605.138 855.727 608.419 857.898 612.765 859.347C641.52 868.933 689.608 855.23 716.369 841.911C735.888 832.195 757.363 818.245 764.623 796.744C766.873 798.5 768.56 800.093 770.106 802.526C773.728 809.004 776.704 815.424 781.65 821.042C769.579 834.845 756.152 847.074 740.236 856.344C738.374 857.429 735.622 859.487 733.54 859.74C706.041 875.033 671.538 886.136 639.831 886.148C627.844 886.153 609.465 884.678 600.586 875.428C597.431 872.14 595.458 867.317 595.745 862.725C596.017 858.379 598.485 855.59 601.574 852.858Z" data-index="20"></path><path fill="#4B3F3D" d="M770.106 802.526C773.728 809.004 776.704 815.424 781.65 821.042C769.579 834.845 756.152 847.074 740.236 856.344C738.374 857.429 735.622 859.487 733.54 859.74C727.603 859.505 714.767 863.541 708.528 865.197C681.517 872.362 644.902 881.926 617.915 871.622C625.64 871.308 633.199 872.136 641 871.486C666.519 869.358 694.293 859.64 717.234 848.533C737.511 838.716 762.257 825.105 770.106 802.526Z" data-index="21"></path><path fill="white" d="M783.277 798.742C784.018 798.704 784.76 798.676 785.502 798.657C793.511 798.408 819.542 798.305 824.312 804.122C825.095 805.077 825.343 805.553 825.117 806.762C824.587 809.609 822.112 812.908 820.49 815.269C808.786 832.311 791.539 846.249 774.385 857.561C728.681 887.699 674.453 906.013 620.436 913.525C602.374 916.038 584.651 917.9 566.588 914.178C564.098 913.261 560.419 912.102 558.894 909.737C557.802 908.042 557.677 906.244 558.13 904.322C560.605 893.84 576.726 880.885 585.56 875.521C591.08 884.818 598.785 890.522 608.965 894.019C642.976 905.702 695.356 892.529 727.194 877.112C748.824 866.638 786.36 843.864 793.986 820.141C794.805 817.597 795.102 814.815 793.775 812.383C792.117 809.345 789.143 808.619 786.09 807.636C784.836 804.946 783.695 802.352 782.814 799.511L783.277 798.742Z" data-index="22"></path><path fill="#4B3F3D" d="M127.653 437.561C132.201 438.55 147.05 455.488 152.422 459.901C166.824 471.732 183.471 482.219 199.812 491.142C223.937 504.316 249.95 514.381 275.942 523.196C294.257 529.314 312.657 535.177 331.136 540.783C350.79 546.842 371.203 552.748 389.561 562.165C400.9 567.981 419.093 581.192 426.015 591.84C431.25 599.895 433.796 609.371 431.71 618.878C429.628 628.366 423.424 635.685 415.346 640.795C409.741 644.341 400.413 649.074 393.629 647.733C391.736 647.359 390.427 646.233 389.435 644.635C388.827 643.655 388.697 642.939 388.617 641.807C389.168 639.934 390.026 638.889 391.763 637.971C394.504 636.523 398.028 636.152 401.041 635.481C409.904 633.508 416.643 628.43 419.763 619.635C422.047 613.193 421.156 606.476 418.082 600.467C414.232 592.94 407.807 586.995 400.878 582.315C382.036 569.591 358.668 562.444 337.236 555.428C318.82 549.564 300.454 543.542 282.141 537.364C256.831 528.574 231.303 519.014 207.293 507.101C204.187 505.56 190.866 499.449 189.301 497.377C188.421 495.132 166.405 477.614 163.222 474.808C150.551 463.637 137.787 451.101 127.653 437.561Z" data-index="23"></path><path fill="#4B3F3D" d="M806.724 139.814C810.371 156.237 813.094 172.637 813.429 189.506C813.573 196.809 812.675 204.103 813.102 211.399C813.614 215.188 808.85 230.322 807.583 235.005C794.888 281.95 774.55 325.786 752.992 369.192L735.443 404.621C730.859 413.936 726.083 423.196 722.496 432.956C719.221 441.868 716.753 451.726 718.277 461.266C719.282 467.559 722.116 474.006 727.511 477.709C736.611 483.954 747.172 478.346 756.642 476.662C759.109 476.223 761.94 475.976 763.973 477.739C764.943 478.58 765.608 479.69 765.496 481.011C765.314 483.167 763.303 484.991 761.661 486.168C754.895 491.014 744.306 492.482 736.249 490.945C727.522 489.281 719.571 483.814 714.696 476.41C708.813 467.474 709.246 457.513 710.018 447.276C710.336 443.075 710.616 438.806 711.699 434.718C714.605 423.753 720.661 412.41 725.517 402.159C732.415 387.321 739.499 372.57 746.765 357.909C766.003 318.815 784.342 277.876 796.13 235.852C801.938 215.148 806.269 193.165 806.777 171.616C806.998 162.256 804.987 148.297 806.724 139.814Z" data-index="24"></path><path fill="white" d="M146.762 290.971C163.6 290.982 180.636 296.068 192.836 308.255C194.838 310.255 196.641 312.312 197.787 314.931C183.147 303.978 167.514 299.684 149.244 302.396C131.817 305.036 116.142 314.46 105.638 328.614C95.5885 342.331 92.5524 358.908 95.1996 375.568C98.3376 395.317 109.166 414.689 121.493 430.242C123.316 432.543 125.461 435.659 127.653 437.561C137.787 451.101 150.551 463.637 163.222 474.808C166.405 477.614 188.421 495.132 189.301 497.377C175.639 490.315 162.261 480.987 149.967 471.739C118.431 448.014 86.9191 414.723 81.3716 374.097C78.8231 355.433 82.6839 336.588 94.3103 321.531C106.819 305.331 126.428 293.505 146.762 290.971Z" data-index="25"></path><path fill="white" d="M662.558 95.827C672.935 76.2009 689.27 63.6097 710.356 57.0286C730.404 50.6834 752.159 52.6476 770.746 62.481C792.586 74.1896 806.167 94.8516 813.047 118.198C820.451 143.32 819.292 171.983 815.455 197.638C814.772 202.203 814.247 206.926 813.102 211.399C812.675 204.103 813.573 196.809 813.429 189.506C813.094 172.637 810.371 156.237 806.724 139.814C803.522 127.555 800.52 115.584 794.628 104.242C785.774 87.1972 771.579 74.256 753.052 68.5294C729.067 61.1158 709.737 68.5583 688.646 79.7497C682.307 82.7597 676.688 86.5736 670.891 90.4922C668.254 92.2743 665.48 94.603 662.558 95.827Z" data-index="26"></path><path fill="white" d="M653.208 615.338L653.779 615.93C655.682 625.853 650.198 639.57 644.85 647.793C637.421 659.315 625.669 667.363 612.241 670.126C597.88 673.061 584.226 668.394 572.302 660.488C568.364 657.546 564.676 654.89 561.891 650.774C567.38 651.398 572.906 651.638 578.428 651.494C608.202 650.499 633.133 636.648 653.208 615.338Z" data-index="27"></path><path fill="#4B3F3D" d="M662.558 95.827C665.48 94.603 668.254 92.2743 670.891 90.4922C676.688 86.5736 682.307 82.7597 688.646 79.7497C686.916 84.2387 682.107 87.8091 679.156 91.5686C669.826 103.457 665.859 120.049 672.094 134.211C675.144 141.14 680.736 146.953 687.878 149.655C693.159 151.652 699.578 151.919 705.061 150.59C709.252 149.575 715.701 144.909 719.686 147.791C720.343 149.275 720.452 151.089 719.754 152.608C718.073 156.267 711.506 158.197 707.837 159.042C697.409 161.445 686.055 158.637 677.146 152.962C667.683 146.935 660.666 136.766 658.255 125.805C656.038 115.73 658.788 106.89 661.737 97.3457C662.077 96.2438 661.848 96.6845 662.558 95.827Z" data-index="28"></path><path fill="#4B3F3D" d="M146.762 290.971C157.581 286.599 172.159 289.486 182.587 293.972C196.112 299.79 207.3 310.21 212.775 324.005C217.03 334.727 217.591 347.815 212.925 358.515C209.058 367.381 201.17 374.329 192.203 377.795C190.234 378.556 186.438 379.913 184.351 379.289C182.919 378.86 180.655 376.028 180.13 374.623C179.747 373.598 179.798 372.604 180.359 371.652C182.276 368.401 188.234 367.995 191.431 366.557C203.144 361.288 209.055 348.878 207.606 336.476C206.63 328.12 202.617 321.605 197.787 314.931C196.641 312.312 194.838 310.255 192.836 308.255C180.636 296.068 163.6 290.982 146.762 290.971Z" data-index="29"></path><path fill="#331B1A" d="M239.991 660.87C240.925 660.907 241.75 661.087 242.658 661.304C245.938 664.188 250.487 686.768 252.266 692.846C252.647 694.146 253.169 696.037 253.983 697.117C256.676 700.689 278.853 705.301 284.646 708.722C286.058 709.556 286.706 710.242 287.105 711.824C286.347 713.03 285.766 713.465 284.431 714.006C280.5 715.601 275.836 716.202 271.694 717.166C265.422 718.67 259.199 720.375 253.036 722.277C248.163 732.038 244.696 742.728 240.55 752.832C239.429 753.804 238.867 754.08 237.445 754.155C237.065 753.875 236.597 753.685 236.305 753.314C233.918 750.288 228.856 725.263 227.283 719.531C221.719 717.096 196.911 709.42 195.058 706.219C194.678 705.563 194.987 705.257 195.199 704.6C199.555 700.957 221.545 697.465 228.395 695.945C230.084 689.822 232.268 683.768 234.221 677.719C236.027 672.122 237.606 666.245 239.991 660.87Z" data-index="30"></path><path fill="white" d="M241.165 672.836C244.334 676.032 245.849 693.357 248.549 698.684C251.562 704.63 270.055 708.527 276.723 710.767C267.874 713.767 256.492 714.585 248.6 719.54C245.023 726.904 242.26 734.75 239.015 742.281L238.654 742.926C237.424 742.126 232.961 720.468 231.745 716.949C225.134 712.284 212.896 708.532 204.977 706.41C212.113 704.249 223.597 703.408 229.75 700.371C231.21 699.65 232.344 698.529 233.124 697.103C235.99 691.867 239.152 679.121 241.165 672.836Z" data-index="31"></path><path fill="#331B1A" d="M790.914 515.658C791.839 516.096 792.55 516.465 793.171 517.327C799.058 525.501 803.855 539.674 809.125 549.082C815.262 549.3 841.07 548.916 844.969 551.942C845.571 552.41 845.425 552.716 845.5 553.406C842.829 558.075 820.78 569.818 814.858 573.374C813.209 584.262 813.844 596.076 811.055 606.671C810.181 606.647 809.422 606.534 808.563 606.386C804.404 603.181 794.981 583.934 791.921 578.164C786.333 577.394 759.72 575.018 757.21 572.726C756.657 572.221 756.845 571.831 756.837 571.147C759.786 566.816 780.447 557.331 786.055 554.509C787.333 545.85 787.157 523.953 789.416 517.782C789.721 516.95 790.336 516.307 790.914 515.658Z" data-index="32"></path><path fill="white" d="M793.106 528.879C797.045 532.529 801.286 548.518 805.077 552.07C808.561 555.334 829.194 555.2 834.879 555.508C827.14 561.207 818.221 565.9 809.991 570.899C808.76 578.545 808.44 586.563 807.72 594.289C804.386 592.701 797.452 577.96 795.299 573.845C785.65 572.028 775.554 570.874 765.756 570.287C773.779 566.319 784.554 562.694 791.108 556.593C791.615 547.444 791.823 537.947 793.106 528.879Z" data-index="33"></path><path fill="#331B1A" d="M170.085 62.8889C170.619 62.9453 171.157 62.9909 171.685 63.0903C172.518 63.2469 172.86 63.4394 173.421 64.0965C177.832 69.2664 183.604 87.0163 189.014 94.9686C197.291 97.5799 217.086 96.9038 222.293 100.292C223.027 100.769 222.867 101.171 223 101.965C220.865 108.291 201.725 114.032 195.519 118.838C189.847 123.229 191.969 138.703 191.076 145.511C190.712 148.288 190.464 149.96 188.172 151.728C182.627 149.079 173.914 129.973 168.538 123.705C160.119 122.721 151.623 122.624 143.178 121.941C140.61 121.733 137.322 121.285 135.583 119.209C136.195 114.203 159.29 105.572 164.227 101.121C168.894 96.9127 167.065 77.2837 167.546 70.6156C167.754 67.7489 167.786 64.887 170.085 62.8889Z" data-index="34"></path><path fill="white" d="M172.674 74.4163C175.509 77.3974 179.635 90.7508 183.699 95.9498C189.397 103.239 204.57 102.774 213.287 103.737C206.628 106.759 197.458 109.949 192.019 114.796C185.505 120.601 186.636 132.558 186.316 140.569L186.203 141.315C183.881 139.839 176.496 124.02 170.576 118.999C162.971 117.177 154.827 117.191 147.047 116.796C153.732 113.372 162.753 110.021 168.077 104.724C174.475 98.3566 172.587 82.9871 172.674 74.4163Z" data-index="35"></path><path fill="#331B1A" d="M120.931 165.172C127.705 167.503 128.875 183.367 135.605 188.798C141.607 193.643 153.493 188.895 159.5 192.434C160.264 192.885 160.02 192.797 160.285 193.789C156.493 199.997 144.591 201.198 140.529 208.128C136.11 215.668 139.866 226.857 135.864 232.756C135.644 232.76 135.423 232.776 135.203 232.768C133.736 232.711 133.242 232.688 132.206 231.59C128.567 227.733 126.878 217.385 120.674 210.973C118.055 210.384 115.467 209.876 112.785 209.677C108.428 209.354 100.983 210.718 97.2054 208.437C96.544 208.038 96.644 207.68 96.4749 206.991C99.2638 201.51 112.174 199.288 116.397 192.612C121.172 185.063 115.756 171.967 120.931 165.172Z" data-index="36"></path><path fill="white" d="M123.624 179.372C126.398 182.151 127.633 187.397 129.931 190.624C132.994 194.927 142.781 195.832 147.75 196.617C145.052 198.057 142.056 199.498 139.663 201.412C133.594 206.265 133.607 213.626 132.873 220.706C129.688 217.911 128.931 211.971 126.047 208.874C122.254 204.802 114.044 204.775 108.872 204.49C111.916 202.716 115.168 201.037 117.724 198.578C123.322 193.19 123.464 186.638 123.624 179.372Z" data-index="37"></path><path fill="#331B1A" d="M191.922 636.381C193.194 636.384 193.754 636.508 194.842 637.169C195.592 638.362 195.642 638.512 195.619 639.918C195.103 640.959 194.62 641.544 193.689 642.252C188.624 646.105 182.824 649.311 177.53 652.879C168.092 659.322 158.898 666.117 149.968 673.248C139.482 681.775 129.385 690.768 119.706 700.201C114.742 705.109 110.317 710.979 104.958 715.39C103.582 715.122 102.847 714.786 101.708 713.971C101.187 712.844 100.985 712.572 101.368 711.312C102.349 708.081 108.461 703.041 110.944 700.525C135.136 675.829 162.343 654.278 191.922 636.381Z" data-index="38"></path><path fill="#331B1A" d="M905.638 432.417C906.067 432.538 906.617 432.669 906.997 432.894C908.257 433.64 908.42 434.175 908.817 435.475C908.652 436.448 908.472 437.079 907.812 437.844C905.285 440.769 901.961 443.394 899.105 446.017C893.588 451.041 888.114 456.111 882.683 461.227L858.614 483.95C853.472 488.839 848.424 494.136 842.854 498.526C842.347 498.354 841.528 498.142 841.064 497.832C839.888 497.044 839.778 496.709 839.463 495.42C839.951 493.825 841.122 492.746 842.256 491.582C857.013 476.44 873.033 462.135 888.617 447.834C893.978 442.915 899.543 436.262 905.638 432.417Z" data-index="39"></path><path fill="#331B1A" d="M750.82 634.567C753.052 634.617 755.119 634.86 757.153 635.852C760.034 637.27 762.225 639.786 763.234 642.835C764.452 646.451 764.108 650.41 762.285 653.761C760.121 657.675 757.194 659.239 753.037 660.461C750.683 660.452 748.313 659.992 746.222 658.877C743.461 657.404 741.458 654.832 740.544 651.856C739.441 648.242 739.892 644.333 741.787 641.066C743.918 637.423 746.868 635.707 750.82 634.567Z" data-index="40"></path><path fill="#331B1A" d="M935.139 582.209C935.502 582.174 935.884 582.119 936.248 582.186C937.762 582.463 937.977 582.948 938.832 584.119C939.014 585.526 938.96 585.483 938.149 586.66C936.634 587.494 935.266 588.014 933.577 588.401C927.636 589.76 921.225 590.081 915.191 591.068C897.318 593.991 879.33 597.112 861.355 599.302C860.966 599.36 860.358 599.478 859.976 599.409C858.676 599.175 858.281 598.308 857.589 597.326C857.456 596.012 857.392 595.858 858.028 594.72C861.012 592.958 927.286 583.024 935.139 582.209Z" data-index="41"></path><path fill="#331B1A" d="M303.26 626.245C309.606 625.191 315.605 629.48 316.661 635.826C317.717 642.172 313.429 648.173 307.083 649.23C300.736 650.288 294.732 645.998 293.676 639.65C292.62 633.302 296.911 627.3 303.26 626.245Z" data-index="42"></path><path fill="#331B1A" d="M926.978 501.914C928.249 501.998 929.112 501.914 930.062 502.927C931.017 503.947 930.948 504.548 930.85 505.812C927.899 509.825 881.358 530.178 872.487 534.527C870.706 534.403 870.415 534.324 868.944 533.317C868.326 532.107 868.33 532.134 868.663 530.817C872.076 526.883 919.387 505.468 926.978 501.914Z" data-index="43"></path><path fill="#331B1A" d="M174.44 725.466C175.029 725.646 175.418 725.739 175.988 726.034C177.086 726.601 177.521 727.423 177.953 728.507C177.571 731.89 166.777 740.947 163.801 743.998C158.168 749.761 152.951 755.916 148.191 762.418C145.067 766.703 142.369 772.23 138.461 775.791C137.799 775.564 136.876 775.332 136.306 774.938C135.173 774.154 135.155 773.692 134.915 772.438C138.041 761.677 165.082 733.426 174.44 725.466Z" data-index="44"></path></svg>