<svg xmlns="http://www.w3.org/2000/svg" xmlns:xlink="http://www.w3.org/1999/xlink" width="1024" height="1024" viewBox="0 0 1024 1024"><path fill="#1B2943" d="M722.997 23.2235C761.23 21.6611 799.34 28.5094 834.638 43.2851C883.327 63.5481 941.807 107.296 962.273 157.343C968.51 172.596 970.697 188.639 967.646 204.915C963.836 225.24 953.218 242.706 937.319 255.921C928.005 263.663 917.872 270.491 908.977 278.73C898.361 288.563 890.183 299.947 884.586 313.309C875.787 334.31 874.242 359.007 883.053 380.273C894.627 408.206 924.085 430.939 954.257 433.998C961.261 434.708 970.422 432.1 976.848 434.968C979.107 435.976 980.729 437.615 981.594 439.944C982.996 443.716 982.346 447.705 980.669 451.271C973.068 467.43 947.3 480.138 931.094 485.688C935.41 491.648 940.685 497.194 946.071 502.192C950.748 506.534 973.526 523.028 974.586 526.757C975.403 529.635 975.159 532.975 973.56 535.544C970.271 540.825 962.11 542.976 956.37 544.209C924.788 550.991 893.034 541.908 866.43 524.514C821.044 494.839 790.045 443.772 779.251 391.104C771.489 353.235 774.813 311.713 795.877 278.495C802.447 268.133 810.039 259.295 820.042 252.091C826.711 247.287 834.11 243.555 841.228 239.468C854.104 232.074 866.279 222.297 874.459 209.76C892.389 182.279 893.866 142.6 887.223 111.274C865.191 101.477 840.258 96.8202 816.248 96.0176C755.795 93.9969 698.178 120.538 653.259 159.656C627.971 181.679 605.49 206.837 580.954 229.715C582.303 230.246 583.626 230.84 584.918 231.496C597.698 237.881 602.615 254.081 606.751 266.66C616.937 260.967 630.62 254.068 642.52 253.63C649.533 253.312 656.365 255.908 661.397 260.802C672.459 271.557 671.933 290.994 671.929 305.251C683.099 302.762 698.084 300.754 709.079 304.41C715.738 306.624 721.615 310.879 724.68 317.35C731.164 331.041 724.196 348.015 719.578 361.161C730.279 362.662 746.302 366.723 754.673 373.543C759.753 377.681 762.755 383.152 763.446 389.682C765.011 404.471 753.391 417.849 744.805 428.664C753.976 433.154 764.779 438.883 771.728 446.461C776.433 451.592 779.311 457.905 778.841 464.988C777.812 480.475 758.95 492.309 748.355 501.75C756.13 510.014 765.447 518.964 769.628 529.717C771.919 535.61 771.978 542.248 769.289 548.033C762.569 562.49 740.749 567.101 726.961 572.017C731.357 583.516 738.935 594.076 739.122 606.853C739.221 613.681 736.987 620.044 732.051 624.882C720.371 636.331 700.49 634.007 685.441 633.993C687.695 644.724 690.529 657.849 688.033 668.666C686.446 675.547 682.358 681.645 676.229 685.26C662.37 693.435 643.748 684.851 629.689 681.09C627.526 695.065 625.834 714.155 613.769 723.535C608.525 727.611 603.096 728.116 596.751 727.435C595.735 741.116 593.587 754.885 591.915 768.506L584.647 831.184C579.124 879.937 574.837 929 568.382 977.628C567.989 980.59 567.671 985.06 566.158 987.681C564.416 990.699 561.201 993.257 557.74 993.913C555.144 994.406 552.839 994.029 550.494 992.858C542.84 989.036 533.579 981.81 526.262 976.898C506.093 963.254 486.015 949.474 466.032 935.56L461.611 932.616C437.172 945.551 413.248 959.56 389.278 973.344C378.777 979.383 368.306 986.171 357.469 991.559C355.052 992.761 352.397 994.117 349.633 993.928C346.304 993.7 342.955 991.908 340.795 989.388C338.285 986.46 338.233 983.571 338.528 979.904C339.105 972.725 340.836 965.463 342.109 958.374C344.005 947.762 345.761 937.125 347.376 926.467C353.095 889.698 357.847 852.785 361.626 815.766C329.764 834.833 297.77 853.204 264.503 869.735C242.714 880.612 220.739 891.111 198.587 901.227C191.039 904.68 183.385 909.375 175.475 911.771C172.518 912.666 169.495 912.755 166.573 911.684C162.949 910.354 160.292 907.556 158.778 904.042C157.472 901.013 158.34 896.929 159.095 893.809C161.476 883.974 165.836 873.978 169.213 864.395L190.992 803.794C171.939 793.483 152.729 783.463 133.369 773.74C123.626 768.775 113.207 764.158 103.865 758.52C101.54 757.117 98.285 755.067 96.9399 752.7C95.6262 750.389 95.5864 746.639 96.2877 744.125C97.7764 738.789 115.943 726.45 120.927 722.622C159.561 692.581 199.617 664.414 240.955 638.22C257.779 627.642 275.049 617.858 292.213 607.852C283.333 604.726 273.575 603.523 266.03 597.385C260.555 592.93 257.531 586.962 256.891 579.941C255.503 564.729 268.069 549.43 277.361 538.451C266.978 533.326 255.492 527.353 248.487 517.784C244.309 512.077 242.359 505.253 243.569 498.207C246.249 482.607 263.919 472.159 275.829 463.805C266.495 455.051 255.568 445.446 251.568 432.871C249.68 426.936 250.061 420.802 253.039 415.294C260.385 401.71 279.958 395.95 293.694 391.626C289.049 380.048 283.64 367.518 283.526 354.837C283.467 348.263 285.631 342.005 290.413 337.378C301.402 326.747 321.87 328.276 335.948 328.459C334.002 316.779 333.388 302.431 337.202 291.057C339.43 284.415 343.756 279.041 350.141 276.016C363.54 269.667 380.93 275.998 393.988 280.498C395.303 272.456 396.988 264.769 399.441 256.989C381.996 252.841 365.057 248.332 348.807 240.582C301.649 255.147 253.142 295.828 220.942 332.248C203.472 352.221 187.648 373.575 173.624 396.101C167.852 405.321 161.881 414.634 156.973 424.349C152.901 432.408 149.721 442.059 144.733 449.51C143.213 451.78 140.837 454.266 137.94 454.53C136.245 454.684 134.747 454.181 133.419 453.138C124.553 446.176 120.386 400.258 118.802 388.562C105.095 393.313 58.527 408.727 46.3093 404.475C44.37 403.801 42.8128 402.578 41.9642 400.682C41.0535 398.647 40.9264 396.068 41.7525 393.983C43.3288 390.006 50.9562 384.144 54.1278 380.772C60.7483 373.733 66.6607 366.027 72.1939 358.114C85.2433 339.453 95.9967 319.215 108.068 299.927C135.462 256.154 171.213 216.453 218.373 193.801C271.925 168.077 334.782 166.802 391.884 180.191C409.411 184.3 426.172 190.06 443.124 196.024C466.833 185.135 488.306 165.794 506.846 147.805C526.605 128.633 544.818 107.938 565.096 89.3012C609.861 48.1585 662.144 25.483 722.997 23.2235Z" data-index="1"></path><path fill="#1B2943" d="M301.504 499.928C300.998 494.035 301.057 488.225 301.45 482.328C305.373 423.43 329.063 367.568 373.861 328.382C417.203 290.302 474.069 271.307 531.597 275.694C571.029 278.526 608.904 292.237 641.013 315.302C647.483 319.975 654.579 325.168 659.828 331.191C695.122 364.801 713.7 405.619 719.26 453.829C724.866 508.441 708.565 563.045 673.939 605.647C637.843 650.877 583.601 678.255 526.514 684.559C507.38 686.672 487.072 686.855 468.188 682.551C459.356 681.832 449.946 679.13 441.504 676.456C409.724 666.39 377.605 649.596 354.014 625.648C328.132 599.373 312.276 566.271 305.024 530.285C303.043 520.451 301.428 509.974 301.504 499.928Z" data-index="2"></path><path fill="#98D5D5" d="M301.504 499.928C300.998 494.035 301.057 488.225 301.45 482.328C305.373 423.43 329.063 367.568 373.861 328.382C417.203 290.302 474.069 271.307 531.597 275.694C571.029 278.526 608.904 292.237 641.013 315.302C647.483 319.975 654.579 325.168 659.828 331.191C695.122 364.801 713.7 405.619 719.26 453.829C715.985 457.922 710.969 472.597 708.48 478.222C705.779 484.325 687.441 519.726 684.117 522.229C683.729 522.521 683.211 522.579 682.758 522.754C694.605 479.201 688.985 432.743 667.092 393.272C643.729 351.901 601.914 321.699 556.383 309.189C510.561 296.667 461.63 303.07 420.574 326.961C378.214 351.174 349.555 390.304 336.906 437.171C324.897 481.666 330.888 531.878 353.907 571.934C376.624 611.464 414.413 639.105 458.181 650.88C478.678 656.394 499.526 657.177 520.616 656.364C520.451 656.783 520.414 657.278 520.12 657.619C517.623 660.521 486.995 675.143 481.462 677.546C477.095 679.442 472.593 680.814 468.188 682.551C459.356 681.832 449.946 679.13 441.504 676.456C409.724 666.39 377.605 649.596 354.014 625.648C328.132 599.373 312.276 566.271 305.024 530.285C303.043 520.451 301.428 509.974 301.504 499.928Z" data-index="3"></path><path fill="white" d="M301.504 499.928C300.998 494.035 301.057 488.225 301.45 482.328C305.373 423.43 329.063 367.568 373.861 328.382C417.203 290.302 474.069 271.307 531.597 275.694C571.029 278.526 608.904 292.237 641.013 315.302C647.483 319.975 654.579 325.168 659.828 331.191C659.61 331.162 659.391 331.137 659.174 331.102C655.378 330.488 650.608 326.817 646.919 325.223C635.256 320.076 623.417 315.339 611.423 311.02C538.697 285.172 472.285 282.301 405.917 326.433C365.631 353.185 336.562 393.79 324.222 440.548C318.841 461.193 315.593 482.991 301.504 499.928Z" data-index="4"></path><path fill="#68B7BB" d="M719.26 453.829C724.866 508.441 708.565 563.045 673.939 605.647C637.843 650.877 583.601 678.255 526.514 684.559C507.38 686.672 487.072 686.855 468.188 682.551C472.593 680.814 477.095 679.442 481.462 677.546C486.995 675.143 517.623 660.521 520.12 657.619C520.414 657.278 520.451 656.783 520.616 656.364C521.972 655.703 538.075 653.913 541.719 653.163C560.493 649.247 578.554 642.47 595.271 633.071C637.826 609.259 669.265 569.615 682.758 522.754C683.211 522.579 683.729 522.521 684.117 522.229C687.441 519.726 705.779 484.325 708.48 478.222C710.969 472.597 715.985 457.922 719.26 453.829Z" data-index="5"></path><path fill="#98D5D5" d="M497.914 310.21C498.018 310.199 498.121 310.184 498.225 310.176C542.828 306.668 587.778 322.736 622.244 350.708C655.01 377.301 676.608 418.113 680.926 459.977C685.603 505.315 671.517 549.315 642.747 584.452C612.498 621.112 568.931 644.26 521.621 648.808C520.726 648.891 519.83 648.97 518.934 649.044C474.977 652.651 428.561 639.195 394.866 610.334C360.971 581.301 341.727 540.374 338.472 496.089C335.212 451.739 349.613 403.751 378.885 369.863C408.872 334.712 451.808 313.195 497.914 310.21Z" data-index="6"></path><path fill="#1B2943" d="M552.155 384.442C552.891 384.413 552.867 384.394 553.737 384.478C558.953 384.988 571.964 388.026 575.208 392.403C576.561 394.227 576.01 396.47 575.583 398.556C573.695 407.783 570.127 417.069 567.519 426.145C561.54 446.956 555.678 467.812 551.223 489.011C556.975 490.608 578.57 494.06 581.412 498.03C582.326 499.308 581.804 501.822 581.488 503.258C580.819 506.292 578.582 515.23 575.879 516.596C574.139 517.475 571.365 516.806 569.571 516.34C563.795 514.84 565.495 512.715 562.59 508.957C560.645 506.439 551.677 505.411 548.665 504.762C545.388 517.079 542.347 529.458 539.543 541.891C542.104 542.378 546.609 542.724 548.476 544.629C549.677 545.854 549.656 547.371 549.463 548.966C549.147 551.581 548.214 556.532 545.871 558.132C543.397 559.821 505.817 550.171 500.11 548.911C498.428 548.528 496.272 548.141 495.076 546.785C493.836 545.38 493.472 543.022 493.599 541.216C493.762 538.905 494.809 535.952 496.775 534.564C499.185 532.862 508.491 535.733 511.39 536.284C515.87 525.002 518.85 511.312 521.6 499.434C505.132 494.953 488.463 491.014 471.912 486.836C464.675 485.008 457.157 483.463 450.061 481.169C448.356 480.617 445.567 479.899 444.487 478.38C443.238 476.622 443.497 473.676 443.927 471.711C444.45 469.318 445.402 466.897 446.939 464.968C451.144 459.691 457.299 455.24 462.485 450.937C471.881 443.14 481.249 435.344 491.167 428.212C501.435 420.828 512.224 414.151 522.44 406.703C532.483 399.381 541.635 391.158 552.155 384.442Z" data-index="7"></path><path fill="#98D5D5" d="M546.344 409.475L546.736 409.927C545.691 419.475 541.714 429.77 539.047 438.998C534.539 454.601 530.307 470.312 525.372 485.785C511.894 481.892 498.174 478.871 484.686 474.933C481.327 474.093 475.127 473.228 472.534 470.853C474.601 464.979 535.313 418.023 546.344 409.475Z" data-index="8"></path><path fill="white" d="M483.94 325.68C486.2 325.392 488.622 325.021 490.813 325.829C492.578 326.479 494.327 327.629 494.988 329.473C495.665 331.365 495.049 333.93 493.967 335.566C491.22 339.718 480.356 339.918 475.688 340.963C465.843 343.167 455.396 346.33 446.324 350.709C421.519 362.683 400.038 384.161 385.819 407.576C380.398 416.503 376.816 427.104 371.378 435.514C371.277 435.671 371.171 435.824 371.068 435.979C370.274 436.5 369.394 437.024 368.493 437.332C366.984 437.846 365.275 437.729 363.894 436.922C362.492 436.102 361.637 434.757 361.335 433.176C359.548 423.82 378.932 394.812 384.776 386.908C408.312 355.079 444.522 331.564 483.94 325.68Z" data-index="9"></path><path fill="#1B2943" d="M396.39 527.262C405.333 526.535 413.156 533.236 413.811 542.186C414.466 551.135 407.702 558.904 398.748 559.487C389.894 560.064 382.232 553.393 381.584 544.544C380.937 535.695 387.546 527.98 396.39 527.262Z" data-index="10"></path><path fill="#1B2943" d="M567.528 578.541C569.945 578.302 572.205 578.263 574.484 579.209C577.633 580.516 580.074 582.904 581.367 586.068C582.809 589.6 582.648 593.676 581.085 597.141C579.294 601.113 576.649 603.161 572.655 604.628C570.622 604.643 568.694 604.614 566.751 603.947C563.324 602.773 560.463 600.443 558.898 597.145C557.424 594.05 557.255 590.492 558.427 587.27C560.079 582.744 563.387 580.514 567.528 578.541Z" data-index="11"></path><path fill="#1B2943" d="M628.151 416.351C633.355 416.026 637.864 419.922 638.297 425.118C638.73 430.314 634.929 434.903 629.743 435.444C626.291 435.805 622.914 434.27 620.915 431.433C618.916 428.595 618.608 424.899 620.109 421.769C621.611 418.64 624.687 416.567 628.151 416.351Z" data-index="12"></path><path fill="#1B2943" d="M443.38 382.306C445.933 382.129 448.444 383.017 450.318 384.759C452.191 386.502 453.259 388.942 453.267 391.5C453.283 396.337 449.57 400.368 444.749 400.749C439.64 401.153 435.177 397.325 434.798 392.215C434.419 387.104 438.268 382.66 443.38 382.306Z" data-index="13"></path><path fill="#98D5D5" d="M496.662 727.211C503.682 735.364 511.757 745.035 523.299 745.856C530.912 746.398 538.07 742.89 543.57 737.852C548.144 733.664 551.636 728.165 554.804 722.883C556.894 719.397 559.334 712.311 562.5 710.101C563.355 711.372 563.177 712.996 563.068 714.465C562.599 720.791 561.58 727.157 560.881 733.472C559.158 749.119 557.334 764.755 555.409 780.378L540.279 907.155C537.643 926.24 535.808 945.729 534.23 964.933C525.3 959.098 466.796 917.932 463.722 917.422C461.373 917.033 457.848 918.641 455.771 919.611C442.017 926.032 428.709 934.651 415.508 942.202C402.957 949.382 389.782 955.974 377.706 963.901C382.115 942.463 384.609 920.288 387.717 898.609C392.943 862.087 397.572 825.481 401.603 788.807C419.702 774.825 437.665 761.311 454.932 746.251C460.276 740.987 466.172 736.7 471.772 731.765C477.651 726.585 482.951 720.626 488.295 714.901C490.968 719.112 493.687 723.203 496.662 727.211Z" data-index="14"></path><path fill="#68B7BB" d="M377.706 963.901C382.115 942.463 384.609 920.288 387.717 898.609C393.225 901.292 399.563 903.053 405.412 904.86C436.23 914.385 469.216 918.354 501.33 914.51C514.554 912.927 527.201 909.285 540.279 907.155C537.643 926.24 535.808 945.729 534.23 964.933C525.3 959.098 466.796 917.932 463.722 917.422C461.373 917.033 457.848 918.641 455.771 919.611C442.017 926.032 428.709 934.651 415.508 942.202C402.957 949.382 389.782 955.974 377.706 963.901Z" data-index="15"></path><path fill="#68B7BB" d="M488.295 714.901C490.968 719.112 493.687 723.203 496.662 727.211C486.418 735.921 476.2 748.558 461.26 747.58C459.073 747.437 457.008 746.926 454.932 746.251C460.276 740.987 466.172 736.7 471.772 731.765C477.651 726.585 482.951 720.626 488.295 714.901Z" data-index="16"></path><path fill="#1B2943" d="M482.96 766.06C485.566 765.912 488.268 766.533 490.435 768.027C497.261 772.732 498.512 791.377 499.908 799.355C504.604 799.913 509.329 800.772 513.97 801.67C519.415 802.723 526.419 803.841 529.62 808.919C531.204 811.43 531.391 814.652 530.59 817.464C528.469 824.918 512.918 831.253 506.128 834.907C507.984 842.903 510.715 852.137 510.816 860.332C510.859 863.846 509.866 867.262 507.303 869.768C505.039 871.981 502.172 873.099 499.018 873.079C497.449 873.068 495.773 872.894 494.37 872.143C487.88 868.669 479.149 858.015 473.773 852.477C466.137 856.161 458.96 862.225 450.986 864.887C447.717 865.979 443.932 865.917 440.856 864.27C438.269 862.886 436.168 860.125 435.363 857.326C433.071 849.366 443.16 835.134 446.993 827.921C441.976 822.933 436.362 818.098 431.832 812.693C429.392 809.782 427.503 806.273 427.932 802.361C428.317 798.847 430.715 795.819 433.445 793.727C434.616 792.83 436.081 791.995 437.549 791.725C443.632 790.61 456.807 793.753 463.243 794.728C466.455 788.028 468.435 780.146 472.266 773.836C474.956 769.405 477.995 767.305 482.96 766.06Z" data-index="17"></path><path fill="white" d="M482.152 773.806C483.266 773.714 484.14 773.919 485.222 774.151C490.166 777.703 491.558 798.453 493.759 805.206C493.825 805.409 493.896 805.61 493.965 805.812C500.656 807.784 516.969 808.367 522.252 811.751C523.354 812.458 523.422 812.671 523.611 813.857C521.476 819.854 506.329 824.97 500.749 829.163C500.011 829.717 498.284 830.969 498.058 831.949C496.954 836.734 504.163 854.741 502.816 862.342C502.526 863.976 501.958 864.657 500.634 865.595C493.479 865.992 482.465 847.821 475.276 844.331C474.98 844.188 474.673 844.066 474.372 843.933C467.606 845.927 450.399 859.493 444.906 857.697C443.798 857.335 443.03 856.875 442.675 855.704C441.258 851.027 453.313 833.514 455.224 827.964L455.453 827.285C451.141 818.485 440.115 813.413 436.171 805.333C435.479 803.916 435.547 803.08 436.039 801.621C441.415 796.377 457.187 802.913 464.364 802.638C465.408 802.597 466.331 802.502 467.203 801.873C472.469 798.078 476 780.326 482.152 773.806Z" data-index="18"></path><path fill="white" d="M441.065 212.37C494.575 189.582 530.905 140.482 572.149 101.743C644.659 33.6364 738.014 19.2985 829.697 56.2869C835.932 58.8024 842.003 61.5399 847.853 64.8713C833.14 62.9371 819.018 62.8571 804.297 64.8513C801.608 65.2157 798.306 65.1479 796.022 66.7443C794.889 67.5363 794.505 68.4495 793.991 69.6636C794.092 70.9501 794.016 71.5099 795.243 72.2734C796.558 73.0917 798.651 73.122 800.14 73.0655C805.9 72.8467 811.71 71.6394 817.483 71.2231C830.909 70.2549 854.244 70.767 866.317 75.5948C877.093 79.9041 896.657 95.8936 905.459 103.911C896.308 99.8281 887.163 95.6983 877.636 92.557C828.439 76.336 776.873 79.2638 728.746 97.6802C691.042 112.108 657.496 135.367 628.672 163.449C613.064 178.655 598.463 194.872 582.374 209.585C567.737 222.97 551.568 235 535.23 246.226C527.653 235.76 516.782 223.153 503.269 220.899C493.98 219.35 487.425 222.737 480.26 228.056C478.146 229.625 476.178 231.046 473.776 232.163C473.518 232.283 473.262 232.409 473.003 232.527C472.847 232.598 472.689 232.663 472.531 232.73C469.508 233.995 466.471 235.228 463.422 236.427C461.24 237.206 458.766 237.916 456.78 239.108C455.268 240.016 454.015 241.228 453.625 242.985C454.205 244.132 454.372 244.362 455.679 244.807C459.926 246.256 466.55 242.584 470.312 240.896L464.186 252.649C463.844 252.378 463.501 252.109 463.154 251.844C455.734 246.162 440.269 237.49 431.271 235.269C428.151 234.478 424.904 234.324 421.723 234.816C415.277 235.828 410.45 239.268 406.714 244.474C394.702 240.819 382.775 238.144 370.968 233.708C388.389 230.03 406.389 225.332 423.205 219.481C429.242 217.38 435.092 214.661 441.065 212.37Z" data-index="19"></path><path fill="#98D5D5" d="M441.065 212.37C443.386 214.859 449.742 217.023 452.922 219.179C447.367 221.424 438.561 223.619 434.427 227.834C434.093 229.192 434.278 229.582 434.668 230.949C435.877 232.048 436.623 232.483 438.298 232.376C443.041 232.073 448.621 229.041 453.012 227.206L457.132 232.608C459.586 233.319 461.415 234.907 463.422 236.427C461.24 237.206 458.766 237.916 456.78 239.108C455.268 240.016 454.015 241.228 453.625 242.985C454.205 244.132 454.372 244.362 455.679 244.807C459.926 246.256 466.55 242.584 470.312 240.896L464.186 252.649C463.844 252.378 463.501 252.109 463.154 251.844C455.734 246.162 440.269 237.49 431.271 235.269C428.151 234.478 424.904 234.324 421.723 234.816C415.277 235.828 410.45 239.268 406.714 244.474C394.702 240.819 382.775 238.144 370.968 233.708C388.389 230.03 406.389 225.332 423.205 219.481C429.242 217.38 435.092 214.661 441.065 212.37Z" data-index="20"></path><path fill="#1B2943" d="M452.922 219.179C455.99 217.814 467.828 210.815 470.323 212.034C471.699 212.707 471.844 213.242 472.415 214.57C472.326 216.189 471.82 217.123 470.633 218.181C467.338 221.119 461.928 223.108 457.918 225.109L453.012 227.206C448.621 229.041 443.041 232.073 438.298 232.376C436.623 232.483 435.877 232.048 434.668 230.949C434.278 229.582 434.093 229.192 434.427 227.834C438.561 223.619 447.367 221.424 452.922 219.179Z" data-index="21"></path><path fill="#E0E9E5" d="M453.012 227.206L457.918 225.109C461.82 230.191 468.038 228.693 472.531 232.73C469.508 233.995 466.471 235.228 463.422 236.427C461.415 234.907 459.586 233.319 457.132 232.608L453.012 227.206Z" data-index="22"></path><path fill="#1B2943" d="M606.391 94.9047C607.616 94.9401 608.288 95.2359 609.371 95.7928C610.064 96.843 610.49 97.3092 610.202 98.6526C609.401 102.395 599.951 108.17 596.944 110.538C585.056 119.897 573.502 130.649 563.189 141.74C557.554 147.801 552.346 155.051 546.103 160.426C545.034 160.176 543.455 159.719 542.676 158.85C541.864 157.945 541.588 157.053 541.862 155.841C542.642 152.382 548.291 147.307 550.679 144.7C564.162 129.984 588.848 104.06 606.391 94.9047Z" data-index="23"></path><path fill="#1B2943" d="M618.018 111.427C619.332 111.452 620.505 111.445 621.547 112.416C622.393 113.205 622.741 114.128 622.587 115.278C622.406 116.639 621.346 117.704 620.393 118.59C616.619 122.095 611.955 124.687 608.106 128.153C600.881 134.66 594.562 142.088 587.374 148.592C585.821 148.46 584.981 148.34 583.68 147.368C583.321 146.629 582.895 146.139 583.01 145.286C583.984 138.029 611.145 116.769 618.018 111.427Z" data-index="24"></path><path fill="#98D5D5" d="M134.822 758.722C143.605 750.648 153.516 743.469 162.918 736.119C182.481 720.967 202.548 706.478 223.085 692.675C247.642 676.443 272.92 661.251 297.846 645.595C298.391 650.516 299.394 653.985 301.815 658.315C307.112 664.699 313.112 667.709 321.33 668.484C332.055 669.496 342.487 667.758 352.853 665.15C352.992 678.752 352.535 697.375 363.081 707.51C368.086 712.319 374.653 714.306 381.495 713.989C384.174 713.864 386.707 713.372 389.298 712.691C399.354 709.273 407.33 703.397 416.575 698.549C419.674 708.02 423.892 716.596 427.775 725.72L427.413 726.115C420.001 733.239 410.007 739.124 401.583 745.078C369.517 767.741 337.142 788.737 302.709 807.663C293.265 812.853 280.867 820.14 271.063 823.95C241.973 837.289 212.983 850.846 184.096 864.621C188.684 850.246 194.265 836.072 199.553 821.938C201.974 815.466 205.049 808.74 206.67 802.043C207.067 800.403 207.025 798.74 206.956 797.067C206.798 796.908 206.643 796.747 206.482 796.59C206.245 796.36 206.002 796.137 205.764 795.908C200.942 791.246 188.423 786.283 181.846 782.949C172.198 778.1 162.607 773.139 153.075 768.065C147.159 764.632 141.067 761.513 134.822 758.722Z" data-index="25"></path><path fill="white" d="M134.822 758.722C143.605 750.648 153.516 743.469 162.918 736.119C182.481 720.967 202.548 706.478 223.085 692.675C247.642 676.443 272.92 661.251 297.846 645.595C298.391 650.516 299.394 653.985 301.815 658.315C294.572 662.521 286.885 665.734 279.976 670.532C271.869 676.161 264.982 682.923 257.405 689.169C252.569 693.155 247.285 696.719 242.196 700.381C211.787 722.266 180.828 742.722 153.075 768.065C147.159 764.632 141.067 761.513 134.822 758.722Z" data-index="26"></path><path fill="#68B7BB" d="M206.956 797.067C216.619 800.696 225.757 805.814 235.307 809.768C242.644 812.79 250.006 815.751 257.392 818.652C261.89 820.388 266.724 821.862 271.063 823.95C241.973 837.289 212.983 850.846 184.096 864.621C188.684 850.246 194.265 836.072 199.553 821.938C201.974 815.466 205.049 808.74 206.67 802.043C207.067 800.403 207.025 798.74 206.956 797.067Z" data-index="27"></path><path fill="#68B7BB" d="M389.298 712.691C399.354 709.273 407.33 703.397 416.575 698.549C419.674 708.02 423.892 716.596 427.775 725.72L427.413 726.115C426.692 725.579 426.454 725.389 425.521 725.477C423.974 725.622 421.751 726.833 420.237 727.354C412.888 729.88 404.606 732.075 396.819 730.385C394.19 729.815 391.729 728.688 390.29 726.314C387.944 722.443 388.269 716.881 389.298 712.691Z" data-index="28"></path><path fill="#1B2943" d="M292.852 702.865C299.743 699.112 315.379 688.167 322.71 688.661C324.606 688.789 326.174 689.478 327.368 691.006C328.662 692.661 328.727 695.278 328.578 697.261C328.014 704.756 323.942 716.177 322.726 724.861C322.767 724.915 322.808 724.968 322.848 725.022C328.265 732.357 343.454 742.607 344.762 751.306C344.995 752.85 344.602 754.073 343.658 755.288C339.435 760.72 321.314 759.277 314.483 760.232C311.696 760.622 310.918 760.91 309.258 763.101C306.027 769.802 301.509 785.619 294.976 789.033C292.702 790.221 289.817 790.51 287.407 789.562C280.364 786.79 276.102 766.968 273.032 759.834C264.74 757.574 245.215 759.788 239.993 753.742C238.445 751.95 238.11 749.638 238.326 747.339C239.1 739.096 255.599 728.216 261.94 722.917C260.419 716.485 255.689 697.712 258.217 692.141C259.168 690.043 261.042 689.353 263.027 688.515C272.611 688.593 284.069 698.51 292.852 702.865Z" data-index="29"></path><path fill="white" d="M264.122 694.382C272.69 698.093 280.739 706.254 289.302 709.35C296.647 712.007 314.086 698.093 321.621 694.741L322.321 694.434C320.291 705.258 315.934 715.795 315.111 726.799C315.177 726.915 315.241 727.031 315.309 727.145C315.423 727.335 315.542 727.521 315.656 727.711C321.214 736.961 331.558 743.184 338.294 751.666C329.249 752.808 315.048 751.591 307.094 754.201C301.147 759.053 298.403 769.814 295.284 776.65C294.234 778.951 292.799 782.097 290.307 783.039C286.801 781.174 282.546 761.276 279.447 756.352C273.868 747.486 255.917 753.03 247.398 750.428C246.319 750.098 246.254 749.849 245.729 748.92C246.174 743.547 260.864 733.812 265.227 729.578C266.514 728.329 268.557 726.426 269.005 724.651C270.919 717.079 263.926 703.31 264.122 694.382Z" data-index="30"></path><path fill="white" d="M896.312 196.719C902.07 198.391 907.619 199.791 912.033 204.1C912.291 205.444 912.489 206.266 913.67 207.103C914.729 207.853 916.125 208.37 917.308 208.904C917.652 213.724 919.295 215.263 922.658 218.504C920.743 222.505 914.767 232.158 915.676 236.225C916.494 237.401 916.983 237.83 918.288 238.421C919.739 238.332 920.609 238.046 921.557 236.876C923.125 234.94 924.218 232.243 925.344 230.017C927.169 233.24 927.014 241.278 927.933 245.356C916.419 254.813 903.722 263.335 893.59 274.306C873.819 295.714 861.749 324.915 863.041 354.215C864.221 380.981 877.445 404.418 897.01 422.243C910.329 434.377 929.582 444.908 947.624 447.25C954.276 448.113 960.912 447.774 967.583 447.437C959.399 456.927 946.91 463.573 935.599 468.544C929.892 471.052 919.932 473.01 915.933 477.669C914.452 479.394 913.816 481.528 914.018 483.786C915.214 497.161 946.149 520.559 956.558 529.657C935.931 533.816 917.022 532.72 897.282 524.979C856.824 509.112 824.856 470.96 807.851 431.841C790.657 392.285 782.276 348.035 797.732 306.402C803.178 291.733 811.451 278.297 823.168 267.815C830.323 261.414 838.714 256.974 846.947 252.158C871.257 237.936 885.92 223.175 896.312 196.719Z" data-index="31"></path><path fill="#1B2943" d="M821.76 294.96C822.951 295.197 823.792 295.548 824.859 296.124C825.494 297.073 826 297.507 825.797 298.714C825.023 303.314 821.122 312.249 819.735 317.581C814.109 339.202 813.57 361.177 816.693 383.24C817.313 387.621 821.056 394.754 821.083 397.935C821.101 400.013 819.712 401.053 818.343 402.397C818.256 402.349 818.17 402.299 818.082 402.252C816.45 401.376 815.41 400.63 814.425 399.026C811.554 394.355 810.653 388.144 809.805 382.821C806.333 361.862 807.071 340.422 811.977 319.751C813.408 313.659 816.838 298.015 821.76 294.96Z" data-index="32"></path><path fill="#1B2943" d="M857.421 289.819C858.922 289.837 859.615 289.81 860.91 290.68C861.507 291.754 861.779 292.173 861.712 293.445C861.432 298.825 855.382 308.586 853.425 314.226C850.957 321.336 848.828 329.384 847.5 336.777C846.788 340.746 846.791 348.183 843.72 350.822C842.724 350.685 841.81 350.488 840.832 350.266C839.601 349.079 839.206 348.298 839.157 346.562C838.833 335.136 849.867 298.377 857.421 289.819Z" data-index="33"></path><path fill="white" d="M309.91 185.715C319.461 185.127 349.24 185.929 357.647 188.778C357.4 189.369 357.094 189.22 356.463 189.34C327.585 194.834 301.442 202.594 275.536 216.647C270.997 219.109 264.483 221.986 261.408 226.267C260.52 227.505 260.233 228.503 260.424 229.996C262.7 231.539 265.028 230.852 267.408 229.792C271.299 228.06 274.976 225.354 278.638 223.167C282.587 220.809 286.745 218.772 290.9 216.801C316.301 204.752 360.449 190.884 388.34 195.02C377.322 197.311 347.506 202.771 339.125 207.873C338.535 208.967 338.399 209.213 338.737 210.494C339.071 211.761 339.938 212.601 341.012 213.269C344.136 213.842 358.303 209.072 362.598 208.059C369.005 206.548 375.455 205.064 381.931 203.881C386.253 203.091 390.682 202.682 394.954 201.669C396.357 200.739 396.725 199.561 397.36 198.075L397.635 197.417C402.973 197.01 418.038 202.678 423.744 204.562C406.035 211.259 386.671 214.177 368.462 219.321C313.34 234.89 274.089 260.106 232.956 299.653C194.7 335.46 163.202 381.661 139.359 428.088C134.773 412.097 135.132 395.154 132.836 378.809C132.48 376.275 131.826 373.661 129.606 372.115C127.483 370.637 124.817 370.577 122.387 371.185C115.9 372.807 109.524 376.728 103.205 379.102C90.9886 383.691 77.9518 386.67 65.1627 389.142C78.6191 375.359 89.1758 357.59 99.3217 341.343C118.139 311.21 133.402 284.369 157.404 257.517C198.529 211.511 248.843 189.188 309.91 185.715Z" data-index="34"></path><path fill="#1B2943" d="M170.046 267.48C171.606 267.959 172.28 268.324 173.459 269.451C173.798 270.347 174.102 270.759 173.954 271.737C173.423 275.253 165.509 281.553 162.956 284.425C156.181 292.049 149.974 301.102 144.253 309.547C140.175 315.565 135.034 326.803 129.631 330.908C128.639 330.426 126.926 329.649 126.296 328.711C125.695 327.817 125.53 327.101 125.76 326.065C126.555 322.488 130.407 317.872 132.473 314.715C141.196 301.377 157.232 276.51 170.046 267.48Z" data-index="35"></path><path fill="#1B2943" d="M177.6 284.809C179.012 284.92 179.632 284.964 180.806 285.85C181.448 287.118 181.72 287.534 181.455 289.001C180.877 292.2 164.001 309.571 160.951 311.644C159.162 311.449 158.062 310.911 156.837 309.593C156.625 308.915 156.373 308.2 156.552 307.479C157.464 303.801 174.168 287.722 177.6 284.809Z" data-index="36"></path><path fill="white" d="M301.333 618.508C301.978 619.663 298.504 632.687 298.305 635.4C270.351 653.667 241.564 670.579 213.889 689.298C183.841 709.622 155.358 731.839 127.211 754.691C123.885 752.97 120.544 751.277 117.189 749.613L111.848 747.148C117.223 743.17 122.358 738.855 127.699 734.826C152.358 715.946 177.447 697.635 202.947 679.907C234.918 657.947 268.013 638.298 301.333 618.508Z" data-index="37"></path><path fill="#98D5D5" d="M431.559 731.47C435.495 735.544 438.66 738.071 443.865 740.399C416.746 763.973 386.654 783.315 356.272 802.324C339.646 812.726 322.522 823.703 305.042 832.627C298.258 829.535 290.058 829.516 283.508 825.838C325.427 804.669 365.583 780.177 403.591 752.596C412.916 745.867 423.17 739.36 431.559 731.47Z" data-index="38"></path><path fill="#98D5D5" d="M571.189 715.194C574.796 717.678 578.467 720.019 582.192 722.321C580.61 744.611 577.345 766.978 574.847 789.193L562.525 899.697C557.48 900.863 553.201 903.793 548.345 905.008C549.013 895.268 550.554 885.485 551.707 875.787L557.664 825.908C562.221 789.031 566.232 752.009 571.189 715.194Z" data-index="39"></path><path fill="#68B7BB" d="M181.315 872.723C197.46 867.623 213.242 859.371 228.523 852.101C246.909 843.468 265.238 834.714 283.508 825.838C290.058 829.516 298.258 829.535 305.042 832.627C282.735 845.058 260.063 856.824 237.056 867.907C215.519 878.327 193.607 887.951 172.083 898.401L181.315 872.723Z" data-index="40"></path><path fill="#98D5D5" d="M376.657 806.075C382.441 802.162 388.271 798.317 394.145 794.54C391.314 814.178 388.596 833.832 385.989 853.5C384.232 867.39 382.805 881.372 380.363 895.164C375.949 893.698 371.203 891.014 367.23 888.595C369.329 872.255 371.248 855.893 372.986 839.511C374.163 828.404 374.988 817.116 376.657 806.075Z" data-index="41"></path><path fill="#98D5D5" d="M942.708 151.079C952.997 164.22 956.379 182.244 954.402 198.551C952.132 217.272 942.204 233.351 927.933 245.356C927.014 241.278 927.169 233.24 925.344 230.017C938.36 205.466 945.657 179.002 942.708 151.079Z" data-index="42"></path><path fill="#68B7BB" d="M353.149 977.472C355.705 967.472 357.02 956.929 358.685 946.741C361.94 927.421 364.789 908.035 367.23 888.595C371.203 891.014 375.949 893.698 380.363 895.164C376.48 919.029 372.342 944.098 369.944 968.13C364.221 971.059 358.676 974.189 353.149 977.472Z" data-index="43"></path><path fill="#98D5D5" d="M903.071 117.913C904.874 119.057 906.734 120.155 908.482 121.378C910.163 132.825 909.896 144.568 908.477 156.032C907.967 160.159 906.469 164.529 906.523 168.648C906.543 170.179 907.006 171.493 908.319 172.401C909.411 173.158 909.828 173.135 911.076 173.044C914.371 170.571 915.221 159.421 915.776 155.311C917.067 145.744 916.959 135.956 915.96 126.371C918.212 128.002 920.376 129.56 922.325 131.558C924.868 159.449 920.297 177.805 912.033 204.1C907.619 199.791 902.07 198.391 896.312 196.719C898.258 191.071 900.466 185.308 901.868 179.5C906.589 159.944 906.555 137.643 903.071 117.913Z" data-index="44"></path><path fill="#68B7BB" d="M548.345 905.008C553.201 903.793 557.48 900.863 562.525 899.697C559.043 925.726 557.213 952.081 554.157 978.186C549.995 975.634 546.008 972.879 542.011 970.082C543.278 953.893 544.783 937.723 546.525 921.578C547.033 916.535 546.851 909.756 548.345 905.008Z" data-index="45"></path><path fill="#68B7BB" d="M427.703 683.217C429.055 683.273 430.376 683.305 431.684 683.683C432.656 683.965 432.921 684.108 433.542 684.936C435.029 686.92 435.839 690.28 436.691 692.635C439.732 701.043 442.334 711.45 446.927 719.083C447.778 720.498 448.38 721.15 449.989 721.527C453.963 719.977 474.055 697.405 478.192 692.989C479.774 693.631 481.365 694.046 482.367 695.516L482.067 696.849C478.465 702.634 458.949 725.931 453.239 727.435C451.008 728.022 448.71 727.62 446.754 726.43C438.302 721.288 429.961 693.266 427.703 683.217Z" data-index="46"></path><path fill="#98D5D5" d="M917.308 208.904C924.861 193.505 929.282 175.032 930.198 157.889C930.492 152.388 929.597 144.427 930.831 139.362C932.261 139.709 933.183 140.649 933.91 141.92C935.257 144.275 935.539 148.786 935.825 151.475C937.894 170.914 934.144 190.004 927.16 208.133C925.817 211.619 924.384 215.187 922.658 218.504C919.295 215.263 917.652 213.724 917.308 208.904Z" data-index="47"></path><path fill="#98D5D5" d="M704.963 375.533C716.22 375.311 735.886 377.484 744.925 384.644C747.062 386.337 748.603 388.56 748.835 391.331C749.729 402.017 731.742 418.614 724.894 426.328L723.689 427.256C722.046 425.803 721.629 422.224 721.121 420.076C729.672 412.261 739.022 402.562 743.68 391.87C734.564 383.697 718.42 382.835 706.785 381.693C706.035 379.702 705.538 377.582 704.963 375.533Z" data-index="48"></path><path fill="white" d="M305.649 404.653C306.463 404.775 307.121 405.054 307.886 405.349C308.783 406.511 308.958 406.75 309.156 408.192C308.665 409.652 307.957 410.263 306.597 410.887C303.506 412.304 299.819 412.704 296.516 413.461C286.952 415.656 277.411 418.59 269.538 424.614C273.764 433.058 282.053 440.037 289.096 446.162C291.759 448.478 295.115 450.892 296.916 453.937C297.05 455.594 296.298 456.5 295.439 457.821C294.009 457.854 293.457 457.937 292.193 457.198C284.417 452.648 267.415 435.731 265.455 427.127C264.902 424.698 265.267 422.89 266.694 420.849C273.372 411.296 294.634 406.829 305.649 404.653Z" data-index="49"></path><path fill="#98D5D5" d="M548.654 688.931C549.798 689.032 550.601 689.066 551.593 689.677C551.628 690.012 551.707 690.346 551.697 690.682C551.649 692.305 549.69 695.697 548.994 697.274C544.933 706.483 538.638 722.336 530.622 728.307C528.469 729.911 525.959 730.707 523.284 730.181C513.47 728.253 502.132 708.996 496.521 700.8C495.592 699.434 494.834 698.847 495.124 697.088C495.332 695.823 495.935 695.265 496.948 694.62C498.049 694.7 498.606 694.642 499.519 695.319C505.723 699.917 516.231 722.83 523.861 724.231C531.995 725.725 541.348 693.492 547.984 689.314C548.202 689.177 548.431 689.059 548.654 688.931Z" data-index="50"></path><path fill="#98D5D5" d="M728.033 505.459C735.98 509.826 753.178 526.643 755.965 535.512C756.759 538.041 756.726 540.773 755.405 543.123C750.856 551.214 725.98 555.901 716.583 558.261C715.366 558.445 714.728 558.723 713.554 558.245C713.075 556.181 714.328 553.711 714.978 551.719C721.033 550.993 745.877 544.628 749.579 540.952C750.231 540.305 750.652 539.861 750.608 538.928C750.288 532.114 731.58 516.083 726.32 511.225C726.948 509.325 727.469 507.38 728.033 505.459Z" data-index="51"></path><path fill="#98D5D5" d="M613.568 666.557C613.807 666.87 613.974 667.037 614.068 667.464C614.56 669.696 614.205 672.87 614.132 675.167C613.8 685.688 613.422 699.424 607.5 708.479C606.319 710.286 604.73 712.018 602.488 712.322C594.222 713.442 572.323 697.561 564.947 691.784C564.009 690.832 563.717 690.603 563.373 689.333C564.139 687.792 566.351 687.076 567.863 686.349C578.059 693.522 589.774 702.892 601.772 706.556C607.897 698.032 607.691 680.471 607.891 670.007L613.568 666.557Z" data-index="52"></path><path fill="white" d="M423.4 249.096C434.534 249.616 450.734 260.855 458.801 268.352C460.17 269.625 461.084 270.725 461.182 272.624C459.836 274.095 457.912 274.516 456.074 275.137C452.152 272.331 448.556 269.06 444.698 266.162C439.156 262 433.303 258.493 427.193 255.239C426.397 254.92 425.533 254.707 424.712 254.454C423.815 254.688 423.522 254.663 422.812 255.322C416.547 261.136 415.97 282.948 415.87 291.431C414.256 292.46 412.906 293.439 410.989 293.746C409.927 293.051 409.755 292.568 409.497 291.366C407.685 282.942 412.548 261.263 417.245 253.68C418.904 251.002 420.318 249.755 423.4 249.096Z" data-index="53"></path><path fill="white" d="M319.203 342.719C325.639 342.716 333.846 343.137 340.079 344.86C341.05 345.128 342.84 345.636 343.256 346.59C343.728 347.675 343.737 349.054 343.149 350.099C342.606 351.065 341.001 351.166 339.996 351.201C329.733 351.556 316.942 347.296 306.777 349.855C305.226 350.245 304.268 350.763 303.464 352.208C302.502 359.464 308.042 369.859 311.033 376.272C312.594 379.542 315.113 382.557 316.272 385.969C316.805 387.537 316.663 388.35 315.945 389.806C314.693 390.523 314.204 390.777 312.704 390.657C305.969 384.579 299.49 367.291 298.256 358.236C297.763 354.626 297.872 350.285 300.292 347.319C304.106 342.646 313.589 343.059 319.203 342.719Z" data-index="54"></path><path fill="#98D5D5" d="M725.087 437.049C737.041 440.702 755.988 449.173 763.351 459.553C763.601 461.292 763.976 463.16 763.589 464.902C761.343 475.016 741.564 486.572 732.764 491.948C731.578 492.528 731.22 492.907 729.896 492.661C728.965 490.976 729.423 488.314 729.495 486.418C740.016 480.241 751.439 472.952 759.117 463.383C750.588 454.109 738.131 448.429 726.342 444.589C726.154 442 725.649 439.573 725.087 437.049Z" data-index="55"></path><path fill="white" d="M292.629 472.338C292.795 472.369 292.968 472.375 293.128 472.431C294.228 472.819 294.842 473.281 295.405 474.28C295.414 480.476 267.081 492.06 263.724 500.773C259.68 511.265 291.933 517.523 295.397 525.494C295.425 527.115 295.008 527.894 294.221 529.237C285.354 526.391 264.497 516.062 259.62 508.452C257.971 505.88 257.449 502.882 258.262 499.926C261.364 488.654 282.785 477.571 292.629 472.338Z" data-index="56"></path><path fill="#98D5D5" d="M708.203 570.023C708.381 570.196 708.564 570.364 708.737 570.542C711.81 573.692 721.267 594.622 723.052 599.913C723.871 602.34 724.525 604.972 724.35 607.552C724.153 610.451 722.923 613.032 720.661 614.88C713.019 621.123 689.382 618.44 679.623 617.585C678.558 617.576 678.339 617.597 677.382 617.041C677.402 615.133 679.503 612.997 680.621 611.492C687.958 611.854 708.336 613.603 714.752 611.271C716.304 610.707 717.403 609.841 718.031 608.264C719.944 603.464 706.949 579.682 704.344 574.252C705.546 572.777 706.903 571.412 708.203 570.023Z" data-index="57"></path><path fill="#98D5D5" d="M667.939 626.02C668.09 626.263 668.278 626.487 668.392 626.75C670.26 631.072 673.829 654.362 673.985 659.544C674.071 662.379 673.928 665.359 672.867 668.019C671.848 670.574 670.022 672.586 667.424 673.573C658.533 676.953 636.412 666.853 627.764 662.809C627.076 662.342 626.805 662.042 626.308 661.402C626.771 659.714 628.066 658.759 629.267 657.519C637.011 660.229 655.204 668.012 662.349 668.15C663.86 668.179 665.413 667.786 666.419 666.571C670.252 661.94 664.264 636.537 663.12 630.066L667.939 626.02Z" data-index="58"></path><path fill="white" d="M643.366 268.196C644.378 268.246 645.396 268.308 646.393 268.5C649.493 269.097 651.836 271.064 653.445 273.731C658.749 282.529 657.012 306.108 654.819 316.103C653.072 315.143 651.376 314.09 649.667 313.064C650.11 308.4 650.508 303.75 650.631 299.065C650.819 291.854 651.719 279.952 646.383 274.318C634.334 273.316 621.3 281.955 611.764 288.421C609.534 287.614 607.401 286.627 605.245 285.645C615.466 277.351 630.076 269.412 643.366 268.196Z" data-index="59"></path><path fill="white" d="M296.831 541.868C298.134 542.725 298.484 543.353 299.179 544.692C299.135 546.01 299.113 546.352 298.276 547.44C296.39 549.895 293.78 552.077 291.613 554.307C288.044 558.016 284.804 562.028 281.93 566.298C279.933 569.274 275.777 574.77 276.957 578.533C279.58 586.901 307.808 584.3 314.164 588.856C315.356 589.71 315.393 590.122 315.714 591.464C315.239 592.857 314.98 593.613 313.896 594.67C303.754 593.121 293.037 591.875 283.192 588.977C279.043 587.756 274.36 585.805 272.316 581.719C270.864 578.816 271.201 575.53 272.202 572.541C275.278 563.36 288.296 545.925 296.831 541.868Z" data-index="60"></path><path fill="#98D5D5" d="M369.098 652.337C370.184 652.89 371.958 653.623 372.482 654.8C373.504 657.094 373.077 661.687 373.17 664.3C373.394 670.658 373.846 689.435 377.802 693.452C378.674 694.337 379.407 694.515 380.586 694.275C383.439 693.696 386.741 690.831 389.261 689.315C393.655 686.672 398.246 684.356 402.63 681.697C405.157 680.165 407.627 678.05 410.206 676.697C410.795 676.388 411.349 676.312 412.014 676.356C413.206 676.436 414.146 676.98 414.827 677.966C415.557 679.024 415.439 679.86 415.066 680.983C406.638 686.76 395.392 695.469 385.788 698.665C382.557 699.741 378.947 699.923 375.87 698.274C372.688 696.57 370.98 693.352 369.982 690.007C367.725 682.444 365.516 659.047 369.098 652.337Z" data-index="61"></path><path fill="white" d="M357.981 288.113C368.001 286.668 384.965 292.169 394.159 296.628C395.814 297.432 397.097 298.203 397.73 299.973C397.082 301.623 395.528 302.402 394.126 303.368C384.815 299.72 365.773 291.227 356.372 294.344C354.79 302.967 355.569 312.635 356.686 321.307C357.044 324.085 358.161 327.247 358.098 330.012C358.074 331.105 357.522 332.716 356.878 333.629C356.107 334.722 355.599 335.024 354.309 335.207C353.499 334.585 353.378 334.501 352.969 333.635C349.248 325.755 348.333 302.435 351.579 294.151C352.953 290.642 354.574 289.514 357.981 288.113Z" data-index="62"></path><path fill="white" d="M571.069 242.075C574.472 241.952 577.194 242.595 579.944 244.691C589.291 251.813 593.392 270.802 594.743 281.833C592.78 281.376 590.851 280.789 588.916 280.227C586.859 270.53 583.514 253.839 575.148 247.775C573.938 247.846 572.702 247.927 571.518 248.202C562.331 250.342 550.489 262.564 545.702 270.4C543.511 269.962 541.353 269.286 539.201 268.686C539.632 267.838 540.092 267.04 540.601 266.234C547.252 255.709 558.634 244.935 571.069 242.075Z" data-index="63"></path><path fill="white" d="M496.117 234.54C500.566 234.069 503.767 235.248 507.408 237.788C513.945 242.35 526.485 256.813 527.365 264.811C527.498 266.014 527.417 266.614 526.699 267.571C525.049 267.675 523.878 266.949 522.707 265.811C520.585 263.751 519.104 260.55 517.416 258.082C512.885 251.458 507.32 244.934 500.854 240.125L500.293 239.714C499.261 239.913 498.268 240.107 497.363 240.668C489.58 245.501 481.785 262.242 479.554 270.849C477.72 271.31 476.051 271.645 474.161 271.755L473.619 270.975C473.457 269.912 473.398 269.034 473.649 267.978C476.115 257.612 486.962 240.235 496.117 234.54Z" data-index="64"></path><path fill="#98D5D5" d="M316.866 621.213C318.665 622.358 320.424 623.264 322.389 624.093C320.737 630.91 317.265 639.841 318.883 646.759C324.616 652.179 355.737 640.429 358.518 642.796C359.539 643.665 359.881 644.595 360.038 645.871C359.693 646.448 359.345 646.868 358.778 647.242C351.747 651.884 327.514 655.534 319.394 653.641C317.139 653.115 314.672 652.173 313.511 650.024C309.483 642.562 314.589 628.804 316.866 621.213Z" data-index="65"></path><defs><linearGradient id="gradient_0" gradientUnits="userSpaceOnUse" x1="708.88281" y1="346.21317" x2="686.3844" y2="334.37784"><stop offset="0" stop-color="#A0D9D9"></stop><stop offset="1" stop-color="#DCF9F2"></stop></linearGradient></defs><path fill="url(#gradient_0)" d="M687.316 317.947C693.543 316.826 702.878 316.235 708.264 320.108C710.834 321.956 712.36 324.642 712.762 327.771C714.148 338.565 704.496 358.806 698.774 367.845C697.512 365.459 696.285 363.045 694.94 360.704C698.421 354.191 709.285 333.58 706.653 327.245C705.928 325.501 703.734 324.581 702.05 324.112C698.693 323.178 694.828 323.482 691.365 323.439C692.652 322.584 693.362 322.367 694.911 322.29C695.061 322.282 695.212 322.279 695.362 322.274C694.814 320.869 694.268 319.477 693.633 318.108C691.495 318.256 689.445 318.121 687.316 317.947Z" data-index="66"></path><path fill="white" d="M662.901 323.347C670.208 320.183 679.405 318.484 687.316 317.947C689.445 318.121 691.495 318.256 693.633 318.108C694.268 319.477 694.814 320.869 695.362 322.274C695.212 322.279 695.061 322.282 694.911 322.29C693.362 322.367 692.652 322.584 691.365 323.439C682.906 324.002 674.933 326.334 666.857 328.735C665.396 327.034 664.167 325.193 662.901 323.347Z" data-index="67"></path><path fill="white" d="M316.866 621.213C318.353 616.956 319.77 608.32 323.052 605.354C324.274 605.271 324.791 605.382 325.87 605.962C326.869 607.385 326.971 608.464 326.719 610.13C326.015 614.785 323.634 619.498 322.389 624.093C320.424 623.264 318.665 622.358 316.866 621.213Z" data-index="68"></path><path fill="#1B2943" d="M718.918 727.875C719.552 727.891 720.392 727.857 721.025 728.005C722.297 728.302 722.772 728.84 723.491 729.874C724.469 734.097 722.389 738.585 721.339 742.671C717.754 756.618 718.104 769.703 725.626 782.265C729.055 787.991 733.291 793.715 738.596 797.842C743.228 801.446 748.996 804.246 754.415 806.431C759.879 808.634 771.611 809.789 774.533 815.253C775.126 816.362 774.99 816.537 774.637 817.671C773.336 818.53 771.818 818.64 770.291 818.555C767.043 818.374 763.577 817.082 760.43 816.244C754.669 814.71 748.679 813.362 742.706 813.09C736.132 812.795 729.578 814.024 723.558 816.68C719.031 818.672 714.628 821.407 710.478 824.084C691.936 836.04 688.056 850.266 680.623 869.725C679.165 870.602 678.011 871.089 676.291 870.72C675.176 869.673 674.751 868.963 674.749 867.392C674.747 864.124 676.126 860.629 676.731 857.414C678.57 847.656 680.353 837.114 679.093 827.199C675.909 802.139 661.516 791.336 639.387 782.597C636.089 781.295 631.361 781.11 628.642 778.831C627.79 778.116 627.459 777.621 627.422 776.475C627.37 774.874 627.604 773.147 628.922 772.051C629.938 771.207 631.374 771.079 632.638 771.228C634.891 771.495 637.205 772.555 639.365 773.266C645.264 775.209 651.291 777.345 657.511 777.919C673.447 779.389 692.315 771.65 702.433 759.212C706.973 753.632 710.21 746.648 713.159 740.127C714.978 736.105 715.471 730.775 718.918 727.875Z" data-index="69"></path><path fill="#98D5D5" d="M712.274 754.855C712.925 758.158 712.642 761.869 712.929 765.255C714.022 778.181 722.284 791.575 731.388 800.492C733.647 802.704 736.294 804.423 738.705 806.458C737.096 806.683 735.488 806.921 733.883 807.171C720.106 809.414 704.651 818.334 694.958 828.244C691.771 831.502 689.298 835.166 686.653 838.852L686.165 838.422C686.098 829.56 685.356 821.279 682.493 812.839C677.969 799.503 670.216 790.845 657.629 784.598C664.463 784.706 670.542 784.259 677.108 782.244C692.54 777.508 704.679 769.295 712.274 754.855Z" data-index="70"></path><path fill="#1B2943" d="M806.11 654.363C807.105 654.744 808.67 655.495 809.394 656.294C810.147 657.125 810.343 657.648 810.205 658.722C809.89 661.173 808.781 663.857 808.116 666.26C806.605 671.714 806.354 677.996 806.98 683.606C808.37 696.058 815.16 707.964 828.072 711.254C832.511 712.385 838.227 712.556 841.871 715.451C842.279 716.29 842.646 716.629 842.479 717.596C842.064 720.004 840.106 720.982 838.239 722.267C835.135 721.483 832.023 720.684 828.853 720.208C807.705 717.029 792.354 728.46 783.581 747.074C781.649 751.172 781.274 756.242 777.418 759.038C777.277 759.139 777.134 759.237 776.992 759.336C775.399 759.545 774.622 759.587 773.132 758.798C772.497 757.831 772.169 757.43 772.159 756.229C772.141 753.808 773.162 750.913 773.793 748.583C775.651 741.721 777.723 735.064 777.073 727.878C775.865 714.494 766.778 704.16 754.238 699.978C750.777 698.824 745.512 698.204 742.716 695.852C742.357 694.992 742.094 694.349 742.19 693.387C742.348 691.797 743.253 690.671 744.762 690.214C749.246 688.858 762.332 695.223 776.187 690.271C799.605 681.901 796.599 660.744 806.11 654.363Z" data-index="71"></path><path fill="#98D5D5" d="M799.963 678.942C800.938 680.139 800.763 684.809 801.066 686.642C802.985 698.264 808.228 706.815 817.733 713.726C817.055 713.81 816.379 713.898 815.702 713.991C804.596 715.536 796.106 720.485 788.527 728.568C787.016 730.18 785.735 732.645 784.182 734.045C783.943 734.26 783.638 734.386 783.365 734.557C783.224 728.665 782.78 722.893 780.775 717.31C777.86 709.195 772.215 702.463 764.404 698.72C766.463 698.669 768.515 698.475 770.547 698.14C783.176 696.123 792.622 689.156 799.963 678.942Z" data-index="72"></path></svg>