<svg xmlns="http://www.w3.org/2000/svg" xmlns:xlink="http://www.w3.org/1999/xlink" width="1024" height="1024" viewBox="0 0 1024 1024"><path fill="#020101" d="M434.725 12.1494C435.556 12.1356 436.38 12.1856 437.208 12.2399C441.588 12.5272 445.481 13.7646 449.177 16.1848C463.631 25.6503 474.725 49.0834 486.453 62.5415C494.287 56.5325 502.072 50.3633 510.243 44.8145C520.261 38.0113 536.323 26.8674 548.841 29.5991C556.042 31.1703 559.741 37.0219 564.64 41.8704C569.558 46.7369 575.848 50.5889 580.286 55.8208C587.327 64.1209 592.009 75.808 598.18 84.9934C604.313 83.9328 610.368 82.3766 616.477 81.1754C625.401 79.4207 640.9 76.3156 649.007 82.0492C653.011 84.8814 655.127 89.7878 658.568 93.2572C662.659 97.3808 667.616 100.839 671.381 105.253C680.679 116.15 681.918 133.578 684.17 147.24C695.865 149.165 708.1 150.758 719.173 155.136C721.687 156.129 723.747 157.553 725.801 159.295C729.454 162.391 732.354 166.335 735.702 169.752C741.684 175.857 750.734 181.569 754.04 189.644C760.21 204.716 747.759 217.724 742.173 230.867L741.911 231.493C749.001 234.435 756.833 237.179 763.124 241.621C767.322 244.586 770.735 248.674 774.472 252.177C776.969 254.518 779.717 256.601 782.312 258.833C788.601 264.242 794.944 270.348 795.428 279.207C796.198 293.289 782.77 303.98 773.85 313.054C769.002 318.041 764.232 323.105 759.543 328.243C771.812 340.353 787.667 349.767 798.362 363.41C802.503 368.693 805.394 374.903 804.38 381.777C801.64 400.34 771.156 413.205 757.416 423.63L756.926 424.009L757.109 424.45C763.413 439.961 783.312 461.359 784.887 476.699C785.301 480.732 784.616 484.434 781.938 487.578C773.286 497.736 745.728 499.484 732.889 500.507C746.167 515.149 758.572 530.43 772.166 544.834C810.701 585.396 852.914 622.298 898.262 655.066C916.617 668.178 936.18 680.454 955.827 691.549C962.513 695.325 988.686 706.62 991.348 710.108C992.169 711.182 992.199 711.668 992.016 712.971C990.694 714.46 989.258 714.948 987.331 715.371C979.678 717.052 968.164 716.93 960.151 717.419C936.028 718.89 911.88 719.382 887.73 720.148C872.324 720.637 853.81 720.463 838.794 723.712C838.623 723.749 838.453 723.79 838.282 723.829C835.518 756.19 836.804 788.769 842.11 820.811C843.494 829.4 845.797 837.785 847.275 846.338C847.617 848.321 848.317 851.145 847.083 852.896C846.253 853.339 845.776 853.461 844.808 853.457C838.316 853.432 819.87 843.967 813.816 840.593C764.333 813.016 723.961 773.468 685.364 732.578C652.16 697.402 620.887 660.677 589.332 624.037L574.376 619.427C567.576 628.521 562.071 639.398 557.163 649.626C573.34 713.852 590.377 777.858 608.271 841.627C615.926 869.085 623.742 896.498 631.717 923.865C634.857 934.505 649.899 979.364 649.675 986.498C647.65 988.447 644.57 986.494 642.36 985.385C633.056 980.715 624.021 975.011 614.957 969.868C595.118 958.381 575.134 947.146 555.009 936.166C546.045 931.273 537.071 925.863 527.707 921.782C523.937 920.138 519.413 918.258 515.246 918.165C512.53 918.105 509.816 918.787 507.606 920.404C498.442 927.105 486.769 942.932 479.182 951.958C463.738 970.534 448.119 988.964 432.327 1007.25C429.81 1010.21 424.167 1018.59 421.443 1020.42C421.149 1020.62 420.75 1020.57 420.403 1020.64C419.724 1020.25 419.036 1019.9 418.642 1019.18C416.674 1015.59 414.273 954.505 413.611 944.86C409.412 878.647 402.119 812.666 391.757 747.134C390.239 737.492 379.68 684.488 380.842 679.707C381.8 678.623 382.394 678.622 383.762 678.236C380.492 674.717 376.676 670.413 372.529 667.975C357.17 675.544 336.526 693.915 320.575 697.557C317.655 698.224 314.562 698.37 311.668 697.492C307.537 696.239 291.88 686.209 287.284 683.339C273.119 674.496 269.546 660.575 265.916 645.154C251.941 649.139 236.978 655.308 222.231 654.506C219.499 654.358 217.317 653.67 214.927 652.322C208.779 648.857 190.913 634.7 186.161 629.303C177.035 618.94 180.651 599.01 181.521 586.224C173.522 586.841 152.409 587.08 145.648 583.942C135.337 579.157 128.511 571.247 119.903 564.297C116.109 561.233 111.68 558.796 108.212 555.354C106.819 553.972 105.766 552.091 105.116 550.251C100.347 536.747 116.009 509.133 121.841 496.464C114.385 492.484 105.945 490.665 98.3785 486.865C90.9482 483.133 86.7553 475.957 80.595 470.709C77.561 468.124 73.8443 466.374 70.9881 463.565C69.3826 461.986 68.0302 460.085 67.3879 457.907C66.4109 454.595 67.0034 451.113 68.3788 448.007C73.7995 435.768 90.8186 420.558 98.2799 407.028C98.3879 406.832 98.4917 406.634 98.5977 406.437C92.0962 402.969 85.6636 399.429 79.7671 394.975C74.6346 391.098 69.9349 386.639 64.767 382.824C61.1872 380.18 56.9229 378.042 53.8566 374.8C51.1636 371.953 49.4425 368.54 49.609 364.558C50.1297 352.101 70.2534 337.979 79.0768 330.572C84.0232 326.449 88.8226 322.153 93.4662 317.692C83.9527 304.726 68.2598 290.77 61.3034 276.678C59.1453 272.306 58.1351 267.392 59.865 262.697C65.6842 246.903 111.521 236.682 126.617 230.002C122.27 213.167 112.044 197.165 110.354 179.699C109.834 174.33 110.461 168.783 114.132 164.57C117.172 161.082 121.536 159.132 125.977 158.14C135.003 156.123 145.074 156.964 154.292 156.97C164.98 156.978 175.788 156.853 186.452 156.137C186.47 138.876 185.022 119.4 189.344 102.596C191.016 96.0951 193.943 89.3546 200.058 85.9029C216.073 76.8625 257.002 95.1843 274.016 100.357C281.977 84.4305 288.305 67.4467 298.026 52.4647C302.582 45.4432 308.317 38.032 317.029 36.3515C321.501 35.489 326.064 36.2288 330.311 37.7433C346.379 43.474 365.749 60.545 380.505 70.3299C389.857 58.8172 396.931 45.2769 406.005 33.455C413.425 23.7892 422.036 13.8267 434.725 12.1494Z" data-index="1" style="opacity: 1;"></path><path fill="#E3D3F8" d="M434.421 18.5874C435.44 18.4986 436.465 18.499 437.484 18.5885C452.009 19.9253 474.267 59.7456 484.121 71.3432L484.578 71.877C491.104 68.6445 496.997 63.2264 502.743 58.7461C510.912 52.3764 519.28 46.2673 528.426 41.3499C534.001 38.3521 542.041 34.3908 548.443 36.5381C551.497 37.5622 553.886 40.1224 555.472 42.8404C557.977 47.1351 559.131 52.2415 560.527 56.9818C563.002 65.5837 565.621 74.1432 568.384 82.6567C569.551 86.2244 570.508 90.2175 572.242 93.5411C572.635 94.2953 573.533 95.6937 574.321 96.0768C580.979 99.3138 627.584 81.4463 642.37 86.3472C645.529 87.3945 647.609 89.8804 648.773 92.9256C652.216 101.933 650.595 126.337 650.553 136.499C650.54 139.708 650.008 145.091 651.897 147.804C654.598 151.684 682.581 154.417 689.002 155.384C697.694 156.693 717.844 158.856 722.894 166.293C731.596 179.111 704.192 209.498 702.08 221.898C702.646 223.449 703.506 224.185 704.939 225.001C708.633 227.105 713.125 228.342 717.124 229.828C727.997 233.866 748.652 240.547 757.793 246.281C760.246 247.82 762.384 249.75 762.963 252.704C763.74 256.664 761.433 261.928 759.376 265.189C750.782 278.812 733.768 291.228 725.064 305.353C724.959 305.523 724.86 305.695 724.757 305.867C733.815 316.4 768.504 341.902 770.893 352.398C775.036 370.607 746.772 383.342 733.978 390.509C730.343 392.545 725.244 394.482 723.066 398.141C722.809 399.661 723.23 400.649 723.988 401.944C726.031 405.43 728.819 408.68 731.239 411.917C738.303 421.369 746.644 431.724 751.587 442.496C753.637 446.963 754.986 452.352 753.077 457.097C751.911 459.997 749.81 462.06 747.157 463.634C736.678 469.852 712.734 473.068 700.031 475.47C696.382 476.16 691.544 476.531 688.256 478.248C687.063 478.87 686.637 479.284 686.617 480.681C686.575 483.648 688.242 487.43 689.142 490.26C692.484 500.77 699.659 518.866 696.296 529.773C690.456 548.713 655.018 545.899 639.587 545.611C635.366 545.533 627.984 544.526 624.352 546.781C623.376 547.387 622.9 549.019 622.681 550.09C621.944 553.706 621.981 557.672 621.723 561.37C621.179 569.151 620.692 577.025 619.513 584.739C618.279 592.815 615.939 602.55 608.815 607.485C593.946 617.785 558.954 599.483 542.451 596.688C542.243 596.653 542.033 596.623 541.825 596.591C538.906 600.718 536.744 605.561 534.333 610.017C528.179 621.392 521.943 633.871 513.994 644.11C490.197 674.763 464.617 627.189 444.736 628.67C427.532 629.951 414.127 663.743 397.539 671.063C395.453 671.984 393.181 672.208 390.94 672.483C386.543 669.376 382.587 665.669 378.922 661.732C373.402 655.804 360.743 638.188 354.086 635.788C351.402 634.821 348.597 636.594 346.286 637.795C328.972 649.893 305.888 666.726 286.507 674.43C269.868 661.124 273.4 622.202 262.491 612.079C253.879 608.723 223.578 619.38 213.075 622.024C205.996 623.806 199.05 625.299 191.777 626.102C182.664 611.635 190.988 589.729 189.449 573.673C189.282 571.936 189.158 569.487 187.322 568.684C185.164 567.741 180.137 568.647 177.775 568.776C167.799 569.322 144.07 570.282 135.277 567.324C131.759 566.141 129.369 564.288 126.548 561.98C139.017 562.272 151.522 561.747 163.997 561.742C170.42 561.74 177.008 562.518 183.393 562.119C184.335 561.36 185.04 560.679 185.199 559.393C185.293 558.641 185.256 558.041 184.819 557.418C184.22 556.564 183.541 556.059 182.539 555.795C178.8 554.809 173.566 555.329 169.668 555.335L141.1 555.582C135.366 555.633 129.171 556.107 123.514 555.155C119.663 554.507 115.745 553.029 113.489 549.649C106.727 539.521 123.078 510.28 128.331 500.085C130.643 495.599 134.117 490.228 135.009 485.239C135.266 483.796 134.809 482.727 133.695 481.752C130.573 479.021 125.461 477.735 121.595 476.312C113.288 473.254 79.1682 463.093 75.3195 457.384C73.9498 455.353 74.3662 452.714 75.2135 450.563C80.1791 437.959 104.822 416.059 107.422 403.904C106.77 397.642 63.9709 378.441 57.4641 368.394C49.3475 355.861 100.987 326.625 101.489 318.342C101.577 316.906 100.512 315.307 99.7278 314.176C91.1396 301.8 78.2855 290.548 69.7078 277.475C67.4994 274.11 65.0854 269.732 66.1006 265.57C69.2944 252.475 121.717 241.789 134.152 233.798C134.341 233.677 134.527 233.551 134.715 233.427C131.069 218.232 123.69 204.153 119.553 189.079C118.197 184.138 115.754 174.943 118.646 170.31C126.167 158.264 175.428 166.717 190.416 162.841C191.955 162.443 192.829 161.849 193.284 160.301C194.439 156.377 193.736 151.081 193.656 146.989C193.387 133.291 191.724 107.965 198.643 96.6268C200.819 93.0595 204.274 90.744 208.406 90.0606C221.144 87.9537 251.317 99.8354 264.567 104.13C268.16 105.295 274.21 107.91 277.898 106.953C282.244 102.957 294.841 72.0289 299.911 62.9594C303.915 55.7967 309.675 45.0379 318.312 42.8715C332.228 39.3806 365.082 69.3545 377.963 76.2512C379.366 77.0023 381.48 78.0633 383.021 77.2192C386.645 75.234 389.589 69.1876 391.869 65.7147C401.297 51.3533 417.763 23.6347 434.421 18.5874Z" data-index="2"></path><path fill="#020101" d="M440.228 89.7083C451.618 88.7275 463.78 89.2192 475.197 89.9397C524.802 93.0705 571.981 108.872 610.573 140.837C653.926 176.745 683.16 225.639 699.979 278.954C705.736 297.203 710.185 315.549 711.942 334.632C717.223 391.986 701.164 444.979 664.122 489.394C598.849 567.66 498.054 609.895 398.12 618.886C395.15 619.18 392.175 619.409 389.195 619.571C325.547 623.599 266.504 607.657 218.204 564.961C179.411 530.668 144.514 466.163 131.73 416.441C128.258 402.492 126.08 388.254 125.223 373.906C121.346 310.318 144.966 251.057 186.908 203.783C250.25 132.389 346.422 95.1954 440.228 89.7083Z" data-index="3"></path><path fill="#9757CC" d="M440.196 94.7042C447.286 94.0811 454.712 94.364 461.827 94.4364C514.384 94.9714 565.745 111.231 606.681 144.628C659.862 188.017 698.711 263.109 705.57 331.191C711.321 388.284 697.47 440.063 660.855 484.785C639.056 510.95 613.233 533.479 584.354 551.529C527.006 587.992 465.024 606.675 397.702 613.419C384.889 613.878 372.316 614.847 359.465 614.389C309.408 612.607 262.37 596.041 224.376 562.967C186.1 529.649 152.624 469.547 139.118 421.064C134.867 405.755 132.237 390.041 131.27 374.182C127.224 313.996 148.848 255.593 188.395 210.365C251.373 138.338 346.234 101.097 440.196 94.7042Z" data-index="4"></path><path fill="#020101" d="M437.889 113.219C446.502 112.607 455.38 112.861 464 113.214C507.663 115.002 547.422 127.993 582.44 154.433C632.787 192.447 668.729 261.69 677.229 323.615C682.152 359.479 678.555 400.025 664.225 433.485C656.778 450.875 646.265 467.119 634.836 482.132C624.253 496.033 612.35 508.636 598.603 519.445C557.435 551.819 492.024 575.95 441.021 587.354C428.328 590.192 415.5 592.122 402.618 593.873C395.066 594.734 387.488 595.368 379.897 595.771C328.059 598.409 277.298 580.338 238.789 545.535C227.012 534.777 215.869 522.398 206.835 509.237C179.124 468.863 164.182 416.977 162.054 368.347C159.459 309.063 178.219 255.522 218.436 211.659C271.709 153.556 359.724 116.628 437.889 113.219Z" data-index="5"></path><path fill="white" d="M448.748 118.233C498.315 116.596 546.959 132.025 585.271 163.693C618.97 191.548 641.82 230.122 657.162 270.585C664.866 290.903 670.824 311.802 672.876 333.513C678.004 387.404 661.15 441.082 626.138 482.37C572.51 546.764 474.208 581.645 392.879 589.161C387.849 589.798 382.533 589.796 377.462 589.932C325.594 591.815 275.191 572.522 237.837 536.487C191.626 492.648 169.178 424.277 167.676 361.74C166.358 306.868 185.453 254.147 223.506 214.292C280.869 154.211 366.191 120.073 448.748 118.233Z" data-index="6"></path><path fill="#020101" d="M464.382 177.471C465.404 177.869 466.037 178.39 466.862 179.105C467.137 179.695 467.252 179.84 467.321 180.58C467.561 183.152 466.442 187.184 466.139 189.857C465.608 194.726 465.359 199.622 465.392 204.52C465.537 214.879 467.018 225.501 469.123 235.638C470.259 241.108 477.915 265.418 477.26 268.032C477.216 268.21 476.862 269.003 476.631 269.167C475.316 270.096 457.566 271.232 453.937 271.785C434.721 274.713 415.862 281.453 398.292 289.605C397.125 296.263 396.689 303.046 396.531 309.796C402.906 305.918 409.284 301.756 416.037 298.563C434.879 289.653 458.125 289.037 477.62 296.147C500.246 304.4 516.55 323.128 526.481 344.56C536.477 366.132 539.13 391.421 530.817 413.967C520.235 442.666 490.077 465.976 462.922 478.455C439.608 489.169 401.814 497.366 377.241 488.333C376.609 485.325 376.4 482.177 376.063 479.12C375.211 470.929 369.527 433.36 371.038 428.429C371.767 426.051 388.253 431.007 390.461 431.404C402.983 433.66 416.629 430.232 427.778 424.4C436.82 419.671 445.712 412.141 448.621 401.98C450.569 395.175 449.18 388.346 445.699 382.299C427.253 350.258 388.916 367.071 363.717 380.422C359.64 382.582 348.453 390.422 344.16 389.301C342.687 387.514 341.932 385.417 341.236 383.232C332.301 355.172 325.012 326.586 316.651 298.351C313.42 287.441 310.302 276.466 306.799 265.641C305.151 260.547 302.91 255.51 301.513 250.369C301.014 248.531 300.759 246.854 300.775 244.95C302.779 241.691 449.305 183.695 464.382 177.471Z" data-index="7"></path><path fill="#636363" d="M459.595 184.97L460.617 185.02C460.956 186.02 460.56 211.267 461.001 216.002C462.558 232.719 466.666 248.355 471.586 264.358C443.966 266.372 417.58 274.697 392.951 287.087C392.216 293.575 390.13 309.065 391.89 314.805C392.278 316.071 392.632 316.528 393.779 317.134C396.892 316.936 401.331 312.944 404.074 311.197C423.031 299.12 444.395 293.288 466.715 298.338C487.251 302.985 503.884 316.493 514.908 334.184C527.559 354.486 534.232 379.774 528.659 403.448C522.126 431.198 499.539 451.378 476.221 465.924C450.335 482.071 412.119 491.744 381.927 484.722L381.312 480.063C379.478 464.4 377.793 448.72 376.256 433.026C394.558 438.402 411.77 437.733 429.035 429.131C439.447 423.943 449.073 415.517 452.784 404.182C455.337 396.384 454.582 388.162 450.845 380.898C445.943 371.373 436.85 363.738 426.598 360.619C401.572 353.005 368.468 372.34 346.723 383.796C332.674 338.516 321.53 292.401 306.035 247.558C322.368 239.696 339.628 233.269 356.378 226.315C390.597 212.071 425.006 198.288 459.595 184.97Z" data-index="8"></path><path fill="white" d="M447.458 313.921C455.15 313.811 463.809 317.407 470.136 321.584C483.174 330.191 492.223 344.903 495.264 360.087C499.559 381.532 493.664 403.727 481.521 421.688C468.126 441.501 447.356 452.87 424.219 457.372C423.045 457.376 422.259 457.194 421.183 456.768C420.01 456.303 420.059 456.349 419.556 455.204C420.19 451.114 427.149 449.255 430.485 448.42C449.706 443.61 467.614 430.79 477.989 413.842C488.048 397.412 492.186 377.18 487.489 358.338C483.725 343.24 473.576 329.95 459.009 323.911C455.178 322.322 449.65 321.739 446.273 319.585C445.457 319.064 445.608 318.702 445.391 317.804C445.786 316.15 446.41 315.245 447.458 313.921Z" data-index="9"></path><path fill="white" d="M433.076 216.043C433.348 216.001 433.62 215.951 433.894 215.917C435.288 215.743 436.912 216.198 437.92 217.197C438.519 217.792 438.311 218.355 438.328 219.141C437.375 221.376 435.516 222.667 433.367 223.695C427.935 226.292 421.287 227.899 415.604 230.145C397.304 237.353 379.123 244.862 361.07 252.668C352.965 256.195 344.276 259.417 336.664 263.901C339.67 280.194 343.766 296.342 347.751 312.417C349.728 320.39 352.826 329.261 353.499 337.432C352.912 338.819 352.221 339.097 351.014 339.961C349.391 339.928 348.206 339.938 346.985 338.713C346.011 337.735 345.395 335.625 345.013 334.341C343.851 330.431 343.573 326.071 342.63 322.066C340.192 311.718 328.329 267.995 329.28 260.047C333.214 255.812 402.407 227.334 411.438 223.788C418.561 220.963 425.778 218.379 433.076 216.043Z" data-index="10"></path><path fill="#020101" d="M535.561 185.478C535.606 185.495 535.65 185.513 535.696 185.529C542.696 187.984 558.097 203.228 564.065 208.897C570.834 206.436 589.239 199.612 595.598 199.426C597.228 199.378 598.065 199.725 599.247 200.808C601.079 206.46 587.792 226.54 585.068 233.083L584.83 233.67C589.44 240.969 601.018 252.712 602.678 260.456C602.483 261.224 602.561 261.621 601.871 262.119C597.497 265.269 576.518 260.889 570.387 260C569.255 259.791 566.945 259.162 565.898 259.701C561.815 261.801 547.985 284.502 542.187 285.699C540.848 285.975 540.545 285.751 539.426 285.117C536.427 280.834 534.919 261.49 534.051 255.107C528.505 253.059 504.835 246.941 502.513 243.59C502.05 242.921 501.759 242.395 501.917 241.581C502.703 237.546 527.123 223.638 531.978 220.661C532.403 213.588 530.365 192.387 532.142 187.928C532.675 186.591 534.335 186.054 535.561 185.478Z" data-index="11"></path><path fill="#CB9CEB" d="M536.134 190.265C540.735 194.177 545.226 198.272 549.891 202.099L551.759 203.784C555.451 207.024 559.775 210.299 562.736 214.227L569.281 211.746C577.61 208.776 586.228 205.966 594.857 204.021C593.081 207.62 591.249 211.191 589.361 214.732C588.003 217.19 586.715 219.756 585.233 222.136C584.035 226.085 581.238 230.174 579.467 234C585.699 242.565 592.168 250.991 598.061 259.793C586.535 258.477 575.012 256.339 563.495 254.812C557.584 264.218 549.287 273.025 542.128 281.561C540.273 271.854 538.766 261.031 538.407 251.177C527.388 248.791 516.601 245.258 505.814 242.004C515.801 234.683 527.345 229.801 536.635 221.442C536.294 214.905 536.461 208.262 536.403 201.712L536.134 190.265Z" data-index="12"></path><path fill="#CFA6F7" d="M551.759 203.784C555.451 207.024 559.775 210.299 562.736 214.227C562.147 215.519 562.072 216.203 562.701 217.546C563.127 218.456 563.735 219.254 564.418 219.982C563.07 221.093 563.134 221.49 562.709 223.132C561.633 223.058 561.033 222.147 560.255 221.428C559.788 222.453 559.676 222.982 558.785 223.684C558.436 223.013 558.064 222.381 557.654 221.745C557.21 222.831 557.434 222.835 556.298 223.394C555.385 222.692 555.177 222.295 554.841 221.199L555.896 220.215C555.65 217.029 552.948 212.593 551.179 209.904L550.922 209.52C552.359 207.698 551.962 205.972 551.759 203.784Z" data-index="13"></path><path fill="#CFA6F7" d="M536.134 190.265C540.735 194.177 545.226 198.272 549.891 202.099L548.222 203.181L547.458 202.918L546.799 201.689L545.884 201.805C545.592 202.266 545.09 202.917 544.898 203.418L545.408 207.131L544.428 207.313L544.436 209.312L542.178 208.917C541.699 208.663 541.219 208.402 540.782 208.079C539.22 206.927 538.989 205.148 538.706 203.367L536.403 201.712L536.134 190.265Z" data-index="14"></path><path fill="#CB9CEB" d="M544.428 207.313L542.72 205.85C542.348 204.642 542.278 204.515 542.654 203.322C543.861 202.845 543.751 203.029 544.898 203.418L545.408 207.131L544.428 207.313Z" data-index="15"></path><path fill="#C288E5" d="M538.706 203.367L540.327 201.989L540.735 202.256C540.386 205.678 540.957 205.974 542.178 208.917C541.699 208.663 541.219 208.402 540.782 208.079C539.22 206.927 538.989 205.148 538.706 203.367Z" data-index="16"></path><path fill="#E3D3F8" d="M562.736 214.227L569.281 211.746C569.649 212.978 570.03 214.163 570.504 215.36C570.209 216.637 569.931 217.169 569.028 218.118C568.172 218.435 567.323 218.73 566.46 219.026C565.723 219.278 565.985 219.193 565.253 219.847L564.418 219.982C563.735 219.254 563.127 218.456 562.701 217.546C562.072 216.203 562.147 215.519 562.736 214.227Z" data-index="17"></path><path fill="#C288E5" d="M585.233 222.136C584.99 221.403 584.956 220.954 584.959 220.165C584.967 218.506 584.296 216.621 584.685 215.037C584.848 214.371 584.862 214.548 585.518 214.199C586.602 214.538 587.539 214.859 588.696 214.806C588.919 214.796 589.139 214.757 589.361 214.732C588.003 217.19 586.715 219.756 585.233 222.136Z" data-index="18"></path><path fill="#E3D3F8" d="M549.891 202.099L551.759 203.784C551.962 205.972 552.359 207.698 550.922 209.52L549.204 207.928C549.098 206.361 548.582 204.717 548.222 203.181L549.891 202.099Z" data-index="19"></path><path fill="#C288E5" d="M545.408 207.131C546.353 208.545 547.8 210.206 547.813 211.94C547.239 212.575 547.089 212.537 546.311 212.795C545.291 212.485 544.782 212.255 544.025 211.497L544.436 209.312L544.428 207.313L545.408 207.131Z" data-index="20"></path><path fill="#C288E5" d="M547.458 202.918L548.222 203.181C548.582 204.717 549.098 206.361 549.204 207.928L548.659 207.647C547.728 206.2 547.672 204.584 547.458 202.918Z" data-index="21"></path><path fill="#020101" d="M215.465 331.476C215.93 331.456 216.394 331.428 216.859 331.428C221.762 331.429 238.028 347.828 242.224 351.906C248.208 350.169 272.856 343.077 278.018 344.742C279.362 345.175 279.475 345.386 280.071 346.561C278.821 352.856 268.61 368.288 264.894 374.9C267.887 381.032 279.335 399.191 279.65 403.948C279.35 404.713 279.303 405.29 278.587 405.774C274.571 408.483 252.21 403.67 246.128 402.73C245.229 402.605 243.742 402.295 242.898 402.756C237.9 405.482 228.711 422.166 221.991 426.547C220.81 427.316 220.049 427.459 218.703 427.122C213.529 422.279 212.187 403.191 211.165 395.93C206.557 394.645 182.782 386.607 180.771 383.512C180.112 382.498 180.004 381.33 180.478 380.215C182.43 375.62 203.898 364.869 209.276 362.463C210.892 354.398 210.628 341.523 213.286 334.417C213.724 333.246 214.599 332.348 215.465 331.476Z" data-index="22"></path><path fill="#C288E5" d="M217.905 336.597C225.587 342.532 233.449 349.769 239.903 357.04L243.924 356.201C246.094 355.607 248.311 355.14 250.5 354.622L255.16 353.433L273.507 349.451L269.732 356.315L268.914 357.657L267.073 360.814L264.38 365.537L263.374 367.333L262.164 369.487L260.906 371.336C260.356 372.375 259.743 373.411 259.262 374.482L260.216 377.258L261.436 378.946L265.212 385.777L265.881 387.393C266.771 388.707 267.567 389.98 268.271 391.403L269.959 394.331C270.55 395.26 271.162 396.18 271.728 397.124L272.145 398.461C272.29 398.645 272.451 398.816 272.579 399.011C273.206 399.968 273.583 400.769 273.262 401.847C266.844 402.03 249.883 398.894 243.228 397.154L241.164 397.868L239.61 399.119L236.922 402.642L235.439 404.55L233.465 406.983L232.882 407.41L229.544 411.212L228.405 412.401C225.815 415.663 223.209 418.833 220.356 421.869C219.626 418.312 218.976 414.738 218.407 411.151L218.321 410.453C217.633 407.857 217.344 405.003 216.907 402.344L216.715 401.227L215.224 392.957C205.443 388.651 195.391 385.111 185.273 381.69L188.923 379.592L192.108 377.77L195.026 376.184L198.789 374.101L201.86 372.291L205.142 370.372L207.948 368.782L210.447 367.469C212.106 366.724 213.387 366.219 214.537 364.773L214.172 362.631L214.711 361.405L215.105 358.597C215.311 357.246 215.546 355.923 215.831 354.587L215.892 352.578L216.438 347.821L216.446 345.985L216.83 343.671L217.905 336.597Z" data-index="23"></path><defs><linearGradient id="gradient_0" gradientUnits="userSpaceOnUse" x1="233.85323" y1="384.1749" x2="230.01756" y2="394.34225"><stop offset="0" stop-color="#B17BE2"></stop><stop offset="1" stop-color="#F2BFFF"></stop></linearGradient></defs><path fill="url(#gradient_0)" d="M195.026 376.184L198.789 374.101C211.453 377.867 223.771 382.856 236.4 386.823C244.508 389.37 252.63 392.074 260.8 394.407C264.397 395.435 268.202 395.909 271.728 397.124L272.145 398.461C272.29 398.645 272.451 398.816 272.579 399.011C273.206 399.968 273.583 400.769 273.262 401.847C266.844 402.03 249.883 398.894 243.228 397.154L241.164 397.868L239.61 399.119L236.922 402.642L235.439 404.55L233.465 406.983L232.882 407.41L229.544 411.212L228.405 412.401C225.815 415.663 223.209 418.833 220.356 421.869C219.626 418.312 218.976 414.738 218.407 411.151L218.321 410.453C217.633 407.857 217.344 405.003 216.907 402.344L216.715 401.227L215.224 392.957C205.443 388.651 195.391 385.111 185.273 381.69L188.923 379.592L192.108 377.77L195.026 376.184Z" data-index="24"></path><path fill="#C288E5" d="M215.224 392.957C222.526 395.35 231.993 400.072 239.61 399.119L236.922 402.642L235.439 404.55L233.465 406.983L232.882 407.41L229.544 411.212L228.405 412.401C225.815 415.663 223.209 418.833 220.356 421.869C219.626 418.312 218.976 414.738 218.407 411.151L218.321 410.453C217.633 407.857 217.344 405.003 216.907 402.344L216.715 401.227L215.224 392.957Z" data-index="25"></path><path fill="#CFA6F7" d="M216.907 402.344C219.755 403.584 223.53 404.654 226.099 406.292C228.361 407.015 230.507 407.356 232.882 407.41L229.544 411.212L228.405 412.401C225.815 415.663 223.209 418.833 220.356 421.869C219.626 418.312 218.976 414.738 218.407 411.151L218.321 410.453C217.633 407.857 217.344 405.003 216.907 402.344Z" data-index="26"></path><path fill="#CB9CEB" d="M218.407 411.151C221.703 411.995 224.991 412.531 228.405 412.401C225.815 415.663 223.209 418.833 220.356 421.869C219.626 418.312 218.976 414.738 218.407 411.151Z" data-index="27"></path><path fill="#CB9CEB" d="M216.907 402.344C219.755 403.584 223.53 404.654 226.099 406.292C225.571 407.219 225.507 407.651 224.389 407.916C222.638 408.333 220.522 407.394 218.953 408.181L218.321 410.453C217.633 407.857 217.344 405.003 216.907 402.344Z" data-index="28"></path><path fill="#C288E5" d="M218.953 408.181C220.522 407.394 222.638 408.333 224.389 407.916C225.507 407.651 225.571 407.219 226.099 406.292C228.361 407.015 230.507 407.356 232.882 407.41L229.544 411.212C226.961 408.031 222.294 409.917 218.953 408.181Z" data-index="29"></path><path fill="#E3D3F8" d="M235.439 404.55C229.341 402.284 222.893 400.808 216.969 398.125L216.571 396.89L217.07 396.547C219.556 396.699 235.451 401.24 236.922 402.642L235.439 404.55Z" data-index="30"></path><path fill="#E3D3F8" d="M216.715 401.227C217.139 401.057 217.53 400.712 217.988 400.716C219.914 400.732 229.055 404.711 231.628 405.628C232.529 405.95 232.927 406.182 233.465 406.983L232.882 407.41C230.507 407.356 228.361 407.015 226.099 406.292C223.53 404.654 219.755 403.584 216.907 402.344L216.715 401.227Z" data-index="31"></path><path fill="#E3D3F8" d="M195.026 376.184L198.789 374.101C211.453 377.867 223.771 382.856 236.4 386.823C244.508 389.37 252.63 392.074 260.8 394.407C264.397 395.435 268.202 395.909 271.728 397.124L272.145 398.461C271.844 398.515 271.542 398.563 271.241 398.621C264.984 399.837 257.188 395.874 251.104 394.246C238.609 390.855 226.308 386.028 214.031 381.883C207.754 379.763 201.263 378.343 195.026 376.184Z" data-index="32"></path><defs><linearGradient id="gradient_1" gradientUnits="userSpaceOnUse" x1="213.76494" y1="386.97678" x2="212.36115" y2="392.5249"><stop offset="0" stop-color="#BD8BEB"></stop><stop offset="1" stop-color="#F4BDFF"></stop></linearGradient></defs><path fill="url(#gradient_1)" d="M185.273 381.69L188.923 379.592C193.018 381.834 198.145 381.569 201.915 383.733C202.236 384.198 202.467 384.739 202.877 385.128C205.206 387.336 233.441 396.552 238.564 397.481C239.426 397.64 240.293 397.769 241.164 397.868L239.61 399.119C231.993 400.072 222.526 395.35 215.224 392.957C205.443 388.651 195.391 385.111 185.273 381.69Z" data-index="33"></path><path fill="#C288E5" d="M192.108 377.77L195.026 376.184C201.263 378.343 207.754 379.763 214.031 381.883C226.308 386.028 238.609 390.855 251.104 394.246C250.563 394.469 250.054 394.797 249.48 394.914C243.369 396.165 202.742 379.246 192.108 377.77Z" data-index="34"></path><path fill="#C288E5" d="M201.915 383.733C215.447 386.248 229.996 392.837 243.228 397.154L241.164 397.868C240.293 397.769 239.426 397.64 238.564 397.481C233.441 396.552 205.206 387.336 202.877 385.128C202.467 384.739 202.236 384.198 201.915 383.733Z" data-index="35"></path><path fill="#CB9CEB" d="M217.905 336.597C225.587 342.532 233.449 349.769 239.903 357.04L243.924 356.201C246.094 355.607 248.311 355.14 250.5 354.622L255.16 353.433L273.507 349.451L269.732 356.315L268.914 357.657L267.073 360.814L264.38 365.537L263.374 367.333L262.164 369.487L260.906 371.336C260.356 372.375 259.743 373.411 259.262 374.482C251.719 370.992 243.365 369.449 235.419 367.138C228.677 365.179 221.721 362.106 214.711 361.405L215.105 358.597C215.311 357.246 215.546 355.923 215.831 354.587L215.892 352.578L216.438 347.821L216.446 345.985L216.83 343.671L217.905 336.597Z" data-index="36"></path><path fill="#C288E5" d="M215.831 354.587C220.847 358.708 253.558 366.442 262.164 369.487L260.906 371.336C260.356 372.375 259.743 373.411 259.262 374.482C251.719 370.992 243.365 369.449 235.419 367.138C228.677 365.179 221.721 362.106 214.711 361.405L215.105 358.597C215.311 357.246 215.546 355.923 215.831 354.587Z" data-index="37"></path><path fill="#E3D3F8" d="M215.105 358.597C223.831 359.451 233.195 364.269 241.655 366.74C246.059 368.027 258.148 370.094 260.906 371.336C260.356 372.375 259.743 373.411 259.262 374.482C251.719 370.992 243.365 369.449 235.419 367.138C228.677 365.179 221.721 362.106 214.711 361.405L215.105 358.597Z" data-index="38"></path><path fill="#CFA6F7" d="M217.905 336.597C225.587 342.532 233.449 349.769 239.903 357.04L243.924 356.201C245.238 356.995 246.747 357.467 248.096 358.244L244.664 358.233L244.106 359.265L245.212 359.519L245.205 359.952C243.39 359.789 241.349 359.597 239.975 358.276C237.648 356.04 231.092 355.032 227.916 354.084C226.689 353.327 225.761 352.86 225.142 351.483C221.793 350.871 219.362 349.489 216.438 347.821L216.446 345.985L216.83 343.671L217.905 336.597Z" data-index="39"></path><path fill="#E3D3F8" d="M216.446 345.985C220.396 347.496 224.25 349.425 228.323 350.561L228.74 351.488C227.613 352.099 226.394 351.647 225.142 351.483C221.793 350.871 219.362 349.489 216.438 347.821L216.446 345.985Z" data-index="40"></path><path fill="#C288E5" d="M216.83 343.671C219.742 345.664 226.998 347.93 228.304 350.445C228.322 350.48 228.317 350.522 228.323 350.561C224.25 349.425 220.396 347.496 216.446 345.985L216.83 343.671Z" data-index="41"></path><path fill="#E3D3F8" d="M215.892 352.578C217.096 353.037 218.264 353.537 219.439 354.064C227.342 356.116 234.288 359.917 242.334 361.801C249.356 363.567 256.32 365.736 263.374 367.333L262.164 369.487C253.558 366.442 220.847 358.708 215.831 354.587L215.892 352.578Z" data-index="42"></path><path fill="#CFA6F7" d="M255.16 353.433L273.507 349.451L269.732 356.315L268.914 357.657C264.872 356.87 260.914 355.92 256.937 354.858L255.16 353.433Z" data-index="43"></path><path fill="#C288E5" d="M256.937 354.858C260.926 353.127 265.588 355.707 269.732 356.315L268.914 357.657C264.872 356.87 260.914 355.92 256.937 354.858Z" data-index="44"></path><path fill="#C288E5" d="M242.334 361.801C250.429 359.012 256.764 363.469 264.38 365.537L263.374 367.333C256.32 365.736 249.356 363.567 242.334 361.801Z" data-index="45"></path><path fill="#E3D3F8" d="M250.5 354.622L255.16 353.433L256.937 354.858C260.914 355.92 264.872 356.87 268.914 357.657L267.073 360.814C263.984 360.007 253.003 356.163 250.5 354.622Z" data-index="46"></path><path fill="#C288E5" d="M214.711 361.405C221.721 362.106 228.677 365.179 235.419 367.138C243.365 369.449 251.719 370.992 259.262 374.482L260.216 377.258L261.436 378.946L265.212 385.777C259.515 384.374 254.373 381.366 248.856 379.41C236.289 374.955 223.232 371.254 210.447 367.469C212.106 366.724 213.387 366.219 214.537 364.773L214.172 362.631L214.711 361.405Z" data-index="47"></path><path fill="#C288E5" d="M214.711 361.405C221.721 362.106 228.677 365.179 235.419 367.138C243.365 369.449 251.719 370.992 259.262 374.482L260.216 377.258C256.499 376.812 252.393 374.986 248.788 373.885C242.196 371.872 235.449 370.164 228.994 367.741C224.496 366.052 218.93 362.991 214.172 362.631L214.711 361.405Z" data-index="48"></path><path fill="#E3D3F8" d="M214.172 362.631C218.93 362.991 224.496 366.052 228.994 367.741C235.449 370.164 242.196 371.872 248.788 373.885C252.393 374.986 256.499 376.812 260.216 377.258L261.436 378.946C261.21 379.071 260.996 379.221 260.759 379.321C257.626 380.637 219.287 366.849 214.537 364.773L214.172 362.631Z" data-index="49"></path><path fill="#C288E5" d="M207.948 368.782L210.447 367.469C223.232 371.254 236.289 374.955 248.856 379.41C254.373 381.366 259.515 384.374 265.212 385.777L265.881 387.393C266.771 388.707 267.567 389.98 268.271 391.403C257.754 389.629 246.658 384.934 236.541 381.507C226.123 377.979 215.131 374.996 205.142 370.372L207.948 368.782Z" data-index="50"></path><path fill="#E3D3F8" d="M207.948 368.782L210.447 367.469C223.232 371.254 236.289 374.955 248.856 379.41C254.373 381.366 259.515 384.374 265.212 385.777L265.881 387.393L265.074 387.736C261.481 387.191 209.689 369.939 207.948 368.782Z" data-index="51"></path><path fill="#E3D3F8" d="M201.86 372.291L205.142 370.372C215.131 374.996 226.123 377.979 236.541 381.507C246.658 384.934 257.754 389.629 268.271 391.403L269.959 394.331C266.431 394.32 206.128 374.654 201.86 372.291Z" data-index="52"></path><path fill="#020101" d="M458.439 490.317C465.424 493.39 472.286 499.975 478.343 504.699C482.439 503.548 499.942 499.214 503.076 500.236C504.387 500.664 504.487 500.991 505.097 502.13C505.363 507.477 499.22 519.109 497.106 524.735C499.97 530.388 509.422 543.022 510.642 547.47C508.116 553.291 487.452 546.386 482.496 549.293C479.572 552.775 471.262 563.251 467.807 565.089C466.602 565.73 466.112 565.651 464.867 565.212C461.456 561.52 458.858 548.041 457.126 542.624C452.126 540.637 438.393 535.873 434.955 532.534C433.909 531.518 433.876 530.983 433.89 529.575C436.481 524.932 449.24 517.908 454.245 514.836C455.796 506.97 455.622 497.753 458.439 490.317Z" data-index="53"></path><path fill="#9757CC" d="M461.09 497.018C467.421 499.9 472.25 506.168 478.007 510.05C485.323 508.026 492.564 506.105 500.015 504.634C497.266 511.498 494.593 518.391 491.996 525.314C495.525 532.053 500.189 538.479 504.21 544.965C500.459 544.837 483.725 542.748 481.581 543.882C476.523 549.224 471.786 554.886 466.979 560.454C465.071 553.431 463.589 545.662 460.654 539.019C453.923 535.487 446.231 533.356 439.288 530.081C445.636 525.287 452.535 521.18 459.265 516.945C459.581 510.305 460.27 503.613 461.09 497.018Z" data-index="54"></path><path fill="#020101" d="M393.826 527.189C393.986 527.215 394.145 527.243 394.304 527.268C398.004 527.833 405.525 535.877 408.575 538.643C414.08 537.912 419.435 536.16 424.89 535.502C426.292 535.333 426.955 535.423 428.057 536.273C428.844 539.76 422.87 550.022 421.038 553.73C423.549 558.284 426.912 562.854 428.864 567.642C429.367 568.875 429.416 569.505 428.924 570.715C425.479 572.838 413.977 570.533 409.846 569.752C407.427 572.381 400.314 582.195 397.054 582.569C394.523 580.564 392.302 568.389 391.197 564.448C386.933 562.751 381.277 561.176 377.559 558.525C376.377 557.682 376.078 557.21 375.812 555.81C377.363 552.209 387.019 547.429 390.568 545.098C390.944 539.601 391.405 532.093 393.826 527.189Z" data-index="55"></path><path fill="#CB9CEB" d="M396.327 533.622C400.486 536.466 403.984 540.48 407.885 543.704C412.753 542.477 417.696 541.591 422.625 540.652C420.673 544.957 418.303 549.118 416.098 553.3C417.966 557.978 420.981 562.133 422.99 566.777C418.225 566.572 413.543 566.085 408.812 565.528C405.115 567.465 401.601 572.104 398.548 575.041C397.287 570.66 396.297 566.164 395.182 561.741C390.847 559.463 386.061 557.853 381.595 555.788C385.698 553.014 390.263 550.712 394.585 548.285C394.954 543.382 395.691 538.497 396.327 533.622Z" data-index="56"></path><path fill="#020101" d="M532.756 471.171C537.985 471.744 545.025 479.727 549.061 483.31C553.532 482.149 559.582 480.153 564.167 480.253C565.469 480.282 565.956 480.495 566.87 481.385C567.562 485.584 562.645 493.146 561.003 497.288C563.722 501.424 568.882 506.909 570.413 511.463C570.786 512.571 570.639 512.757 570.155 513.745C565.683 515.883 556.343 514.099 551.375 513.799C549.838 515.579 548.371 517.397 546.913 519.242C544.897 521.794 542.197 526.209 538.816 526.602C535.493 524.778 532.98 513.09 531.731 509.215C527.849 507.624 518.221 504.919 516.409 501.37C517.228 497.388 526.727 492.444 530.256 490.096C531.385 483.805 532.08 477.523 532.756 471.171Z" data-index="57"></path><path fill="#CB9CEB" d="M536.257 477.762C540.404 480.863 543.86 485.069 547.959 488.335C552.495 487.101 557.095 486.107 561.677 485.061C559.607 489.433 557.224 493.875 555.985 498.561C558.927 502.116 561.49 506.024 564.141 509.8C560.824 509.578 551.732 508.191 549.092 509.435L539.816 520.78C538.396 516.822 538.033 512.18 536.304 508.406C534.232 503.881 526.906 502.262 522.574 500.546C526.541 497.786 530.642 495.378 534.854 493.022C535.083 487.917 535.551 482.824 536.257 477.762Z" data-index="58"></path><path fill="#020101" d="M589.879 396.409C597.449 399.107 638.308 424.624 640.682 428.892C641.649 430.63 641.274 433.033 640.531 434.769C638.951 438.436 635.941 441.298 632.199 442.69C631.019 442.645 629.819 442.593 628.668 442.307C622.219 440.706 582.241 415.47 579.875 410.171C579.152 408.552 579.411 406.396 580.094 404.818C581.919 400.605 585.849 398.146 589.879 396.409Z" data-index="59"></path><path fill="#9757CC" d="M588.749 400.839C594.948 402.336 631.115 425.729 637.543 431.118C636.237 434.452 634.462 436.371 631.844 438.688C631.707 438.723 631.573 438.772 631.433 438.791C627.829 439.276 590.375 414.958 585.334 410.508C584.22 409.525 583.474 408.705 583.582 407.107C583.766 404.389 586.788 402.28 588.749 400.839Z" data-index="60"></path><path fill="#020101" d="M569.877 418.013C571.879 417.884 574.161 417.709 576.077 418.419C583.326 421.108 627.635 447.719 629.631 453.125C630.182 454.584 630.09 456.209 629.377 457.596C627.917 460.461 625.415 461.727 622.466 462.554C614.669 462.341 573.785 438.799 566.012 433.048C564.455 431.895 562.464 430.52 562.451 428.386C562.429 424.661 567.24 420.236 569.877 418.013Z" data-index="61"></path><path fill="#9757CC" d="M572.716 421.252C580.49 425.538 624.202 450.589 625.742 455.071C625.992 455.799 625.613 456.231 625.341 456.891C624.102 457.975 623.479 458.288 621.871 458.636C621.703 458.591 621.534 458.549 621.367 458.502L620.533 458.257C611.513 455.682 575.087 434.68 567.068 428.54C568.621 425.691 570.311 423.447 572.716 421.252Z" data-index="62"></path><path fill="#020101" d="M280.693 483.113C282.62 483.194 284.657 483.381 286.5 483.964C289.832 485.018 292.946 487.02 294.521 490.23C297.136 495.557 290.036 511.79 288.004 517.537C286.395 522.085 282.23 536.15 279.637 539.289C278.895 540.188 278.18 540.525 277.153 541.015C274.89 540.827 272.674 540.557 270.549 539.714C267.003 538.307 263.881 535.806 262.564 532.119C262.267 531.29 262.152 530.525 262.279 529.652C263.035 524.438 274.408 488.945 276.849 484.987C277.746 483.534 279.17 483.497 280.693 483.113Z" data-index="63"></path><path fill="#9757CC" d="M280.033 487.489C281.492 487.474 282.943 487.466 284.381 487.751C286.676 488.204 289.224 489.221 290.41 491.377C292.465 495.114 279.115 529.533 276.793 535.796C275.786 536.133 274.788 536.191 273.747 536.02C271.524 535.653 268.374 533.809 267.267 531.779C266.647 530.642 266.789 529.586 267.028 528.385C268.049 523.264 270.15 518.049 271.778 513.074L280.033 487.489Z" data-index="64"></path><path fill="#020101" d="M307.766 498.647C310.486 499.113 313.693 499.635 315.983 501.275C318.92 503.378 319.369 506.275 319.916 509.591C316.151 520.124 307.971 544.048 302.3 552.976C301.104 554.86 299.459 555.026 297.429 555.51C294.108 555.667 291.218 555.129 288.371 553.295C286.615 552.164 284.719 549.96 284.54 547.785C284.255 544.309 299.833 503.011 301.918 500.737C303.502 499.01 305.572 498.97 307.766 498.647Z" data-index="65"></path><path fill="#9757CC" d="M305.395 503.558C306.088 503.465 306.783 503.393 307.48 503.343C311.187 503.109 313.263 504.869 315.887 507.2C310.726 522.256 304.877 537.068 298.359 551.588C296.593 551.583 294.981 551.46 293.282 550.937C291.491 550.387 289.876 549.587 289.085 547.79C287.878 545.046 303.225 509.036 305.395 503.558Z" data-index="66"></path><path fill="#020101" d="M605.216 377.48C607.252 377.969 609.113 378.708 610.984 379.632C618.059 383.126 624.914 387.241 631.904 390.928C638.394 394.351 646.162 397.553 652.008 401.945C653.003 402.693 653.773 403.593 654.119 404.821C654.977 407.865 653.459 411.187 651.861 413.705C650.222 416.287 648.785 417.249 645.83 417.935C645.699 417.915 645.568 417.897 645.437 417.874C645.22 417.836 645.004 417.79 644.787 417.752C637.244 416.441 602.643 398.681 598.151 392.734C596.917 391.101 596.503 389.05 596.903 387.054C597.743 382.863 601.788 379.617 605.216 377.48Z" data-index="67"></path><path fill="#9757CC" d="M605.81 381.901C613.272 385.418 620.505 389.772 627.816 393.625C635.289 397.563 643.47 401.217 650.495 405.869C650.142 407.193 649.778 408.525 649.334 409.822C648.604 411.953 647.881 412.967 645.867 413.971C637.052 411.639 614.746 399.474 606.732 394.517C604.441 393.1 601.505 391.47 600.87 388.722C601.621 385.677 603.582 383.96 605.81 381.901Z" data-index="68"></path><path fill="#020101" d="M253.183 468.081C253.883 468.025 254.583 467.989 255.285 467.973C261.474 467.792 266.417 469.643 270.917 473.911C268.977 483.245 266.216 492.385 263.75 501.59C262.134 507.622 260.873 514.542 258.346 520.219C257.742 521.575 256.771 522.664 255.771 523.74C255.105 524.047 254.444 524.367 253.743 524.589C251.264 525.374 249.003 524.613 246.786 523.444C243.918 521.932 241.442 519.425 240.618 516.22C240.258 514.82 240.375 513.486 240.634 512.081C241.766 505.923 250.645 472.067 253.183 468.081Z" data-index="69"></path><path fill="#9757CC" d="M256.331 472.043C257.995 472.244 259.695 472.417 261.33 472.794C262.537 473.071 264.75 473.726 265.291 474.982C266.614 478.054 255.487 515.26 253.037 520.304C249.35 519.568 246.854 517.758 243.987 515.469C246.887 501.806 252.194 485.573 256.331 472.043Z" data-index="70"></path><path fill="#020101" d="M332.865 513.021C336.654 513.397 340.214 514.425 343.442 516.507C345.735 517.986 347.713 520.044 348.206 522.822C348.441 524.146 348.226 525.075 347.681 526.302C345.357 531.537 341.37 536.62 338.239 541.431C333.262 549.079 328.49 557.035 322.973 564.305C321.087 565.136 317.335 564.109 315.436 563.396C311.163 561.789 309.122 558.619 307.437 554.685C307.551 554.408 307.662 554.13 307.78 553.855C310.834 546.705 315.709 539.602 319.586 532.839C322.916 527.03 326.136 519.95 330.251 514.703C330.984 513.768 331.782 513.445 332.865 513.021Z" data-index="71"></path><path fill="#9757CC" d="M334.176 517.283C335.443 517.679 336.756 518.059 337.978 518.577C340.592 519.685 342.522 520.965 343.579 523.656C341.985 529.747 325.672 552.304 321.17 559.285L320.228 559.832C319.146 559.782 318.256 559.727 317.236 559.326C315.224 558.536 313.589 557.668 312.746 555.579C312.527 551.552 331.18 521.704 334.176 517.283Z" data-index="72"></path><path fill="#020101" d="M619.539 293.073C619.69 293.065 620.813 292.988 621.035 293.013C624.536 293.405 658.667 315.652 660.829 318.96C662.285 321.188 662.172 324.372 661.543 326.844C660.466 331.076 658.738 333.798 655.007 336.009C653.865 335.931 652.68 335.838 651.594 335.455C645.616 333.348 615.215 312.173 613.14 307.006C611.865 303.832 612.438 300.659 613.873 297.653C615.18 294.915 616.743 294.022 619.539 293.073Z" data-index="73"></path><path fill="#9757CC" d="M619.708 297.022C621.079 297.463 622.305 297.981 623.577 298.659C627.953 300.992 656.822 319.256 657.458 322.196C658.17 325.484 655.799 329.394 654.158 332.111C645.003 327.584 628.115 315.357 619.933 308.785C618.399 307.552 616.477 306.225 616.398 304.078C616.302 301.459 618.094 298.926 619.708 297.022Z" data-index="74"></path><path fill="#020101" d="M615.875 324.028C617.623 324.191 619.282 324.423 620.885 325.177C624.513 326.883 658.339 348.128 659.531 349.708C660.67 351.217 660.386 354.299 659.997 356.016C659.069 360.111 657.233 363.152 653.666 365.326C652.354 365.57 650.77 365.873 649.443 365.576C643.249 364.188 614.604 343.572 611.039 338.133C609.776 336.211 609.361 333.853 609.892 331.615C610.663 328.236 612.988 325.754 615.875 324.028Z" data-index="75"></path><path fill="#9757CC" d="M617.131 328.417C622.54 330.119 645.686 345.683 652.314 350.034C653.69 350.938 655.975 352.082 656.059 353.878C656.187 356.611 653.841 359.478 652.235 361.443L650.707 361.709C644.117 359.903 627.978 346.947 621.757 342.075C619.677 340.446 614.323 336.537 614.21 333.826C614.115 331.533 615.708 330.007 617.131 328.417Z" data-index="76"></path><path fill="#020101" d="M614.386 354.065C615.93 353.982 617.477 354.004 619.018 354.13C623.645 354.547 657.953 375.69 660.22 379.474C661.092 380.929 661.24 382.796 660.866 384.429C660.152 387.545 657.999 389.658 655.435 391.356C654.116 391.479 652.676 391.663 651.361 391.461C645.919 390.624 613.154 371.825 610.368 367.493C609.07 365.476 608.616 363.172 609.17 360.825C609.913 357.677 611.704 355.724 614.386 354.065Z" data-index="77"></path><path fill="#9757CC" d="M617.112 357.834C623.16 358.674 650.717 377.106 657.396 381.87C656.501 384.158 655.64 386.083 653.892 387.848C646.689 385.369 619.988 371.311 614.827 366.184C613.9 365.264 613.322 364.123 613.491 362.778C613.757 360.661 615.613 359.138 617.112 357.834Z" data-index="78"></path><path fill="#020101" d="M231.843 453.949C236.005 454.08 242.257 456.405 245.398 459.128C246.522 460.103 247.279 461.192 247.325 462.709C247.484 467.833 239.048 498.802 236.948 504.268C236.548 505.307 235.944 505.989 235.19 506.787C234.389 507.079 233.5 507.332 232.642 507.126C228.3 506.086 222.956 498.748 220.254 495.318C220.272 494.854 220.3 494.39 220.338 493.927C220.92 486.958 226.575 463.129 229.399 456.912C229.957 455.684 230.838 454.82 231.843 453.949Z" data-index="79"></path><path fill="#9757CC" d="M233.266 458.046C235.611 458.891 241.006 460.338 242.157 462.785C243.731 466.133 234.747 496.328 233.047 502.314L232.308 502.293C229.384 500.054 226.651 497.114 224.552 494.086C226.917 482.056 229.865 469.825 233.266 458.046Z" data-index="80"></path><path fill="#020101" d="M212.014 429.64L212.63 429.646C219.019 429.764 223.018 432.702 227.287 437.144C226.517 444.176 221.159 472.706 217.175 478.112C211.172 477.675 205.421 470.371 201.551 466.144C202.262 458.541 204.906 437.272 207.655 430.911C208.853 429.832 210.48 429.846 212.014 429.64Z" data-index="81"></path><path fill="#9757CC" d="M210.954 433.284C215.614 433.589 218.995 435.578 222.768 438.105C221.433 449.026 218.317 460.125 215.549 470.769L215.05 471.986L214.138 472.087C210.964 470.126 208.61 467.221 206.259 464.378C207.077 454.071 209.578 443.573 210.954 433.284Z" data-index="82"></path><path fill="#020101" d="M628.576 269.516C629.201 269.455 629.866 269.371 630.499 269.407C636.502 269.755 649.957 278.855 653.787 283.658C655.723 286.085 656.567 288.768 656.055 291.858C655.352 296.105 652.293 300.023 648.85 302.447C648.044 302.501 647.069 302.618 646.276 302.472C642.373 301.753 625.247 287.652 622.854 284.06C621.412 281.894 620.775 279.385 621.47 276.836C622.464 273.19 625.492 271.289 628.576 269.516Z" data-index="83"></path><path fill="#9757CC" d="M628.205 273.821C628.893 273.814 629.558 273.803 630.241 273.909C637.532 275.044 647.756 283.071 651.947 288.961C650.858 292.012 649.588 294.825 648.105 297.705C647.553 297.903 647.298 298.097 646.74 298.013C643.081 297.459 627.851 283.572 625.795 280.175C625.392 277.466 626.7 275.901 628.205 273.821Z" data-index="84"></path><path fill="#020101" d="M438.348 29.3867C440.295 29.8369 441.497 32.2261 442.568 33.8041C435.498 40.8379 428.054 46.0997 421.107 53.8448C414.834 60.8387 409.614 69.6796 402.844 76.0523C401.467 75.601 399.728 75.103 398.663 74.1022C398.218 73.6838 398.229 73.6668 398.325 73.049C399.272 66.9875 418.599 46.2898 423.677 41.4448C428.257 37.0752 433.04 32.8527 438.348 29.3867Z" data-index="85"></path><path fill="#020101" d="M144.481 493.817C145.595 493.877 146.883 494.014 147.84 494.653C148.511 495.101 148.89 495.724 149.074 496.482C149.799 499.461 145.543 505.152 144.281 508.052C140.613 516.478 137.128 533.513 133.43 539.976C132.428 539.972 131.512 539.85 130.518 539.729C129.44 538.942 128.9 538.513 128.659 537.136C127.686 531.593 140.621 498.488 144.481 493.817Z" data-index="86"></path><path fill="#020101" d="M313.359 61.3648C314.025 61.5612 314.696 61.7559 315.349 61.9902C316.902 62.5475 317.709 63.1579 318.412 64.6417C316.727 69.1619 300.286 99.5814 297.306 103.027C295.517 101.999 293.567 101.185 291.701 100.303C294.188 95.0415 297.293 89.8803 300.007 84.7141C303.973 77.1627 307.877 67.9427 313.359 61.3648Z" data-index="87"></path><path fill="#CFA6F7" d="M473.022 656.514C478.405 659.209 483.519 662.488 488.876 665.254C501.547 671.796 516.544 677.166 530.939 677.371C553.411 762.129 576.459 846.732 600.083 931.176C578.529 917.209 548.827 898.628 524.254 892.268C518.135 890.612 511.631 889.854 505.342 890.899C500.115 891.767 495.34 893.879 491.003 896.899C476.946 906.689 455.995 933.905 445.871 948.287C441.187 905.86 437.211 863.399 432.001 821.018C426.828 778.944 420.454 737.035 415.067 694.997C419.443 695.06 423.805 695.137 428.016 693.764C441.982 689.21 457.54 665.473 473.022 656.514Z" data-index="88" style="opacity: 1;"></path><path fill="#CFA6F7" d="M730.651 542.788C735.033 545.846 744.196 557.779 748.303 562.343C756.019 570.887 764.005 579.183 772.249 587.219C815.05 629.089 862.914 666.547 915.671 695C903.681 695.157 891.687 694.577 879.692 694.781C869.218 694.959 813.922 696.88 807.51 704.076C802.329 709.891 805.854 764.688 806.69 774.121L808.949 794.823C748.658 749.211 692.7 686.624 642.822 629.917C644.795 628.706 646.842 627.502 648.556 625.934C651.255 623.421 653.242 620.24 654.319 616.713C657.289 607.024 656.998 585.957 657.594 575.032C673.203 574.541 691.979 574.123 707.259 572.021C715.111 570.941 723.256 567.727 728.042 561.077C732.186 555.319 731.622 549.364 730.651 542.788Z" data-index="89"></path><path fill="#9757CC" d="M550.651 659.299C552.951 667.711 554.536 676.394 556.64 684.874C561.293 703.623 566.22 722.344 571.219 741.004C592.299 820.413 615.103 899.353 639.616 977.77C614.104 962.835 588.394 948.238 562.494 933.985C550.892 927.653 539.048 920.285 526.765 915.416C522.518 913.732 517.403 912.219 512.784 912.668C509.119 913.025 505.03 915.298 502.277 917.672C495.004 923.945 488.801 931.888 482.602 939.209C473.572 949.881 464.605 960.606 455.701 971.384C445.48 983.738 434.51 995.458 424.581 1008.05C423.252 998.817 423.39 988.948 422.917 979.62C422.071 961.471 421.019 943.332 419.761 925.207C415.829 866.219 409.204 807.441 399.908 749.058C396.485 725.447 391.277 701.993 385.554 678.848C393.237 684.08 401.2 688.979 408.957 694.118C413.494 720.547 416.66 747.258 420.105 773.85C425.062 810.479 429.544 847.17 433.551 883.914C435.465 901.336 437.228 918.774 438.838 936.226C439.416 942.546 439.268 952.349 440.694 958.199C441.025 959.558 441.175 959.629 442.285 960.349C443.862 960.253 444.28 959.599 445.268 958.403C447.988 955.108 450.331 951.361 452.894 947.93C464.055 932.987 478.224 912.942 493.226 901.95C499.013 897.71 504.946 895.693 512.11 895.811C531.804 896.135 568.058 916.967 584.792 927.988C589.68 931.207 601.666 940.584 606.801 941.399L607.672 940.636C608.032 939.015 607.687 937.513 607.301 935.924C602.571 916.432 596.339 897.051 591.027 877.687L548.235 721.349C544.247 706.325 539.013 690.706 536.772 675.358C543.202 671.194 546.599 665.57 550.651 659.299Z" data-index="90"></path><path fill="#9757CC" d="M711.487 498.097C713.569 498.342 715.692 498.435 717.783 498.597C722.228 502.75 726.098 508.176 730.139 512.782C740.386 524.465 750.516 536.368 761.243 547.615C776.008 562.834 791.293 577.54 807.071 591.708C829.798 612.769 853.64 632.595 878.495 651.098C899.445 666.426 925.017 684.523 947.531 696.955C952.243 699.557 972.916 708.62 974.732 711.264C969.178 713.383 950.655 713.25 944.07 713.427C930.973 713.779 838.832 714.228 833.624 720.039C831.148 722.801 831.528 730.535 831.322 734.204C829.606 764.678 831.906 794.332 836.925 824.39C838.42 831.559 839.878 838.735 841.3 845.918C835.023 842.933 828.773 839.938 822.633 836.679C819.422 826.809 817.869 816.148 816.284 805.909C811.209 773.136 808.711 739.768 811.752 706.682C839.127 699.698 868.275 699.781 896.339 700.034C902.895 700.093 920.473 701.228 926.114 700.087C927.586 699.789 928.097 699.551 928.949 698.33C928.952 697.149 929.098 696.631 928.23 695.711C925.913 693.26 911.22 686.924 906.935 684.607C901.117 681.43 895.367 678.132 889.687 674.714C872.585 664.383 856.322 652.266 840.565 640.015C808.022 614.714 777.807 587.587 750.238 556.932C742.862 548.73 735.018 540.549 728.708 531.478C721.707 521.413 716.861 509.109 711.487 498.097Z" data-index="91"></path><path fill="#9757CC" d="M604.135 627.935C615.535 629.481 625.682 631.978 637.355 631.447C640.136 635.449 643.816 639.157 647.074 642.785L663.975 661.558C700.409 702.459 738.595 743.75 781.009 778.48C790.145 785.96 799.494 794.029 809.553 800.226C811.422 811.113 814.105 822.07 815.639 832.964C808.577 830.028 801.254 824.467 794.918 820.121C774.142 805.872 755.333 789.168 737.005 771.938C702.347 739.356 670.597 704.124 639.127 668.497C627.3 655.108 616.853 640.517 604.135 627.935Z" data-index="92"></path><path fill="#E3D3F8" d="M759.649 450.888C762.846 454.214 765.856 462.563 765.768 467.087C765.704 470.403 764.381 473.324 761.991 475.615C751.587 485.587 710.297 486.847 695.489 486.459C699.759 502.772 709.669 518.243 712.253 534.987C712.946 539.48 712.988 543.994 710.047 547.749C698.729 562.203 658.674 555.329 641.616 558.392C639.959 558.69 639.033 559.328 638.42 560.922C637.421 563.516 637.822 567.221 637.804 569.986C637.734 580.632 639.141 599.845 632.996 608.816C629.955 613.256 626.281 614.179 621.329 615.135C616.742 615.74 612.074 615.49 607.477 615.155C609.509 614.176 611.48 613.191 613.268 611.796C627.977 600.313 627.34 568.858 629.11 551.723C646.156 551.216 665.017 553.059 681.625 548.645C689.097 546.659 696.281 542.728 700.127 535.734C707.579 522.179 697.494 497.307 693.358 483.235C709.571 478.945 745.055 476.601 755.906 464.072C759.374 460.067 759.913 455.962 759.649 450.888Z" data-index="93"></path><defs><linearGradient id="gradient_2" gradientUnits="userSpaceOnUse" x1="746.56665" y1="374.31012" x2="774.60211" y2="390.52231"><stop offset="0" stop-color="#E2C4FD"></stop><stop offset="1" stop-color="#EDE3FE"></stop></linearGradient></defs><path fill="url(#gradient_2)" d="M777.725 352.815C780.048 355.093 782.381 357.651 783.965 360.514C786.077 364.331 786.823 368.812 785.584 373.04C781.817 385.895 750.907 402.986 738.913 409.626C735.906 406.301 733.09 402.809 730.477 399.166C743.453 392.987 760.361 383.885 770.151 373.431C775.891 367.301 777.953 361.121 777.725 352.815Z" data-index="94"></path><path fill="#E3D3F8" d="M770.11 255.707C770.933 256.239 771.674 256.921 772.356 257.622C775.571 260.926 778.083 265.032 777.977 269.785C777.723 281.262 751.29 305.416 742.836 313.136C739.638 310.639 736.567 308.063 733.551 305.349C742.502 293.935 759.537 278.545 765.844 267.228C767.916 263.509 769.047 259.819 770.11 255.707Z" data-index="95"></path><path fill="#E3D3F8" d="M545.393 603.778C548.254 604.352 551.004 605.352 553.771 606.266C547.063 620.367 534.741 651.022 523.195 660.623C518.891 664.202 515.648 663.891 510.383 663.391C506.748 662.713 503.318 661.606 499.808 660.458C503.812 659.435 507.306 658.126 510.678 655.715C525.734 644.948 534.917 619.356 545.393 603.778Z" data-index="96"></path><path fill="#E3D3F8" d="M351.338 642.423C351.501 642.406 351.663 642.372 351.827 642.372C355.026 642.37 360.642 649.958 362.781 652.403C351.053 654.175 342.017 662.182 332.307 668.407C323.493 674.057 314.482 679.603 304.653 683.297C300.391 683.6 296.731 680.957 293.188 678.913C302.01 673.734 310.98 669.102 319.555 663.476C330.094 656.561 340.298 648.481 351.338 642.423Z" data-index="97"></path><path fill="#E3D3F8" d="M444.214 634.513C449.264 634.262 453.057 636.919 457.237 639.382C442.921 644.132 431.808 672.915 412.544 677.963C407.997 678.399 403.718 677.995 399.227 677.273C420.075 665.487 426.783 643.88 444.214 634.513Z" data-index="98"></path><path fill="#E3D3F8" d="M256.248 617.622L257.499 617.501C259.85 619.113 260.382 624.133 261.006 626.823C247.943 631.297 219.024 642.864 206.133 637.21C203.361 635.585 200.754 633.953 198.228 631.963C217.695 627.815 236.754 621.384 256.248 617.622Z" data-index="99"></path><path fill="#E3D3F8" d="M731.941 174.776C735.552 177.884 738.332 182.197 738.736 187.026C739.508 196.252 730.993 207.113 726.488 214.607C724.776 217.455 723.314 220.83 721.204 223.364L719.704 222.997L710.775 219.612C718.081 204.54 727.586 191.152 731.941 174.776Z" data-index="100"></path><path fill="#E3D3F8" d="M657.505 100.819C665.409 107.585 667.463 134.954 668.532 145.366C664.831 144.896 661.152 144.264 657.507 143.47L657.505 100.819Z" data-index="101"></path><path fill="#E3D3F8" d="M565.491 49.7641C565.984 50.034 566.108 50.0682 566.572 50.5162C568.939 52.8017 586.923 85.6631 586.784 87.7297C583.804 88.2967 580.799 88.7647 577.808 89.2742C573.108 76.2969 568.998 63.1134 565.491 49.7641Z" data-index="102"></path><path fill="white" d="M91.6901 473.365C92.5053 473.467 93.2243 473.564 94.018 473.786C97.9367 474.88 124.882 484.237 126.486 486.304C126.832 486.751 127.029 487.296 127.301 487.791C126.871 487.819 126.341 487.871 125.898 487.842C119.016 487.385 96.4855 478.404 91.6901 473.365Z" data-index="103"></path><path fill="white" d="M144.101 575.031C148.299 574.691 178.728 574.738 181.347 575.789C181.965 576.037 182.237 577.306 182.483 577.918C176.792 578.448 154.156 577.601 148.647 576.701C147.045 576.439 145.557 575.72 144.101 575.031Z" data-index="104"></path><path fill="#020101" d="M367.978 730.07C368.447 730.01 369.328 729.879 369.778 729.903C371.085 729.972 371.504 730.58 372.38 731.432C372.696 732.544 372.986 733.043 372.351 734.125C371.619 735.37 369.854 736.186 368.601 736.755C359.971 740.674 350.631 743.556 341.75 746.908L296.627 764.228C296.297 764.331 295.832 764.496 295.491 764.502C294.278 764.522 293.872 763.983 293.038 763.23C292.611 761.916 292.398 761.231 292.634 759.827C298.168 754.897 356.999 733.692 367.978 730.07Z" data-index="105"></path><path fill="#020101" d="M367.983 707.03C369.26 707.207 370.365 707.523 371.026 708.717C371.589 709.731 371.496 710.763 370.953 711.759C370.294 712.967 368.463 713.752 367.28 714.324C357.503 719.048 346.974 722.732 336.974 727.025C325.231 732.065 313.253 738.176 301.116 742.085C299.866 741.971 299.039 741.986 298.132 740.951C297.236 739.929 297.262 739.213 297.323 737.975C298.081 736.746 299.062 736.295 300.312 735.659C310.073 730.693 320.859 726.766 330.937 722.406C342.782 717.282 355.811 710.769 367.983 707.03Z" data-index="106"></path><path fill="#020101" d="M370.13 750.47L371.746 750.533C372.602 751.053 372.743 750.983 373.191 751.957C373.76 753.193 373.958 754.565 373.35 755.833C372.33 757.956 327.414 776.263 320.613 778.574C319.249 778.482 318.511 778.635 317.62 777.421C316.88 776.413 316.874 775.401 317.023 774.229C317.644 773.07 318.523 772.676 319.652 772.099C324.765 769.484 330.468 767.513 335.766 765.256L370.13 750.47Z" data-index="107" style="opacity: 1;"></path><path fill="#020101" d="M376.123 773.469C376.914 773.664 378.04 774.085 378.663 774.625C379.595 775.433 379.537 775.837 379.602 776.975C377.409 782.1 349.988 790.146 343.428 793.173L342.665 793.529C342.442 793.522 342.216 793.545 341.995 793.51C340.777 793.315 340.037 792.879 339.374 791.808C338.758 790.813 338.831 789.58 339.268 788.538C340.366 785.916 371.345 775.299 376.123 773.469Z" data-index="108"></path><path fill="#020101" d="M374.943 790.936C375.525 791.075 376.512 791.355 377.004 791.739C378.159 792.641 378.134 793.084 378.296 794.439C376.369 799.192 360.67 804.847 355.532 807.026C353.986 806.703 353.033 806.375 352.107 805.066C352.027 804.327 351.816 803.739 352.152 803.039C354.13 798.915 370.273 792.824 374.943 790.936Z" data-index="109"></path><path fill="#020101" d="M377.609 811.382C378.825 811.643 379.578 812.425 380.492 813.212C380.976 814.574 380.953 814.679 380.558 816.076C376.67 820.509 368.074 823.506 362.648 825.789C361.217 825.401 360.617 824.872 359.538 823.915C359.333 823.186 359.026 822.691 359.29 821.938C360.741 817.798 373.607 813.216 377.609 811.382Z" data-index="110"></path><path fill="#020101" d="M382.14 832.362C383.04 832.712 384.275 833.572 384.837 834.376C385.407 835.192 385.543 836.058 385.107 836.973C383.843 839.621 379.688 841.296 377.21 842.551C376.425 842.265 375.464 841.967 374.785 841.463C373.704 840.661 373.562 839.939 373.441 838.68C374.897 835.461 379.165 833.899 382.14 832.362Z" data-index="111"></path></svg>